<svg width="1423" height="680" viewBox="0 0 1423 680" fill="none" xmlns="http://www.w3.org/2000/svg">
<g clip-path="url(#clip0_127_259)">
<mask id="mask0_127_259" style="mask-type:alpha" maskUnits="userSpaceOnUse" x="1046" y="0" width="377" height="211">
<rect x="1046" width="377" height="211" fill="#F2F5F7"/>
</mask>
<g mask="url(#mask0_127_259)">
<g opacity="0.1">
<path opacity="0.8" d="M1199.98 97.0199C1155.68 77.3799 1135.51 24.7599 1155.14 -19.5301C1167.63 -47.7201 1154.9 -80.7001 1126.71 -93.1901C1098.52 -105.68 1065.54 -92.9501 1053.05 -64.7601C1040.64 -36.7601 1053.14 -4.05009 1080.94 8.62991V8.64991C1125.22 28.2799 1145.62 80.9999 1125.99 125.29C1113.5 153.48 1126.23 186.46 1154.42 198.95C1182.61 211.44 1215.59 198.71 1228.08 170.52C1240.52 142.44 1227.93 109.62 1199.97 97.0199H1199.98Z" fill="#7EBE34"/>
<path opacity="0.8" d="M1344.44 125.39V125.41C1300.14 105.78 1247.61 126.19 1227.98 170.48C1215.49 198.67 1182.51 211.4 1154.32 198.91C1126.13 186.42 1113.4 153.44 1125.89 125.25C1138.3 97.2503 1170.92 84.5303 1198.99 96.6103V96.5803C1243.29 116.21 1296.05 95.9003 1315.68 51.6103C1328.17 23.4203 1361.15 10.6903 1389.34 23.1803C1417.53 35.6703 1430.26 68.6503 1417.77 96.8403C1405.33 124.92 1372.56 137.64 1344.44 125.39Z" fill="url(#paint0_linear_127_259)"/>
<path opacity="0.6" d="M1235.57 74.3599C1266.2 74.3599 1291.03 49.5297 1291.03 18.8999C1291.03 -11.7298 1266.2 -36.5601 1235.57 -36.5601C1204.94 -36.5601 1180.11 -11.7298 1180.11 18.8999C1180.11 49.5297 1204.94 74.3599 1235.57 74.3599Z" fill="#1DA1DC"/>
</g>
</g>
<g opacity="0.8">
<path opacity="0.8" d="M137.308 229.811L137.322 229.819C178.857 207.381 231.449 223.2 253.894 264.739C268.18 291.179 301.191 301.029 327.631 286.742C354.071 272.456 363.921 239.445 349.634 213.005C335.447 186.74 302.782 176.873 276.433 190.749L276.421 190.724C234.882 213.169 182.079 197.463 159.627 155.92C145.341 129.48 112.33 119.631 85.8899 133.917C59.4499 148.203 49.6005 181.214 63.8868 207.654C78.1161 233.989 110.922 243.847 137.312 229.804L137.308 229.811Z" fill="#7EBE34" fill-opacity="0.2"/>
<path opacity="0.8" d="M29.312 324.272L29.2984 324.264C70.8416 301.812 86.4295 249.15 63.9845 207.611C49.6981 181.171 59.5476 148.16 85.9876 133.874C112.428 119.587 145.438 129.437 159.725 155.877C173.912 182.142 164.27 214.873 138.226 229.306L138.246 229.318C96.6992 251.777 80.9003 304.553 103.345 346.092C117.632 372.532 107.782 405.543 81.3421 419.829C54.9021 434.115 21.8914 424.266 7.60504 397.826C-6.62425 371.491 3.1026 338.646 29.312 324.272Z" fill="url(#paint1_linear_127_259)" fill-opacity="0.2"/>
<path opacity="0.6" d="M149.284 350.648C175.137 365.574 208.195 356.717 223.121 330.864C238.047 305.01 229.189 271.952 203.336 257.026C177.483 242.1 144.425 250.958 129.499 276.811C114.573 302.664 123.431 335.722 149.284 350.648Z" fill="#1DA1DC" fill-opacity="0.2"/>
</g>
</g>
<defs>
<linearGradient id="paint0_linear_127_259" x1="1154.75" y1="59.2264" x2="1388.19" y2="162.675" gradientUnits="userSpaceOnUse">
<stop stop-color="#7EBE34"/>
<stop offset="0.09" stop-color="#6DB950"/>
<stop offset="0.23" stop-color="#55B17A"/>
<stop offset="0.38" stop-color="#40AB9D"/>
<stop offset="0.53" stop-color="#31A7B9"/>
<stop offset="0.69" stop-color="#25A3CC"/>
<stop offset="1" stop-color="#1FA1D8"/>
</linearGradient>
<linearGradient id="paint1_linear_127_259" x1="193.729" y1="217.201" x2="-25.2143" y2="335.485" gradientUnits="userSpaceOnUse">
<stop stop-color="#7EBE34"/>
<stop offset="0.09" stop-color="#6DB950"/>
<stop offset="0.23" stop-color="#55B17A"/>
<stop offset="0.38" stop-color="#40AB9D"/>
<stop offset="0.53" stop-color="#31A7B9"/>
<stop offset="0.69" stop-color="#25A3CC"/>
<stop offset="1" stop-color="#1FA1D8"/>
</linearGradient>
<clipPath id="clip0_127_259">
<rect width="1422.77" height="679.51" fill="white"/>
</clipPath>
</defs>
</svg>
