<svg width="77" height="65" viewBox="0 0 77 65" fill="none" xmlns="http://www.w3.org/2000/svg">
<g clip-path="url(#clip0_1253_3453)">
<path d="M32.5 65C50.4493 65 65 50.4493 65 32.5C65 14.5507 50.4493 0 32.5 0C14.5507 0 0 14.5507 0 32.5C0 50.4493 14.5507 65 32.5 65Z" fill="#EDEDED"/>
<path d="M56.3447 45.4929H18.4893V9.0929H70.9061V27.2929H67.9882V12.0038H21.4001V42.582H56.3447V45.4929Z" fill="#7EBE34"/>
<path d="M72.3619 60.0543H59.256C56.8467 60.0543 54.8896 58.0973 54.8896 55.688V30.9386C54.8896 28.5293 56.8467 26.5723 59.256 26.5723H72.3619C74.7712 26.5723 76.7282 28.5293 76.7282 30.9386V55.688C76.7282 58.0973 74.7712 60.0543 72.3619 60.0543ZM59.256 29.4761C58.4505 29.4761 57.8005 30.1261 57.8005 30.9315V55.681C57.8005 56.4864 58.4505 57.1364 59.256 57.1364H72.3619C73.1674 57.1364 73.8174 56.4864 73.8174 55.681V30.9315C73.8174 30.1261 73.1674 29.4761 72.3619 29.4761H59.256Z" fill="#7EBE34"/>
<path d="M41.7829 44.0375H38.8721V52.7701H41.7829V44.0375Z" fill="#7EBE34"/>
<path d="M50.5154 44.0375H47.6045V52.7701H50.5154V44.0375Z" fill="#7EBE34"/>
<path d="M57.7928 51.3217H31.5879V54.2325H57.7928V51.3217Z" fill="#7EBE34"/>
<path d="M50.5226 36.7603H19.9443V39.6711H50.5226V36.7603Z" fill="#7EBE34"/>
<path d="M75.2724 32.394H56.3447V35.3049H75.2724V32.394Z" fill="#7EBE34"/>
<path d="M75.2724 51.3217H56.3447V54.2325H75.2724V51.3217Z" fill="#7EBE34"/>
</g>
<defs>
<clipPath id="clip0_1253_3453">
<rect width="76.7283" height="65" fill="white"/>
</clipPath>
</defs>
</svg>
