<svg width="18" height="18" viewBox="0 0 18 18" fill="none" xmlns="http://www.w3.org/2000/svg">
<path d="M3.78538 0H1.70601C0.763806 0 0 0.764204 0 1.7069V3.78736C0 4.73005 0.763806 5.49425 1.70601 5.49425H3.78538C4.72759 5.49425 5.49139 4.73005 5.49139 3.78736V1.7069C5.49139 0.764204 4.72759 0 3.78538 0Z" fill="#7EBE34"/>
<path d="M13.0047 0H13.9008C15.9974 0 17.6977 1.70115 17.6977 3.79885V4.6954C17.6977 5.13793 17.3358 5.5 16.8935 5.5H13.0047C12.5624 5.5 12.2006 5.13793 12.2006 4.6954V0.804598C12.2063 0.362069 12.5624 0 13.0047 0Z" fill="#7EBE34"/>
<path d="M17.692 12.954C17.6632 12.4483 17.2497 12.046 16.7384 12.046H15.446C13.6538 12.046 12.2063 13.5 12.2063 15.2873V16.5804C12.2063 17.0919 12.6084 17.5057 13.1139 17.5345C13.1311 17.5345 13.1483 17.5345 13.1656 17.5345C15.67 17.5345 17.7034 15.5 17.7034 12.9942C17.7034 12.977 17.7034 12.9598 17.7034 12.9425L17.692 12.954Z" fill="#7EBE34"/>
<path d="M2.2517 12.046H0.95927C0.448042 12.046 0.0344648 12.4483 0.00574413 12.954C0 12.9712 0 12.9885 0 13.0057V16.5862C0 17.1149 0.43081 17.546 0.95927 17.546H4.53787C4.53787 17.546 4.57233 17.546 4.58956 17.546C5.09505 17.5172 5.49714 17.1034 5.49714 16.5919V15.2988C5.49714 13.5057 4.04387 12.0575 2.25745 12.0575L2.2517 12.046Z" fill="#7EBE34"/>
<path d="M8.99531 12.5173C6.81254 12.5173 5.02612 10.7184 5.02612 8.5345C5.02612 7.1437 3.90027 6.02301 2.51593 6.02301C1.13159 6.02301 0 7.14945 0 8.5345C0 9.91956 1.10862 11.0345 2.48721 11.046C4.66998 11.046 6.4679 12.8448 6.4679 15.0288C6.4679 16.4196 7.59375 17.5403 8.97808 17.5403C10.3624 17.5403 11.4883 16.4138 11.4883 15.0288C11.4883 13.6437 10.3739 12.523 8.98957 12.5173H8.99531Z" fill="#7EBE34"/>
<path d="M15.4517 11.0517C13.2689 11.0517 11.4825 12.8506 11.4825 15.0345C11.4825 16.4253 10.3567 17.546 8.97231 17.546C7.58798 17.546 6.46213 16.4196 6.46213 15.0345C6.46213 13.6494 7.57075 12.5345 8.94934 12.523C11.1321 12.523 12.93 10.7241 12.93 8.54024C12.93 7.14944 14.0559 6.02875 15.4402 6.02875C16.8245 6.02875 17.9504 7.15518 17.9504 8.54024C17.9504 9.9253 16.836 11.046 15.4517 11.0517Z" fill="url(#paint0_linear_933_497)"/>
<path d="M8.85169 11C10.2285 11 11.3446 9.88327 11.3446 8.50573C11.3446 7.12819 10.2285 6.01147 8.85169 6.01147C7.47487 6.01147 6.35873 7.12819 6.35873 8.50573C6.35873 9.88327 7.47487 11 8.85169 11Z" fill="#1DA1DC"/>
<path d="M11.2528 5.27011C11.4596 5.09195 11.5974 4.83333 11.5974 4.54023V0.95977C11.5974 0.431034 11.1666 0 10.6381 0H7.05955C6.53109 0 6.10028 0.431034 6.10028 0.95977V4.54023C6.10028 4.87356 6.2726 5.16667 6.53109 5.33908C7.20315 4.83333 8.03031 4.52874 8.93788 4.52874C9.84545 4.52874 10.5979 4.8046 11.2528 5.27011Z" fill="#7EBE34"/>
<defs>
<linearGradient id="paint0_linear_933_497" x1="6.46213" y1="11.7816" x2="17.9504" y2="11.7816" gradientUnits="userSpaceOnUse">
<stop stop-color="#7EBE34"/>
<stop offset="0.09" stop-color="#6DB950"/>
<stop offset="0.23" stop-color="#55B17A"/>
<stop offset="0.38" stop-color="#40AB9D"/>
<stop offset="0.53" stop-color="#31A7B9"/>
<stop offset="0.69" stop-color="#25A3CC"/>
<stop offset="1" stop-color="#1FA1D8"/>
</linearGradient>
</defs>
</svg>
