<svg width="20" height="24" viewBox="0 0 20 24" fill="none" xmlns="http://www.w3.org/2000/svg">
<g clip-path="url(#clip0_70_47)">
<path d="M15.7496 8.18H13.8196L13.1696 7.2C13.1696 7.2 13.1396 7.16 13.1196 7.14C13.1196 7.14 13.0996 7.12 13.0996 7.11C13.0096 7.02 12.8996 6.96 12.7696 6.94H12.7496C12.7496 6.94 12.7096 6.94 12.6896 6.94H12.6596C12.4596 6.94 12.2696 7.04 12.1496 7.22L11.6296 8.03L10.9496 6.49C10.8496 6.25 10.5996 6.11 10.3496 6.13C10.0896 6.15 9.87965 6.33 9.80965 6.58L8.81965 10.32L7.92965 8.53C7.82965 8.34 7.63965 8.21 7.41965 8.2C7.37965 8.2 7.34965 8.2 7.30965 8.2C7.27965 8.2 7.24965 8.2 7.21965 8.22H7.19965L7.17965 8.23C7.15965 8.23 7.13965 8.24 7.12965 8.25H7.09965L7.06965 8.28C7.03965 8.3 7.01965 8.31 6.99965 8.33C6.94965 8.37 6.89965 8.42 6.86965 8.47L5.90965 9.94H4.24965C3.91965 9.94 3.63965 10.21 3.63965 10.55C3.63965 10.89 3.90965 11.16 4.24965 11.16H6.23965C6.44965 11.16 6.63965 11.06 6.74965 10.88L7.30965 10.02L8.44965 12.3C8.44965 12.3 8.46965 12.34 8.47965 12.36C8.50965 12.4 8.53965 12.44 8.56965 12.47C8.58965 12.49 8.60965 12.51 8.62965 12.52C8.72965 12.59 8.85965 12.63 8.97965 12.63C8.99965 12.63 9.01965 12.63 9.03965 12.63C9.17965 12.62 9.30965 12.55 9.40965 12.46C9.42965 12.44 9.43965 12.43 9.45965 12.41V12.39C9.45965 12.39 9.48965 12.36 9.49965 12.35C9.49965 12.34 9.51965 12.32 9.51965 12.31C9.51965 12.3 9.52965 12.28 9.53965 12.27C9.54965 12.24 9.55965 12.21 9.56965 12.18L10.5196 8.56L10.9596 9.55C10.9896 9.63 11.0396 9.69 11.0996 9.75C11.1196 9.77 11.1396 9.79 11.1596 9.8C11.2496 9.86 11.3496 9.9 11.4596 9.91C11.6796 9.93 11.8996 9.82 12.0196 9.63L12.6496 8.66L12.9696 9.14C12.9696 9.14 13.0296 9.22 13.0696 9.25C13.0696 9.25 13.0896 9.26 13.0896 9.27C13.1096 9.29 13.1396 9.31 13.1596 9.32C13.1596 9.32 13.1796 9.32 13.1796 9.33H13.1896C13.1896 9.33 13.2096 9.35 13.2196 9.35C13.2396 9.35 13.2596 9.37 13.2896 9.37C13.2996 9.37 13.3096 9.37 13.3196 9.37H13.3596C13.3596 9.37 13.4296 9.39 13.4696 9.39H15.7296C16.0596 9.39 16.3396 9.12 16.3396 8.78C16.3396 8.44 16.0696 8.17 15.7296 8.17L15.7496 8.18Z" fill="#2596CB"/>
<path d="M15.7293 15.61H4.28934C3.88934 15.61 3.56934 15.29 3.56934 14.89C3.56934 14.49 3.88934 14.17 4.28934 14.17H15.7393C16.1393 14.17 16.4593 14.49 16.4593 14.89C16.4593 15.29 16.1393 15.61 15.7393 15.61H15.7293Z" fill="#2596CB"/>
<path d="M15.7098 18.99H4.2698C3.8698 18.99 3.5498 18.67 3.5498 18.27C3.5498 17.87 3.8698 17.55 4.2698 17.55H15.7198C16.1198 17.55 16.4398 17.87 16.4398 18.27C16.4398 18.67 16.1198 18.99 15.7198 18.99H15.7098Z" fill="#2596CB"/>
<path d="M17.41 23.21H2.59C1.16 23.21 0 22.05 0 20.62V4.48001C0 3.05001 1.16 1.89001 2.59 1.89001H3.94C4.45 1.89001 4.86 2.30001 4.86 2.81001C4.86 3.32001 4.45 3.73001 3.94 3.73001H2.59C2.18 3.73001 1.85 4.06001 1.85 4.47001V20.62C1.85 21.03 2.18 21.36 2.59 21.36H17.42C17.83 21.36 18.16 21.03 18.16 20.62V4.48001C18.16 4.07001 17.83 3.74001 17.42 3.74001H16.07C15.56 3.74001 15.15 3.33001 15.15 2.82001C15.15 2.31001 15.56 1.90001 16.07 1.90001H17.42C18.85 1.90001 20.01 3.06001 20.01 4.49001V20.64C20.01 22.07 18.85 23.23 17.42 23.23L17.41 23.21Z" fill="#BAC5D6"/>
<path d="M12.7402 2.23C12.4102 2.14 12.1602 1.88 12.0602 1.55C11.8002 0.65 10.9802 0 10.0002 0C9.0202 0 8.2102 0.64 7.9402 1.53C7.8402 1.87 7.5702 2.13 7.2302 2.24C6.3502 2.5 5.7102 3.32 5.7002 4.28H14.2802C14.2802 3.31 13.6202 2.49 12.7302 2.23H12.7402ZM10.0102 2.86C9.6102 2.86 9.2902 2.54 9.2902 2.14C9.2902 1.74 9.6102 1.42 10.0102 1.42C10.4102 1.42 10.7302 1.74 10.7302 2.14C10.7302 2.54 10.4102 2.86 10.0102 2.86Z" fill="#2596CB"/>
</g>
<defs>
<clipPath id="clip0_70_47">
<rect width="20" height="23.21" fill="white"/>
</clipPath>
</defs>
</svg>
