<svg width="80" height="72" viewBox="0 0 80 72" fill="none" xmlns="http://www.w3.org/2000/svg">
<g clip-path="url(#clip0_1253_3421)">
<path d="M31.925 70.8319C49.5568 70.8319 63.8501 56.5386 63.8501 38.9069C63.8501 21.2751 49.5568 6.98181 31.925 6.98181C14.2933 6.98181 0 21.2751 0 38.9069C0 56.5386 14.2933 70.8319 31.925 70.8319Z" fill="#EDEDED"/>
<path d="M41.9392 62.587C39.9959 62.587 38.0527 61.8444 36.5744 60.3661L19.6403 43.4319C16.6837 40.4754 16.6837 35.6589 19.6403 32.6954L50.1078 2.22087C51.5375 0.784246 53.4461 0 55.4726 0C57.4992 0 59.4078 0.791186 60.8374 2.22087L77.7716 19.155C80.7281 22.1116 80.7281 26.9281 77.7716 29.8916L47.2971 60.3661C45.8188 61.8444 43.8755 62.587 41.9323 62.587H41.9392ZM55.4796 3.57422C54.4108 3.57422 53.3975 3.99063 52.641 4.74712L22.1665 35.2217C20.6049 36.7832 20.6049 39.3303 22.1665 40.8988L39.1007 57.8329C40.6622 59.3945 43.2093 59.4014 44.7778 57.8329L75.2523 27.3584C76.8139 25.7968 76.8139 23.2498 75.2523 21.6813L58.3181 4.74712C57.5617 3.99063 56.5484 3.57422 55.4796 3.57422Z" fill="#7EBE34"/>
<path d="M47.8113 39.3442H26.3521C25.3666 39.3442 24.5615 38.546 24.5615 37.5536C24.5615 36.5611 25.3597 35.763 26.3521 35.763H47.8113C50.7678 35.763 53.1761 33.3547 53.1761 30.3982V8.93902C53.1761 7.9535 53.9742 7.14844 54.9667 7.14844C55.9591 7.14844 56.7572 7.94656 56.7572 8.93902V30.3982C56.7572 35.3258 52.7458 39.3372 47.8182 39.3372L47.8113 39.3442Z" fill="#7EBE34"/>
<path d="M42.4459 55.4317C41.4603 55.4317 40.6553 54.6335 40.6553 53.6411V37.5467C40.6553 36.5612 41.4534 35.7561 42.4459 35.7561C43.4383 35.7561 44.2364 36.5542 44.2364 37.5467V53.6411C44.2364 54.6266 43.4383 55.4317 42.4459 55.4317Z" fill="#7EBE34"/>
<path d="M71.0607 26.824H54.9664C53.9808 26.824 53.1758 26.0258 53.1758 25.0334C53.1758 24.0409 53.9739 23.2428 54.9664 23.2428H71.0607C72.0463 23.2428 72.8513 24.0409 72.8513 25.0334C72.8513 26.0258 72.0532 26.824 71.0607 26.824Z" fill="#7EBE34"/>
<path d="M10.2644 71.526C9.80637 71.526 9.34832 71.3524 9.00131 71.0054C8.30035 70.3045 8.30035 69.1732 9.00131 68.4792L16.1567 61.3238C16.8576 60.6229 17.9889 60.6229 18.6829 61.3238C19.3769 62.0248 19.3839 63.156 18.6829 63.8501L11.5276 71.0054C11.1805 71.3524 10.7225 71.526 10.2644 71.526Z" fill="#7EBE34"/>
<path d="M10.2644 59.0128C9.80637 59.0128 9.34832 58.8393 9.00131 58.4922C8.30035 57.7913 8.30035 56.66 9.00131 55.966L16.1567 48.8106C16.8576 48.1097 17.9889 48.1097 18.6829 48.8106C19.3769 49.5116 19.3839 50.6429 18.6829 51.3369L11.5276 58.4922C11.1805 58.8393 10.7225 59.0128 10.2644 59.0128Z" fill="#7EBE34"/>
<path d="M22.7781 71.526C22.32 71.526 21.862 71.3524 21.515 71.0054C20.814 70.3045 20.814 69.1732 21.515 68.4792L28.6704 61.3238C29.3713 60.6229 30.5026 60.6229 31.1966 61.3238C31.8906 62.0248 31.8976 63.156 31.1966 63.8501L24.0412 71.0054C23.6942 71.3524 23.2362 71.526 22.7781 71.526Z" fill="#7EBE34"/>
</g>
<defs>
<clipPath id="clip0_1253_3421">
<rect width="80" height="71.526" fill="white"/>
</clipPath>
</defs>
</svg>
