<svg width="110" height="111" viewBox="0 0 110 111" fill="none" xmlns="http://www.w3.org/2000/svg">
<path d="M55 110.25C85.3757 110.25 110 85.6257 110 55.25C110 24.8743 85.3757 0.25 55 0.25C24.6243 0.25 0 24.8743 0 55.25C0 85.6257 24.6243 110.25 55 110.25Z" fill="#F7F7F7"/>
<path d="M73.14 91.7499C64.08 91.7499 56.71 84.3799 56.71 75.3199C56.71 66.2599 64.08 58.8899 73.14 58.8899C82.2 58.8899 89.57 66.2599 89.57 75.3199C89.57 84.3799 82.2 91.7499 73.14 91.7499ZM73.14 62.5399C66.1 62.5399 60.36 68.2699 60.36 75.3199C60.36 82.3699 66.09 88.0999 73.14 88.0999C80.19 88.0999 85.92 82.3699 85.92 75.3199C85.92 68.2699 80.19 62.5399 73.14 62.5399Z" fill="#7EBE34"/>
<path d="M51.24 77.15H31.16C30.15 77.15 29.33 76.33 29.33 75.32V64.37C29.33 55.53 34.38 47.7 42.42 43.73C39.95 40.96 38.46 37.15 38.46 33.34C38.46 25.29 45.01 18.74 53.06 18.74C61.11 18.74 67.66 25.29 67.66 33.34C67.66 37.15 66.16 40.96 63.7 43.73C67.74 45.73 71.13 48.76 73.43 52.45C73.96 53.31 73.7 54.43 72.84 54.96C71.98 55.5 70.86 55.23 70.32 54.37C67.96 50.57 64.2 47.6 59.74 46C59.1 45.77 58.64 45.2 58.55 44.53C58.46 43.86 58.75 43.19 59.3 42.79C62.11 40.8 64.01 36.99 64.01 33.33C64.01 27.29 59.1 22.38 53.06 22.38C47.02 22.38 42.11 27.29 42.11 33.33C42.11 37 44 40.8 46.82 42.79C47.38 43.18 47.67 43.85 47.57 44.53C47.48 45.2 47.02 45.77 46.38 46C38.24 48.91 32.99 56.12 32.99 64.36V73.49H51.24C52.25 73.49 53.07 74.31 53.07 75.32C53.07 76.33 52.25 77.15 51.24 77.15Z" fill="#7EBE34"/>
<path d="M71.32 82.6299C70.75 82.6299 70.2 82.3599 69.86 81.8999L64.38 74.5999C63.77 73.7899 63.94 72.6499 64.75 72.0399C65.56 71.4299 66.7 71.5999 67.3 72.3999L71.23 77.6399L77.1 68.8299C77.66 67.9899 78.79 67.7599 79.63 68.3199C80.47 68.8799 80.7 70.0099 80.14 70.8499L72.84 81.7999C72.51 82.2899 71.96 82.5999 71.37 82.6099C71.35 82.6099 71.34 82.6099 71.32 82.6099V82.6299Z" fill="#7EBE34"/>
</svg>
