<svg width="50" height="50" viewBox="0 0 50 50" fill="none" xmlns="http://www.w3.org/2000/svg">
<path d="M24.9985 27.5004C20.1752 27.5004 16.2492 23.5744 16.2492 18.7511V11.2512H33.7478V18.7511C33.7478 23.5744 29.8218 27.5004 24.9985 27.5004ZM18.7481 13.7501V18.7511C18.7481 22.1963 21.5533 25.0014 24.9985 25.0014C28.4437 25.0014 31.2489 22.1963 31.2489 18.7511V13.7501H18.7481Z" fill="#7EBE34"/>
<path d="M21.2501 12.5008H18.7511V6.25038C18.7511 2.80517 21.5563 0 25.0015 0C28.4467 0 31.2519 2.80517 31.2519 6.25038V8.74931H28.753V6.25038C28.753 4.18325 27.0717 2.50199 25.0046 2.50199C22.9375 2.50199 21.2562 4.18325 21.2562 6.25038V12.5008H21.2501Z" fill="#7EBE34"/>
<path d="M26.2479 16.2493H23.749V21.2502H26.2479V16.2493Z" fill="#7EBE34"/>
<path d="M50 50H0V31.252H50V50ZM2.50199 47.5011H47.5011V33.7509H2.49893V47.5011H2.50199Z" fill="#7EBE34"/>
<path d="M7.13349 36.6156L5.36649 38.3826L11.616 44.6321L13.383 42.8651L7.13349 36.6156Z" fill="#7EBE34"/>
<path d="M11.616 36.6157L5.36649 42.8652L7.13349 44.6322L13.383 38.3827L11.616 36.6157Z" fill="#7EBE34"/>
<path d="M22.1314 36.6143L20.3644 38.3813L26.6139 44.6308L28.3809 42.8638L22.1314 36.6143Z" fill="#7EBE34"/>
<path d="M26.6139 36.6143L20.3644 42.8638L22.1314 44.6308L28.3809 38.3813L26.6139 36.6143Z" fill="#7EBE34"/>
<path d="M37.1323 36.6163L35.3653 38.3833L41.6148 44.6328L43.3818 42.8658L37.1323 36.6163Z" fill="#7EBE34"/>
<path d="M41.6148 36.6162L35.3653 42.8657L37.1323 44.6327L43.3818 38.3832L41.6148 36.6162Z" fill="#7EBE34"/>
</svg>
