<svg width="20" height="21" viewBox="0 0 20 21" fill="none" xmlns="http://www.w3.org/2000/svg">
<path d="M9.73584 11.448C9.12784 11.448 8.63184 11.952 8.63184 12.568C8.63184 13.184 9.12784 13.688 9.73584 13.688C10.3438 13.688 10.8558 13.176 10.8558 12.568C10.8558 12.272 10.7358 11.992 10.5278 11.784C10.3118 11.568 10.0398 11.456 9.74384 11.456L9.73584 11.448Z" fill="#ffffff"/>
<path d="M9.9039 4.008C8.1279 4.008 7.2959 5.096 7.2959 5.832C7.2959 6.4 7.7599 6.704 8.1999 6.704C8.5679 6.704 8.7279 6.472 8.8639 6.264C9.0399 6.008 9.2159 5.744 9.8639 5.744C10.0879 5.744 10.8159 5.792 10.8159 6.424C10.8159 6.896 10.3919 7.216 10.0239 7.504C9.9359 7.576 9.8479 7.64 9.7679 7.704C9.3519 8.056 8.8799 8.608 8.8799 9.712C8.8799 10.432 9.1119 10.704 9.7199 10.704C10.4959 10.704 10.6159 10.288 10.6159 10.032C10.6159 9.416 10.6159 9.104 11.2479 8.608C12.2079 7.856 12.6959 7.056 12.6959 6.208C12.6959 4.912 11.5439 4 9.8959 4L9.9039 4.008Z" fill="#ffffff"/>
<path d="M11.056 20.4C10.936 20.4 10.808 20.376 10.688 20.328C10.328 20.176 10.088 19.832 10.088 19.44V17.832H8.912C4 17.824 0 13.824 0 8.912C0 4 4 0 8.912 0H11.088C16 0 20 4 20 8.912C20 12.36 17.968 15.536 14.824 17C14.776 17.024 14.736 17.056 14.696 17.088L11.744 20.104C11.56 20.296 11.312 20.392 11.056 20.392V20.4ZM8.912 1.616C4.888 1.616 1.616 4.888 1.616 8.912C1.616 12.936 4.888 16.208 8.912 16.208H10.496C11.168 16.208 11.712 16.752 11.712 17.424V17.832L13.536 15.968C13.712 15.792 13.912 15.648 14.136 15.544C16.712 14.344 18.376 11.744 18.376 8.92C18.376 4.896 15.104 1.624 11.08 1.624H8.904L8.912 1.616Z" fill="#ffffff"/>
</svg>
