<svg width="18" height="18" viewBox="0 0 18 18" fill="none" xmlns="http://www.w3.org/2000/svg">
<path d="M8.1665 11.5H9.83317V13.1667H8.1665V11.5ZM8.1665 4.83333H9.83317V9.83333H8.1665V4.83333ZM8.9915 0.666664C4.3915 0.666664 0.666504 4.4 0.666504 9C0.666504 13.6 4.3915 17.3333 8.9915 17.3333C13.5998 17.3333 17.3332 13.6 17.3332 9C17.3332 4.4 13.5998 0.666664 8.9915 0.666664ZM8.99984 15.6667C5.3165 15.6667 2.33317 12.6833 2.33317 9C2.33317 5.31666 5.3165 2.33333 8.99984 2.33333C12.6832 2.33333 15.6665 5.31666 15.6665 9C15.6665 12.6833 12.6832 15.6667 8.99984 15.6667Z" fill="#2596CB"/>
</svg>
