<svg width="14" height="13" viewBox="0 0 14 13" fill="none" xmlns="http://www.w3.org/2000/svg">
<path fill-rule="evenodd" clip-rule="evenodd" d="M0.499968 0C0.367368 0 0.240199 0.0570653 0.146437 0.158642C0.052675 0.260219 0 0.397987 0 0.541638V5.74136C0 6.09701 0.0646603 6.44917 0.190289 6.77774C0.315918 7.10632 0.500055 7.40487 0.732186 7.65635C1.201 8.16423 1.83684 8.44956 2.49984 8.44956H12.2922L8.94543 12.0742C8.85155 12.1759 8.79881 12.3138 8.79881 12.4577C8.79881 12.6015 8.85155 12.7395 8.94543 12.8412C9.03931 12.9429 9.16664 13 9.29941 13C9.43217 13 9.5595 12.9429 9.65338 12.8412L13.8531 8.2914C13.8997 8.24108 13.9366 8.18131 13.9618 8.11551C13.987 8.04971 14 7.97916 14 7.90792C14 7.83667 13.987 7.76613 13.9618 7.70033C13.9366 7.63452 13.8997 7.57475 13.8531 7.52444L9.85337 3.19133C9.75949 3.08963 9.63216 3.03249 9.49939 3.03249C9.36663 3.03249 9.2393 3.08963 9.14542 3.19133C9.05154 3.29304 8.99879 3.43098 8.99879 3.57481C8.99879 3.71865 9.05154 3.85659 9.14542 3.95829L12.2922 7.36628H2.49984C2.10204 7.36628 1.72053 7.19508 1.43925 6.89035C1.15796 6.58562 0.999936 6.17232 0.999936 5.74136V0.541638C0.999936 0.397987 0.947261 0.260219 0.853499 0.158642C0.759737 0.0570653 0.632568 0 0.499968 0Z" fill="#676D77"/>
</svg>
