<svg width="13" height="12" viewBox="0 0 13 12" fill="none" xmlns="http://www.w3.org/2000/svg">
<path d="M9.07633 7.54717H8.53431L8.3422 7.36192C9.01458 6.57976 9.41938 5.56432 9.41938 4.45969C9.41938 1.99657 7.42281 0 4.95969 0C2.49657 0 0.5 1.99657 0.5 4.45969C0.5 6.92281 2.49657 8.91938 4.95969 8.91938C6.06432 8.91938 7.07976 8.51458 7.86192 7.8422L8.04717 8.03431V8.57633L11.4777 12L12.5 10.9777L9.07633 7.54717ZM4.95969 7.54717C3.25129 7.54717 1.87221 6.1681 1.87221 4.45969C1.87221 2.75129 3.25129 1.37221 4.95969 1.37221C6.6681 1.37221 8.04717 2.75129 8.04717 4.45969C8.04717 6.1681 6.6681 7.54717 4.95969 7.54717Z" fill="#333333"/>
</svg>
