<svg width="34" height="34" viewBox="0 0 34 34" fill="none" xmlns="http://www.w3.org/2000/svg">
<path d="M17 0.333332C7.79998 0.333332 0.333313 7.8 0.333313 17C0.333313 26.2 7.79998 33.6667 17 33.6667C26.2 33.6667 33.6666 26.2 33.6666 17C33.6666 7.8 26.2 0.333332 17 0.333332ZM17 25.3333C16.0833 25.3333 15.3333 24.5833 15.3333 23.6667V17C15.3333 16.0833 16.0833 15.3333 17 15.3333C17.9166 15.3333 18.6666 16.0833 18.6666 17V23.6667C18.6666 24.5833 17.9166 25.3333 17 25.3333ZM18.6666 12H15.3333V8.66667H18.6666V12Z" fill="black" fill-opacity="0.54"/>
</svg>
