<svg width="60" height="73" viewBox="0 0 60 73" fill="none" xmlns="http://www.w3.org/2000/svg">
<path d="M43.64 72.73C34.62 72.73 27.28 65.39 27.28 56.37C27.28 47.35 34.62 40.01 43.64 40.01C52.66 40.01 60 47.35 60 56.37C60 65.39 52.66 72.73 43.64 72.73ZM43.64 43.64C36.62 43.64 30.91 49.35 30.91 56.37C30.91 63.39 36.62 69.1 43.64 69.1C50.66 69.1 56.37 63.39 56.37 56.37C56.37 49.35 50.66 43.64 43.64 43.64Z" fill="#7EBE34"/>
<path d="M52.73 54.55H34.55V58.19H52.73V54.55Z" fill="#7EBE34"/>
<path d="M45.4601 47.27H41.8201V65.45H45.4601V47.27Z" fill="#7EBE34"/>
<path d="M21.82 58.18H1.82C0.82 58.18 0 57.37 0 56.36V45.45C0 36.64 5.03 28.84 13.04 24.89C10.58 22.13 9.09 18.33 9.09 14.54C9.09 6.53 15.62 0 23.64 0C31.66 0 38.19 6.53 38.19 14.55C38.19 18.34 36.7 22.14 34.24 24.9C38.26 26.89 41.64 29.91 43.93 33.59C44.46 34.44 44.2 35.56 43.34 36.09C42.49 36.62 41.36 36.36 40.84 35.5C38.49 31.71 34.75 28.75 30.3 27.16C29.66 26.93 29.2 26.37 29.11 25.7C29.02 25.03 29.31 24.36 29.86 23.97C32.66 21.98 34.55 18.2 34.55 14.54C34.55 8.52 29.66 3.63 23.64 3.63C17.62 3.63 12.73 8.52 12.73 14.54C12.73 18.19 14.61 21.98 17.42 23.97C17.97 24.36 18.26 25.03 18.17 25.7C18.08 26.37 17.62 26.94 16.98 27.16C8.88 30.06 3.64 37.24 3.64 45.45V54.54H21.82C22.82 54.54 23.64 55.35 23.64 56.36C23.64 57.37 22.83 58.18 21.82 58.18Z" fill="#7EBE34"/>
</svg>
