<svg width="40" height="62" viewBox="0 0 40 62" fill="none" xmlns="http://www.w3.org/2000/svg">
<path d="M30.77 61.5401H9.23C4.14 61.5401 0 57.4001 0 52.3101V24.6201H40V52.3101C40 57.4001 35.86 61.5401 30.77 61.5401ZM3.08 27.6901V52.3101C3.08 55.7001 5.84 58.4601 9.23 58.4601H30.77C34.16 58.4601 36.92 55.7001 36.92 52.3101V27.6901H3.08Z" fill="#7EBE34"/>
<path d="M35.3801 26.15H32.3001V15.38C32.3001 8.59 26.7801 3.07 19.9901 3.07C13.2001 3.07 7.69011 8.6 7.69011 15.38V26.15H4.61011V15.38C4.62011 6.9 11.5201 0 20.0001 0C28.4801 0 35.3801 6.9 35.3801 15.38V26.15Z" fill="#7EBE34"/>
<path d="M20 55.3801C17.45 55.3801 15.38 53.3101 15.38 50.7601V44.5801C12.92 42.7401 11.79 39.6201 12.54 36.5501C13.21 33.8101 15.42 31.6201 18.17 30.9801C20.51 30.4301 22.93 30.9601 24.78 32.4401C26.63 33.9101 27.69 36.1101 27.69 38.4701C27.69 40.8301 26.53 43.1501 24.61 44.5901V50.7801C24.61 53.3301 22.54 55.4001 19.99 55.4001L20 55.3801ZM20 33.8401C19.63 33.8401 19.25 33.8801 18.86 33.9701C17.25 34.3401 15.91 35.6701 15.52 37.2801C15.01 39.3501 15.87 41.3701 17.69 42.4301L18.45 42.8701V50.7601C18.45 51.6101 19.14 52.3001 19.99 52.3001C20.84 52.3001 21.53 51.6101 21.53 50.7601V42.8701L22.29 42.4301C23.74 41.5901 24.6 40.1001 24.6 38.4601C24.6 37.0401 23.96 35.7301 22.85 34.8401C22.02 34.1801 21.03 33.8401 19.99 33.8401H20Z" fill="#7EBE34"/>
</svg>
