<svg width="142" height="58" viewBox="0 0 142 58" fill="none" xmlns="http://www.w3.org/2000/svg">
<path d="M26.34 47.34H13.62C8.82 47.34 5.35 46.41 3.21 44.55C1.07 42.69 0 39.66 0 35.46V4.62H8.34V35.46C8.34 37.14 8.72 38.3 9.48 38.94C10.24 39.58 11.62 39.9 13.62 39.9H26.34V47.34Z" fill="#666666"/>
<path d="M58.74 30.06C58.74 37.46 57.34 42.42 54.54 44.94C52.18 47.1 48.76 48.18 44.28 48.18C38.56 48.18 34.7 46.5 32.7 43.14C30.82 40.06 29.88 35.7 29.88 30.06C29.88 24.78 30.82 20.64 32.7 17.64C34.78 14.28 38.57 12.6 44.07 12.6C49.57 12.6 53.39 14.07 55.53 17.01C57.67 19.95 58.74 24.3 58.74 30.06ZM50.94 31.86V28.74C50.94 25.78 50.51 23.52 49.65 21.96C48.79 20.4 47 19.62 44.28 19.62C39.88 19.62 37.68 22.58 37.68 28.5V31.62C37.68 37.98 39.88 41.16 44.28 41.16C47.12 41.16 48.98 40.1 49.86 37.98C50.58 36.3 50.94 34.26 50.94 31.86Z" fill="#666666"/>
<path d="M81.78 13.32L89.58 12.84V45.78C89.58 49.58 88.51 52.49 86.37 54.51C84.23 56.53 81.06 57.54 76.86 57.54C73.62 57.54 70.78 56.9 68.34 55.62C67.06 54.98 66.04 54.02 65.28 52.74C64.52 51.46 64.14 49.94 64.14 48.18L71.4 47.82C71.4 48.94 71.8 49.74 72.6 50.22C73.4 50.7 74.77 50.94 76.71 50.94C78.65 50.94 79.97 50.46 80.67 49.5C81.37 48.54 81.72 47.16 81.72 45.36L82.02 40.2L73.62 44.7C69.02 44.7 65.92 43.14 64.32 40.02C62.88 37.26 62.16 33.88 62.16 29.88C62.16 25.12 62.52 21.76 63.24 19.8C64 17.64 65.08 16.08 66.48 15.12C68.28 13.92 70.64 13.32 73.56 13.32H81.78ZM81.78 33.42V20.34H75.84C73.6 20.34 72.06 21.1 71.22 22.62C70.38 24.14 69.96 26.26 69.96 28.98C69.96 31.7 70.39 33.63 71.25 34.77C72.11 35.91 73.64 36.48 75.84 36.48L81.78 33.42Z" fill="#666666"/>
<path d="M102.24 0C104.12 0 105.34 0.29 105.9 0.87C106.46 1.45 106.74 2.67 106.74 4.53C106.74 6.39 106.45 7.61 105.87 8.19C105.29 8.77 104.07 9.06 102.21 9.06C100.35 9.06 99.13 8.76 98.55 8.16C97.97 7.56 97.68 6.34 97.68 4.5C97.68 2.66 97.97 1.45 98.55 0.87C99.13 0.29 100.36 0 102.24 0ZM106.08 47.34H98.28V14.34H106.08V47.34Z" fill="#666666"/>
<path d="M141.36 47.34H133.56V25.44C133.56 23.48 133.16 22.14 132.36 21.42C131.56 20.7 130.44 20.34 129 20.34L121.98 23.28V47.34H114.18V13.08H120L121.8 17.16L131.4 12.72C134.08 12.72 136.41 13.71 138.39 15.69C140.37 17.67 141.36 20.56 141.36 24.36V47.34Z" fill="#666666"/>
</svg>
