<svg width="205" height="49" viewBox="0 0 205 49" fill="none" xmlns="http://www.w3.org/2000/svg">
<path d="M7.56118 0H3.94306C2.30363 0 0.974609 1.32971 0.974609 2.97V6.59C0.974609 8.23029 2.30363 9.56 3.94306 9.56H7.56118C9.20061 9.56 10.5296 8.23029 10.5296 6.59V2.97C10.5296 1.32971 9.20061 0 7.56118 0Z" fill="#7EBE34"/>
<path d="M23.6029 0H25.1621C28.8102 0 31.7686 2.96 31.7686 6.61V8.17C31.7686 8.94 31.139 9.57 30.3694 9.57H23.6029C22.8333 9.57 22.2036 8.94 22.2036 8.17V1.4C22.2136 0.63 22.8333 0 23.6029 0Z" fill="#7EBE34"/>
<path d="M31.7584 22.54C31.7084 21.66 30.9888 20.96 30.0993 20.96H27.8504C24.7321 20.96 22.2134 23.49 22.2134 26.6V28.85C22.2134 29.74 22.913 30.46 23.7926 30.51C23.8225 30.51 23.8525 30.51 23.8825 30.51C28.2402 30.51 31.7784 26.97 31.7784 22.61C31.7784 22.58 31.7784 22.55 31.7784 22.52L31.7584 22.54Z" fill="#7EBE34"/>
<path d="M4.89257 20.96H2.64374C1.7542 20.96 1.03458 21.66 0.984604 22.54C0.974609 22.57 0.974609 22.6 0.974609 22.63V28.86C0.974609 29.78 1.72422 30.53 2.64374 30.53H8.8705C8.8705 30.53 8.93047 30.53 8.96045 30.53C9.83999 30.48 10.5396 29.76 10.5396 28.87V26.62C10.5396 23.5 8.01094 20.98 4.90256 20.98L4.89257 20.96Z" fill="#7EBE34"/>
<path d="M16.6265 21.78C12.8284 21.78 9.72005 18.65 9.72005 14.85C9.72005 12.43 7.76108 10.48 5.35233 10.48C2.94358 10.48 0.974609 12.44 0.974609 14.85C0.974609 17.26 2.9036 19.2 5.30236 19.22C9.10038 19.22 12.2287 22.35 12.2287 26.15C12.2287 28.57 14.1877 30.52 16.5965 30.52C19.0052 30.52 20.9642 28.56 20.9642 26.15C20.9642 23.74 19.0252 21.79 16.6165 21.78H16.6265Z" fill="#7EBE34"/>
<path d="M27.8606 19.23C24.0626 19.23 20.9542 22.36 20.9542 26.16C20.9542 28.58 18.9952 30.53 16.5865 30.53C14.1777 30.53 12.2188 28.57 12.2188 26.16C12.2188 23.75 14.1477 21.81 16.5465 21.79C20.3445 21.79 23.4729 18.66 23.4729 14.86C23.4729 12.44 25.4319 10.49 27.8406 10.49C30.2494 10.49 32.2083 12.45 32.2083 14.86C32.2083 17.27 30.2693 19.22 27.8606 19.23Z" fill="url(#paint0_linear_162_208)"/>
<path d="M16.3768 19.14C18.7725 19.14 20.7145 17.1969 20.7145 14.8C20.7145 12.403 18.7725 10.46 16.3768 10.46C13.9811 10.46 12.0391 12.403 12.0391 14.8C12.0391 17.1969 13.9811 19.14 16.3768 19.14Z" fill="#1DA1DC"/>
<path d="M20.5542 9.17C20.914 8.86 21.1539 8.41 21.1539 7.9V1.67C21.1539 0.75 20.4043 0 19.4848 0H13.258C12.3385 0 11.5889 0.75 11.5889 1.67V7.9C11.5889 8.48 11.8887 8.99 12.3385 9.29C13.5079 8.41 14.9471 7.88 16.5263 7.88C18.1055 7.88 19.4148 8.36 20.5542 9.17Z" fill="#7EBE34"/>
<path d="M65.1014 16.0799L65.1414 19.0699C65.0414 20.9599 64.8015 22.5499 64.4417 23.8399C64.0819 25.1299 63.3723 26.3099 62.3128 27.3699C60.5537 29.1299 57.9951 30.0099 54.6368 30.0099C50.6789 30.0099 47.9603 29.4899 46.4911 28.4399C45.0218 27.3899 44.2822 25.4999 44.2822 22.7499V2.37988H55.0266C58.125 2.37988 60.5637 3.25988 62.3228 5.01988C63.7421 6.43988 64.5817 8.17988 64.8415 10.2199C65.0214 11.6699 65.1114 13.6199 65.1114 16.0799H65.1014ZM59.4943 21.0299C59.6342 19.9799 59.7042 18.3499 59.7042 16.1199C59.7042 13.8899 59.6342 12.2799 59.4943 11.2899C59.3544 10.2899 59.0345 9.49988 58.5448 8.89988C57.6153 7.75988 56.266 7.18988 54.5069 7.18988H49.6594V22.4799C49.6594 23.5199 50.0092 24.2299 50.7089 24.6099C51.4085 24.9899 52.6579 25.1899 54.4569 25.1899C56.256 25.1899 57.6153 24.6199 58.5448 23.4799C59.0345 22.8899 59.3544 22.0599 59.4943 21.0199V21.0299Z" fill="#2596CB"/>
<path d="M87.7992 7.18988H80.393V30.0099H75.0058V7.18988H67.6396V2.37988H87.8091V7.18988H87.7992Z" fill="#2596CB"/>
<path d="M132.716 30.0099H122.941C119.843 30.0099 117.654 29.4699 116.404 28.3999C115.145 27.3299 114.525 25.4299 114.525 22.7099V2.37988H132.716V7.18988H119.913V13.6699H128.878L128.488 18.4799H119.913V22.3199C119.913 23.4099 120.162 24.1599 120.652 24.5699C121.142 24.9799 122.031 25.1899 123.331 25.1899H132.716V29.9999V30.0099Z" fill="#5A498B"/>
<path d="M158.902 30.0099H152.656L147.258 19.7599H143.38V30.0099H137.993V8.31988C137.993 6.24988 138.473 4.73988 139.432 3.79988C140.392 2.85988 141.991 2.37988 144.24 2.37988H148.818C151.556 2.37988 153.735 3.20988 155.354 4.87988C156.973 6.54988 157.783 8.65988 157.783 11.2299C157.783 13.0899 157.293 14.6999 156.324 16.0599C155.354 17.4199 154.155 18.3599 152.735 18.8699L158.902 30.0099ZM151.276 14.0799C152.016 13.2899 152.386 12.3099 152.386 11.1299C152.386 9.94988 152.026 8.99988 151.316 8.27988C150.607 7.55988 149.657 7.18988 148.468 7.18988H145.789C144.19 7.18988 143.38 7.99988 143.38 9.62988V15.2599H148.458C149.597 15.2599 150.537 14.8699 151.266 14.0799H151.276Z" fill="#5A498B"/>
<path d="M181.98 21.8599C181.98 24.4699 181.021 26.5199 179.112 28.0099C177.193 29.4999 174.754 30.2399 171.776 30.2399C169.427 30.2399 167.148 29.5899 164.949 28.2999C163.86 27.6299 162.97 26.6799 162.271 25.4499C161.571 24.2199 161.221 22.8199 161.221 21.2399L166.109 21.0099C166.109 22.4099 166.708 23.4899 167.898 24.2699C169.087 25.0499 170.406 25.4299 171.856 25.4299C175.084 25.4299 176.703 24.2899 176.703 22.0099C176.703 20.1499 175.604 19.0499 173.405 18.7099L168.907 18.2399C166.658 17.8999 164.869 17.0999 163.55 15.8299C162.231 14.5599 161.571 12.7399 161.571 10.3599C161.571 7.97988 162.511 6.00988 164.4 4.45988C166.289 2.90988 168.677 2.12988 171.556 2.12988C174.434 2.12988 176.763 2.85988 178.522 4.31988C180.281 5.77988 181.161 7.65988 181.161 9.96988L176.353 10.1999C175.914 7.94988 174.404 6.81988 171.816 6.81988C170.236 6.81988 169.007 7.15988 168.108 7.82988C167.218 8.49988 166.768 9.29988 166.768 10.2199C166.768 11.1399 167.088 11.8599 167.738 12.3899C168.387 12.9199 169.187 13.2499 170.147 13.3799L174.564 13.8499C179.502 14.5199 181.97 17.1899 181.97 21.8499L181.98 21.8599Z" fill="#5A498B"/>
<path d="M204.479 30.0099H194.704C191.605 30.0099 189.426 29.4699 188.167 28.3999C186.908 27.3299 186.288 25.4299 186.288 22.7099V2.37988H204.479V7.18988H191.675V13.6699H200.641L200.251 18.4799H191.675V22.3199C191.675 23.4099 191.925 24.1599 192.415 24.5699C192.905 24.9799 193.794 25.1899 195.093 25.1899H204.479V29.9999V30.0099Z" fill="#5A498B"/>
<path d="M109.718 2.13988C107.749 2.13988 106.01 3.41988 105.44 5.29988L103.061 13.0099L100.863 20.1499L98.7436 27.0099C98.3038 28.4499 99.3233 29.9899 100.833 29.9999C100.843 29.9999 100.853 29.9999 100.873 29.9999C102.062 29.9999 102.891 29.3999 103.351 28.2099L112.037 2.12988H109.718V2.13988Z" fill="#5A498B"/>
<path d="M96.2748 5.41C95.6951 3.53 93.9561 2.25 91.9971 2.25H89.7183L97.814 26.39C97.814 26.39 97.844 26.45 97.854 26.48L100.373 18.31L96.2848 5.41H96.2748Z" fill="#2596CB"/>
<path d="M46.7007 38.7601H49.949C50.0689 38.7601 50.1489 38.7901 50.1989 38.8401C50.2488 38.8901 50.2788 38.9701 50.2788 39.0901V41.5001H51.2783V38.2901H52.5576V48.0501H51.2783V42.7601H50.2788V45.6401C50.2788 45.7601 50.2488 45.8501 50.1989 45.9001C50.1489 45.9501 50.0689 45.9701 49.949 45.9701H46.6907C46.5708 45.9701 46.4808 45.9501 46.4408 45.9101C46.4009 45.8701 46.3809 45.7801 46.3809 45.6601V39.1001C46.3809 38.9801 46.4008 38.9001 46.4508 38.8501C46.5008 38.8001 46.5808 38.7701 46.7107 38.7701L46.7007 38.7601ZM48.9895 44.8601V39.8501H47.6402V44.8601H48.9895ZM53.3572 48.5301V38.1101H54.6266V48.5301H53.3572Z" fill="#999999"/>
<path d="M56.4854 38.6101H61.073V39.7201H57.4648V41.7001H60.943V42.8101H57.4648V44.9401C57.5848 44.9401 57.7247 44.9401 57.8646 44.9401C58.0046 44.9401 58.1645 44.9401 58.3444 44.9401C58.5243 44.9401 58.7142 44.9401 58.9341 44.9301C59.154 44.9201 59.3938 44.9101 59.6637 44.8801C60.0335 44.8601 60.4433 44.8201 60.923 44.7701C61.3928 44.7201 61.8126 44.6701 62.1724 44.6101V45.7201C61.8426 45.7701 61.4628 45.8201 61.023 45.8701C60.5832 45.9201 60.1435 45.9601 59.6937 45.9901C59.2339 46.0201 58.7542 46.0401 58.2544 46.0501C57.7547 46.0501 57.165 46.0601 56.4754 46.0601C56.3554 46.0601 56.2655 46.0401 56.2255 45.9901C56.1855 45.9401 56.1655 45.8601 56.1655 45.7301V38.9301C56.1655 38.8101 56.1855 38.7301 56.2355 38.6801C56.2855 38.6301 56.3654 38.6001 56.4954 38.6001L56.4854 38.6101ZM62.5622 48.5301V38.1101H63.8615V41.8901H65.2908V43.0901H63.8615V48.5301H62.5622Z" fill="#999999"/>
<path d="M66.2007 45.7201V38.6201H67.49V41.1201H69.7988V38.6201H71.0981V41.5801H72.8472V38.1201H74.1765V48.5401H72.8472V42.7401H71.0981V45.7201C71.0981 45.8401 71.0681 45.9301 71.0182 45.9801C70.9682 46.0301 70.8882 46.0501 70.7683 46.0501H66.5105C66.3906 46.0501 66.3006 46.0301 66.2606 45.9801C66.2207 45.9301 66.2007 45.8501 66.2007 45.7201ZM69.7988 44.9401V42.2501H67.49V44.9401H69.7988Z" fill="#999999"/>
<path d="M84.8408 47.25H75.2158V46.13H84.8408V47.25ZM83.6214 44.32C83.2516 44.2 82.8818 44.04 82.502 43.84C82.1322 43.63 81.7824 43.4 81.4526 43.15C81.1227 42.89 80.8329 42.62 80.583 42.33C80.3332 42.04 80.1433 41.76 80.0033 41.48C79.6735 42.1 79.2137 42.66 78.624 43.15C78.0244 43.64 77.3047 44.03 76.4452 44.34L75.5257 43.35C76.0654 43.19 76.5551 42.99 77.0249 42.73C77.4846 42.47 77.8844 42.17 78.2143 41.84C78.5541 41.5 78.8239 41.13 79.0138 40.72C79.2137 40.32 79.3037 39.89 79.3037 39.44V38.47H80.723V39.44C80.723 39.89 80.8129 40.32 81.0328 40.74C81.2427 41.16 81.5225 41.54 81.8724 41.89C82.2222 42.24 82.622 42.54 83.0717 42.8C83.5215 43.06 83.9813 43.25 84.461 43.38L83.6114 44.33L83.6214 44.32Z" fill="#999999"/>
<path d="M93.6163 38.7101C93.7362 38.7101 93.8162 38.7401 93.8661 38.7901C93.9161 38.8401 93.9461 38.9201 93.9461 39.0401C93.8561 40.6501 93.4464 42.0901 92.7367 43.3601C92.0271 44.6301 90.9676 45.7101 89.5484 46.6001L88.439 45.7301C89.6983 45.0501 90.6578 44.2201 91.3275 43.2401C91.9971 42.2501 92.3769 41.1201 92.4669 39.8401H89.0087V38.7201H93.6063L93.6163 38.7101ZM97.0345 38.1201V48.5401H95.7152V38.1201H97.0345Z" fill="#999999"/>
<path d="M103.531 43.4801C103.531 43.6001 103.501 43.6901 103.451 43.7401C103.401 43.7901 103.321 43.8101 103.201 43.8101H98.8836C98.7636 43.8101 98.6737 43.7901 98.6337 43.7401C98.5937 43.6901 98.5737 43.6101 98.5737 43.4801V38.4301H99.893V40.0801H102.252V38.4301H103.531V43.4801ZM99.993 48.3401C99.8731 48.3401 99.7831 48.3201 99.7431 48.2701C99.7031 48.2201 99.6832 48.1401 99.6832 48.0101V44.8701H101.032V47.2201H106.789V48.3401H99.993ZM102.252 42.7001V41.1901H99.893V42.7001H102.252ZM106.49 38.1101V40.7501H107.829V41.8801H106.49V45.8201H105.17V38.1101H106.49Z" fill="#999999"/>
<path d="M111.887 38.6001H113.916C115.335 38.6001 116.445 38.9801 117.234 39.7301C118.024 40.4801 118.424 41.5701 118.424 43.0001C118.424 44.4301 118.024 45.5401 117.234 46.2801C116.445 47.0301 115.335 47.4001 113.916 47.4001H111.887C111.767 47.4001 111.677 47.3801 111.637 47.3401C111.597 47.3001 111.577 47.2101 111.577 47.0901V38.9201C111.577 38.8001 111.597 38.7201 111.637 38.6801C111.677 38.6301 111.767 38.6101 111.887 38.6101V38.6001ZM112.876 46.3001H114.236C115.215 46.3001 115.935 46.0101 116.385 45.4401C116.844 44.8701 117.074 44.0601 117.074 43.0201C117.074 41.8101 116.774 40.9501 116.165 40.4401C115.555 39.9301 114.726 39.6901 113.656 39.7201H112.876V46.3101V46.3001Z" fill="#999999"/>
<path d="M120.732 47.4001V39.7001H118.133V38.5901H124.59V39.7001H122.021V47.4001H120.732Z" fill="#999999"/>
<path d="M123.571 47.4301L125.86 44.2601L123.681 41.3101H125.14L126.639 43.4201L128.138 41.3101H129.598L127.409 44.2601L129.718 47.4301H128.228L126.649 45.0701L125.06 47.4301H123.581H123.571Z" fill="#999999"/>
<path d="M135.794 43.4801C135.374 43.4801 134.995 43.4101 134.655 43.2801C134.315 43.1501 134.015 42.9701 133.775 42.7301C133.535 42.5001 133.345 42.2201 133.216 41.9001C133.086 41.5801 133.016 41.2301 133.016 40.8501C133.016 40.4701 133.086 40.1301 133.216 39.8101C133.345 39.4901 133.535 39.2201 133.775 38.9801C134.025 38.7501 134.315 38.5601 134.655 38.4301C134.995 38.3001 135.374 38.2301 135.794 38.2301C136.214 38.2301 136.584 38.3001 136.924 38.4301C137.263 38.5601 137.563 38.7501 137.803 38.9801C138.043 39.2101 138.233 39.4901 138.373 39.8101C138.503 40.1301 138.573 40.4701 138.573 40.8501C138.573 41.2301 138.503 41.5801 138.373 41.9001C138.233 42.2201 138.053 42.5001 137.803 42.7301C137.553 42.9601 137.263 43.1501 136.924 43.2801C136.584 43.4101 136.204 43.4801 135.794 43.4801ZM135.794 39.3501C135.334 39.3501 134.975 39.4901 134.715 39.7801C134.455 40.0701 134.335 40.4301 134.335 40.8601C134.335 41.2901 134.465 41.6501 134.715 41.9401C134.965 42.2301 135.324 42.3801 135.794 42.3801C136.264 42.3801 136.624 42.2301 136.874 41.9401C137.123 41.6501 137.253 41.2901 137.253 40.8601C137.253 40.4301 137.123 40.0601 136.874 39.7801C136.624 39.4901 136.264 39.3501 135.794 39.3501ZM134.775 44.5001H141.141C141.261 44.5001 141.341 44.5301 141.391 44.5801C141.441 44.6301 141.471 44.7101 141.471 44.8301V48.1001C141.471 48.2201 141.441 48.3101 141.391 48.3601C141.341 48.4101 141.261 48.4301 141.141 48.4301H134.775C134.655 48.4301 134.565 48.4101 134.515 48.3601C134.465 48.3101 134.445 48.2301 134.445 48.1001V44.8301C134.445 44.7101 134.465 44.6301 134.515 44.5801C134.565 44.5301 134.645 44.5001 134.775 44.5001ZM140.162 47.3501V45.5801H135.754V47.3501H140.162ZM141.481 38.1201V44.0601H140.182V38.1201H141.481Z" fill="#999999"/>
<path d="M142.181 43.1001C143.001 42.7001 143.65 42.2001 144.14 41.5901C144.62 40.9801 144.87 40.2801 144.87 39.5101V38.3501H146.259V39.4901C146.259 39.8601 146.319 40.2201 146.459 40.5501C146.599 40.8801 146.789 41.1901 147.019 41.4701C147.249 41.7401 147.518 41.9801 147.828 42.1901C148.138 42.4001 148.458 42.5701 148.798 42.6901L147.968 43.6801C147.718 43.5601 147.468 43.4201 147.219 43.2601C146.969 43.1001 146.739 42.9301 146.529 42.7501C146.309 42.5701 146.119 42.3901 145.949 42.2001C145.779 42.0101 145.649 41.8301 145.559 41.6501C145.489 41.8401 145.379 42.0301 145.22 42.2401C145.06 42.4501 144.88 42.6601 144.67 42.8701C144.46 43.0701 144.23 43.2701 143.97 43.4601C143.71 43.6501 143.45 43.8101 143.191 43.9501L142.181 43.1101V43.1001ZM147.608 44.3301C148.138 44.3301 148.628 44.3801 149.078 44.4801C149.527 44.5801 149.917 44.7201 150.257 44.9101C150.587 45.1001 150.837 45.3301 151.027 45.6001C151.216 45.8701 151.306 46.1801 151.306 46.5301C151.306 46.8801 151.216 47.2001 151.027 47.4701C150.837 47.7401 150.587 47.9701 150.257 48.1601C149.927 48.3501 149.527 48.4901 149.078 48.5801C148.628 48.6701 148.138 48.7201 147.598 48.7201C147.059 48.7201 146.569 48.6701 146.129 48.5801C145.679 48.4901 145.3 48.3501 144.97 48.1601C144.64 47.9701 144.39 47.7401 144.21 47.4701C144.03 47.2001 143.94 46.8801 143.94 46.5301C143.94 46.1801 144.03 45.8801 144.22 45.6101C144.41 45.3401 144.67 45.1101 145 44.9101C145.33 44.7201 145.719 44.5801 146.169 44.4801C146.619 44.3801 147.099 44.3301 147.618 44.3301H147.608ZM147.608 45.3701C146.939 45.3701 146.389 45.4701 145.969 45.6701C145.549 45.8701 145.34 46.1501 145.34 46.5101C145.34 46.8701 145.549 47.1601 145.969 47.3801C146.389 47.5901 146.939 47.7001 147.598 47.7001C148.258 47.7001 148.828 47.5901 149.247 47.3701C149.667 47.1501 149.867 46.8701 149.867 46.5101C149.867 46.1501 149.657 45.8601 149.247 45.6701C148.838 45.4701 148.288 45.3701 147.598 45.3701H147.608ZM149.627 44.3601V38.1201H150.937V40.3901H152.316V41.5001H150.937V44.3601H149.627Z" fill="#999999"/>
<path d="M153.055 38.7201H158.672V39.8101H156.553V40.7201C156.553 41.7501 156.763 42.6601 157.183 43.4601C157.603 44.2501 158.283 44.9101 159.212 45.4401L158.283 46.3401C157.723 45.9801 157.223 45.5701 156.793 45.0901C156.364 44.6101 156.044 44.1301 155.854 43.6201C155.654 44.1701 155.324 44.7101 154.854 45.2401C154.385 45.7701 153.905 46.2201 153.385 46.5901L152.306 45.7201C153.165 45.2101 153.855 44.5401 154.375 43.7101C154.894 42.8801 155.144 41.8701 155.144 40.6701V39.8201H153.045V38.7301L153.055 38.7201ZM160.042 48.5401V38.1201H161.361V48.5401H160.042Z" fill="#999999"/>
<path d="M164.729 45.18V43.54H162.541V42.47H165.559C165.749 42.47 166.029 42.47 166.379 42.45C166.728 42.44 167.098 42.42 167.488 42.4C167.888 42.37 168.268 42.34 168.647 42.3C169.027 42.26 169.337 42.22 169.597 42.18V43.25C169.147 43.34 168.617 43.4 167.998 43.44C167.378 43.48 166.738 43.51 166.059 43.52V45.19H164.739L164.729 45.18ZM163.29 39.97C163.29 39.41 163.52 38.95 163.99 38.57C164.46 38.2 165.089 38.01 165.879 38.01C166.668 38.01 167.338 38.2 167.798 38.57C168.258 38.94 168.497 39.41 168.497 39.97C168.497 40.53 168.268 41.02 167.798 41.37C167.328 41.72 166.688 41.89 165.879 41.89C165.069 41.89 164.47 41.71 164 41.36C163.53 41.01 163.3 40.54 163.3 39.97H163.29ZM164.44 48.33C164.32 48.33 164.23 48.31 164.19 48.26C164.15 48.21 164.13 48.13 164.13 48V45.53H165.479V47.21H171.416V48.33H164.45H164.44ZM164.599 39.97C164.599 40.27 164.699 40.49 164.899 40.63C165.099 40.78 165.419 40.85 165.869 40.85C166.319 40.85 166.658 40.78 166.868 40.63C167.078 40.48 167.178 40.26 167.178 39.97C167.178 39.69 167.078 39.47 166.868 39.32C166.658 39.16 166.329 39.09 165.859 39.09C165.429 39.09 165.109 39.17 164.899 39.32C164.689 39.48 164.589 39.69 164.589 39.97H164.599ZM169.897 46.09V45.05H167.618V44.04H169.897V38.1H171.216V46.09H169.897Z" fill="#999999"/>
<path d="M184.769 43.4801H175.164V42.4301H184.769V43.4801ZM176.203 38.3501H183.709V39.3301H182.55V40.7601H183.919V41.7601H176.013V40.7601H177.362V39.3301H176.203V38.3501ZM183.239 46.7501H177.842V47.5001H183.789V48.4801H176.673C176.553 48.4801 176.463 48.4601 176.413 48.4101C176.363 48.3601 176.343 48.2801 176.343 48.1501V46.1801C176.343 46.0601 176.363 45.9801 176.413 45.9301C176.463 45.8801 176.543 45.8501 176.673 45.8501H182.07V45.1401H176.343V44.1501H183.229C183.349 44.1501 183.429 44.1801 183.479 44.2301C183.529 44.2801 183.559 44.3601 183.559 44.4801V46.4201C183.559 46.5401 183.529 46.6301 183.479 46.6801C183.429 46.7301 183.349 46.7501 183.229 46.7501H183.239ZM178.682 39.3301V40.7601H181.24V39.3301H178.682Z" fill="#999999"/>
<path d="M186.008 40.7101H188.197V39.5901H185.688V38.5101H189.187C189.307 38.5101 189.387 38.5401 189.436 38.5901C189.486 38.6401 189.516 38.7201 189.516 38.8401V41.4101C189.516 41.5301 189.486 41.6201 189.436 41.6701C189.387 41.7201 189.307 41.7401 189.187 41.7401H186.988V42.8301H188.017C188.377 42.8301 188.747 42.8101 189.127 42.7701C189.506 42.7301 189.836 42.6801 190.106 42.6401V43.7101C189.966 43.7301 189.796 43.7601 189.586 43.7801C189.377 43.8001 189.167 43.8301 188.927 43.8501C188.697 43.8701 188.457 43.8901 188.217 43.9001C187.977 43.9101 187.757 43.9201 187.557 43.9201H185.998C185.878 43.9301 185.788 43.9101 185.738 43.8601C185.688 43.8101 185.668 43.7301 185.668 43.6001V41.0401C185.668 40.9201 185.688 40.8401 185.738 40.7901C185.788 40.7401 185.868 40.7101 185.998 40.7101H186.008ZM186.028 47.6501C187.108 47.3701 187.927 46.9901 188.477 46.5101C189.027 46.0301 189.317 45.4501 189.347 44.7601V44.4901H190.846V44.7601C190.846 45.4101 191.136 45.9901 191.715 46.4901C192.295 46.9901 193.125 47.3801 194.184 47.6501L193.404 48.5701C192.545 48.3401 191.835 48.0301 191.286 47.6401C190.736 47.2501 190.336 46.8301 190.096 46.3801C189.866 46.8101 189.476 47.2201 188.937 47.6101C188.397 47.9901 187.697 48.3101 186.858 48.5701L186.038 47.6401L186.028 47.6501ZM192.695 45.1801V41.7001H191.725V44.1401H190.446V38.2801H191.725V40.4801H192.695V38.1001H193.974V45.1701H192.695V45.1801Z" fill="#999999"/>
<path d="M203.639 42.2601H200.37V43.1901H204.488V44.3101H194.883V43.1901H198.991V42.2601H195.733V41.1501H197.142L197.122 39.4701H195.923V38.3601H203.429V39.4701H202.209V41.1501H203.639V42.2601ZM196.423 45.0501H202.959C203.079 45.0501 203.159 45.0801 203.209 45.1301C203.259 45.1801 203.289 45.2601 203.289 45.3801V48.0801C203.289 48.2001 203.259 48.2901 203.209 48.3401C203.159 48.3901 203.079 48.4101 202.959 48.4101H196.423C196.303 48.4101 196.213 48.3901 196.163 48.3401C196.113 48.2901 196.093 48.2101 196.093 48.0801V45.3801C196.093 45.2601 196.113 45.1801 196.163 45.1301C196.213 45.0801 196.293 45.0501 196.423 45.0501ZM201.96 47.3101V46.1501H197.412V47.3101H201.96ZM198.411 39.4701V41.1501H200.92V39.4701H198.411Z" fill="#999999"/>
<defs>
<linearGradient id="paint0_linear_162_208" x1="12.2188" y1="20.5" x2="32.2083" y2="20.5" gradientUnits="userSpaceOnUse">
<stop stop-color="#7EBE34"/>
<stop offset="0.09" stop-color="#6DB950"/>
<stop offset="0.23" stop-color="#55B17A"/>
<stop offset="0.38" stop-color="#40AB9D"/>
<stop offset="0.53" stop-color="#31A7B9"/>
<stop offset="0.69" stop-color="#25A3CC"/>
<stop offset="1" stop-color="#1FA1D8"/>
</linearGradient>
</defs>
</svg>
