<svg width="139" height="139" viewBox="0 0 139 139" fill="none" xmlns="http://www.w3.org/2000/svg">
<path d="M69 125.25C99.3757 125.25 124 100.626 124 70.25C124 39.8743 99.3757 15.25 69 15.25C38.6243 15.25 14 39.8743 14 70.25C14 100.626 38.6243 125.25 69 125.25Z" fill="#F7F7F7"/>
<path d="M69.14 92.75C60.08 92.75 52.71 85.38 52.71 76.32C52.71 67.26 60.08 59.89 69.14 59.89C78.2 59.89 85.57 67.26 85.57 76.32C85.57 85.38 78.2 92.75 69.14 92.75ZM69.14 63.54C62.1 63.54 56.36 69.27 56.36 76.32C56.36 83.37 62.09 89.1 69.14 89.1C76.19 89.1 81.92 83.37 81.92 76.32C81.92 69.27 76.19 63.54 69.14 63.54Z" fill="#7EBE34"/>
<path d="M67.3203 83.63C66.7503 83.63 66.2003 83.36 65.8603 82.9L60.3803 75.6C59.7703 74.79 59.9403 73.65 60.7503 73.04C61.5603 72.43 62.7003 72.6 63.3003 73.4L67.2303 78.64L73.1003 69.83C73.6603 68.99 74.7903 68.76 75.6303 69.32C76.4703 69.88 76.7003 71.01 76.1403 71.85L68.8403 82.8C68.5103 83.29 67.9603 83.6 67.3703 83.61C67.3503 83.61 67.3403 83.61 67.3203 83.61V83.63Z" fill="#7EBE34"/>
<path d="M100.63 36.66H37.0299C33.9399 36.66 31.4199 39.18 31.4199 42.27V98.39C31.4199 101.48 33.9399 104 37.0299 104H100.63C103.72 104 106.24 101.48 106.24 98.39V42.27C106.24 39.18 103.72 36.66 100.63 36.66ZM37.0299 40.4H83.7899V44.14H87.5299V40.4H93.1399V44.14H96.8799V40.4H100.62C101.65 40.4 102.49 41.24 102.49 42.27V47.88H35.1599V42.27C35.1599 41.24 35.9999 40.4 37.0299 40.4ZM100.63 100.26H37.0299C35.9999 100.26 35.1599 99.42 35.1599 98.39V51.62H102.5V98.39C102.5 99.42 101.66 100.26 100.63 100.26Z" fill="#7EBE34"/>
<path d="M12.1497 126.92C7.35973 126.92 3.46973 123.03 3.46973 118.24C3.46973 113.45 7.35973 109.56 12.1497 109.56C16.9397 109.56 20.8297 113.45 20.8297 118.24C20.8297 123.03 16.9397 126.92 12.1497 126.92ZM12.1497 113.04C9.27973 113.04 6.93973 115.38 6.93973 118.25C6.93973 121.12 9.26973 123.46 12.1497 123.46C15.0297 123.46 17.3597 121.13 17.3597 118.25C17.3597 115.37 15.0197 113.04 12.1497 113.04Z" fill="#7F85FC"/>
<path d="M125.86 30.94C121.43 30.94 117.82 27.33 117.82 22.9C117.82 18.47 121.43 14.86 125.86 14.86C130.29 14.86 133.9 18.47 133.9 22.9C133.9 27.33 130.29 30.94 125.86 30.94ZM125.86 18.08C123.2 18.08 121.04 20.25 121.04 22.9C121.04 25.55 123.2 27.72 125.86 27.72C128.52 27.72 130.68 25.56 130.68 22.9C130.68 20.24 128.51 18.08 125.86 18.08Z" fill="#F4D01E"/>
<path d="M113.62 5.5C113.27 5.31 111.59 4.39 111.13 4.13C110.67 3.88 110.29 3.5 110.04 3.04C109.78 2.58 108.87 0.89 108.68 0.55C108.49 0.21 108.13 0 107.75 0C107.37 0 107.01 0.21 106.82 0.55C106.63 0.89 105.71 2.58 105.46 3.04C105.2 3.5 104.83 3.88 104.37 4.13C103.91 4.38 102.22 5.31 101.88 5.5C101.53 5.69 101.33 6.05 101.33 6.43C101.33 6.81 101.53 7.17 101.88 7.36C102.23 7.55 103.91 8.47 104.37 8.73C104.83 8.98 105.21 9.36 105.46 9.82C105.72 10.28 106.63 11.97 106.82 12.31C107.01 12.65 107.37 12.86 107.75 12.86C108.13 12.86 108.49 12.65 108.68 12.31C108.87 11.97 109.79 10.28 110.04 9.82C110.3 9.36 110.67 8.98 111.13 8.73C111.59 8.48 113.28 7.55 113.62 7.36C113.97 7.17 114.17 6.81 114.17 6.43C114.17 6.05 113.97 5.69 113.62 5.5Z" fill="#FF8C00"/>
<path d="M133.3 105.62C132.86 105.38 130.71 104.2 130.12 103.88C129.54 103.56 129.06 103.07 128.73 102.49C128.4 101.91 127.23 99.75 126.99 99.31C126.75 98.87 126.29 98.61 125.8 98.61C125.31 98.61 124.85 98.88 124.61 99.31C124.37 99.74 123.2 101.9 122.87 102.49C122.54 103.07 122.06 103.56 121.48 103.88C120.9 104.2 118.74 105.38 118.3 105.62C117.86 105.86 117.6 106.32 117.6 106.8C117.6 107.28 117.86 107.75 118.3 107.98C118.74 108.22 120.89 109.4 121.48 109.72C122.06 110.04 122.54 110.53 122.87 111.11C123.2 111.69 124.37 113.85 124.61 114.29C124.85 114.73 125.31 114.99 125.8 114.99C126.29 114.99 126.75 114.72 126.99 114.29C127.23 113.86 128.4 111.7 128.73 111.11C129.06 110.53 129.54 110.04 130.12 109.72C130.7 109.4 132.86 108.22 133.3 107.98C133.74 107.74 134 107.28 134 106.8C134 106.32 133.74 105.85 133.3 105.62Z" fill="#F4D01E"/>
<path d="M31.7795 16.96C31.4795 16.8 29.9995 15.98 29.5995 15.76C29.1995 15.54 28.8695 15.21 28.6495 14.81C28.4295 14.41 27.6195 12.92 27.4595 12.63C27.2995 12.34 26.9795 12.15 26.6395 12.15C26.2995 12.15 25.9895 12.34 25.8195 12.63C25.6495 12.92 24.8495 14.41 24.6295 14.81C24.4095 15.21 24.0795 15.54 23.6795 15.76C23.2795 15.98 21.7995 16.79 21.4995 16.96C21.1995 17.13 21.0195 17.44 21.0195 17.77C21.0195 18.1 21.1995 18.42 21.4995 18.58C21.7995 18.74 23.2795 19.56 23.6795 19.78C24.0795 20 24.4095 20.33 24.6295 20.73C24.8495 21.13 25.6595 22.62 25.8195 22.91C25.9795 23.2 26.2995 23.39 26.6395 23.39C26.9795 23.39 27.2895 23.2 27.4595 22.91C27.6295 22.62 28.4295 21.13 28.6495 20.73C28.8695 20.33 29.1995 20 29.5995 19.78C29.9995 19.56 31.4795 18.75 31.7795 18.58C32.0795 18.41 32.2595 18.1 32.2595 17.77C32.2595 17.44 32.0795 17.12 31.7795 16.96Z" fill="#7F85FC"/>
<path d="M138.35 42.71C138.09 42.57 136.82 41.87 136.48 41.68C136.14 41.49 135.85 41.21 135.66 40.86C135.47 40.51 134.78 39.24 134.64 38.99C134.5 38.74 134.23 38.58 133.94 38.58C133.65 38.58 133.38 38.74 133.24 38.99C133.1 39.24 132.4 40.52 132.22 40.86C132.04 41.2 131.75 41.49 131.4 41.68C131.05 41.87 129.79 42.57 129.53 42.71C129.27 42.85 129.12 43.12 129.12 43.41C129.12 43.7 129.27 43.97 129.53 44.11C129.79 44.25 131.06 44.95 131.4 45.14C131.74 45.33 132.03 45.61 132.22 45.96C132.41 46.31 133.1 47.58 133.24 47.83C133.38 48.08 133.65 48.24 133.94 48.24C134.23 48.24 134.5 48.08 134.64 47.83C134.78 47.58 135.48 46.3 135.66 45.96C135.84 45.62 136.13 45.33 136.48 45.14C136.83 44.95 138.09 44.25 138.35 44.11C138.61 43.97 138.76 43.7 138.76 43.41C138.76 43.12 138.61 42.85 138.35 42.71Z" fill="#7F85FC"/>
<path d="M2.6 93.94C4.03594 93.94 5.2 92.7759 5.2 91.34C5.2 89.904 4.03594 88.74 2.6 88.74C1.16406 88.74 0 89.904 0 91.34C0 92.7759 1.16406 93.94 2.6 93.94Z" fill="#F4D01E"/>
<path d="M48.85 12.51C50.402 12.51 51.66 11.2519 51.66 9.7C51.66 8.14808 50.402 6.89 48.85 6.89C47.2981 6.89 46.04 8.14808 46.04 9.7C46.04 11.2519 47.2981 12.51 48.85 12.51Z" fill="#F4D01E"/>
<path d="M65.1996 139C66.6355 139 67.7996 137.836 67.7996 136.4C67.7996 134.964 66.6355 133.8 65.1996 133.8C63.7637 133.8 62.5996 134.964 62.5996 136.4C62.5996 137.836 63.7637 139 65.1996 139Z" fill="#F4D01E"/>
<path d="M134.27 87.19C135.402 87.19 136.32 86.2722 136.32 85.14C136.32 84.0078 135.402 83.09 134.27 83.09C133.138 83.09 132.22 84.0078 132.22 85.14C132.22 86.2722 133.138 87.19 134.27 87.19Z" fill="#FF8C00"/>
<path d="M34.7102 130.39C36.6267 130.39 38.1802 128.836 38.1802 126.92C38.1802 125.004 36.6267 123.45 34.7102 123.45C32.7938 123.45 31.2402 125.004 31.2402 126.92C31.2402 128.836 32.7938 130.39 34.7102 130.39Z" fill="#FF8C00"/>
</svg>
