<svg width="1423" height="680" viewBox="0 0 1423 680" fill="none" xmlns="http://www.w3.org/2000/svg">
<g clip-path="url(#clip0_105_821)">
<mask id="mask0_105_821" style="mask-type:alpha" maskUnits="userSpaceOnUse" x="1046" y="0" width="377" height="211">
<rect x="1046" width="377" height="211" fill="#F2F5F7"/>
</mask>
<g mask="url(#mask0_105_821)">
<g opacity="0.1">
<path opacity="0.8" d="M1199.98 97.0199C1155.68 77.3799 1135.51 24.7599 1155.14 -19.5301C1167.63 -47.7201 1154.9 -80.7001 1126.71 -93.1901C1098.52 -105.68 1065.54 -92.9501 1053.05 -64.7601C1040.64 -36.7601 1053.14 -4.05009 1080.94 8.62991V8.64991C1125.22 28.2799 1145.62 80.9999 1125.99 125.29C1113.5 153.48 1126.23 186.46 1154.42 198.95C1182.61 211.44 1215.59 198.71 1228.08 170.52C1240.52 142.44 1227.93 109.62 1199.97 97.0199H1199.98Z" fill="#7EBE34"/>
<path opacity="0.8" d="M1344.44 125.39V125.41C1300.14 105.78 1247.61 126.19 1227.98 170.48C1215.49 198.67 1182.51 211.4 1154.32 198.91C1126.13 186.42 1113.4 153.44 1125.89 125.25C1138.3 97.2503 1170.92 84.5303 1198.99 96.6103V96.5803C1243.29 116.21 1296.05 95.9003 1315.68 51.6103C1328.17 23.4203 1361.15 10.6903 1389.34 23.1803C1417.53 35.6703 1430.26 68.6503 1417.77 96.8403C1405.33 124.92 1372.56 137.64 1344.44 125.39Z" fill="url(#paint0_linear_105_821)"/>
<path opacity="0.6" d="M1235.57 74.3599C1266.2 74.3599 1291.03 49.5297 1291.03 18.8999C1291.03 -11.7298 1266.2 -36.5601 1235.57 -36.5601C1204.94 -36.5601 1180.11 -11.7298 1180.11 18.8999C1180.11 49.5297 1204.94 74.3599 1235.57 74.3599Z" fill="#1DA1DC"/>
</g>
</g>
<g opacity="0.8">
<path opacity="0.8" d="M127.97 282.913H127.99C159.49 231.753 227.52 215.723 278.69 247.223C311.26 267.273 353.91 257.123 373.96 224.553C394.01 191.983 383.86 149.333 351.29 129.283C318.94 109.363 276.66 119.273 256.45 151.333L256.42 151.313C224.92 202.483 156.73 218.773 105.55 187.273C72.9803 167.223 30.3303 177.373 10.2803 209.943C-9.76973 242.513 0.380268 285.163 32.9503 305.213C65.3903 325.183 107.82 315.173 127.97 282.903V282.913Z" fill="#7EBE34"/>
<path opacity="0.8" d="M69.0503 455.743H69.0303C100.53 404.563 84.2003 336.603 33.0303 305.103C0.460342 285.053 -9.68965 242.403 10.3603 209.833C30.4103 177.263 73.0603 167.113 105.63 187.163C137.98 207.083 148.18 249.293 128.66 281.773H128.69C97.1904 332.963 113.36 401.183 164.53 432.683C197.1 452.733 207.25 495.383 187.2 527.953C167.15 560.523 124.5 570.673 91.9303 550.623C59.4903 530.653 49.3103 488.263 69.0503 455.743Z" fill="url(#paint1_linear_105_821)"/>
<path opacity="0.6" d="M218.06 408.473C256.052 408.473 286.85 377.674 286.85 339.683C286.85 301.691 256.052 270.893 218.06 270.893C180.069 270.893 149.27 301.691 149.27 339.683C149.27 377.674 180.069 408.473 218.06 408.473Z" fill="#1DA1DC"/>
</g>
</g>
<defs>
<linearGradient id="paint0_linear_105_821" x1="1154.75" y1="59.2264" x2="1388.19" y2="162.675" gradientUnits="userSpaceOnUse">
<stop stop-color="#7EBE34"/>
<stop offset="0.09" stop-color="#6DB950"/>
<stop offset="0.23" stop-color="#55B17A"/>
<stop offset="0.38" stop-color="#40AB9D"/>
<stop offset="0.53" stop-color="#31A7B9"/>
<stop offset="0.69" stop-color="#25A3CC"/>
<stop offset="1" stop-color="#1FA1D8"/>
</linearGradient>
<linearGradient id="paint1_linear_105_821" x1="182.13" y1="233.114" x2="16.0896" y2="502.798" gradientUnits="userSpaceOnUse">
<stop stop-color="#7EBE34"/>
<stop offset="0.09" stop-color="#6DB950"/>
<stop offset="0.23" stop-color="#55B17A"/>
<stop offset="0.38" stop-color="#40AB9D"/>
<stop offset="0.53" stop-color="#31A7B9"/>
<stop offset="0.69" stop-color="#25A3CC"/>
<stop offset="1" stop-color="#1FA1D8"/>
</linearGradient>
<clipPath id="clip0_105_821">
<rect width="1422.77" height="679.51" fill="white"/>
</clipPath>
</defs>
</svg>
