<svg width="1280" height="250" viewBox="0 0 1280 250" fill="none" xmlns="http://www.w3.org/2000/svg">
<mask id="mask0_22_1255" style="mask-type:luminance" maskUnits="userSpaceOnUse" x="0" y="0" width="1280" height="250">
<path d="M1280 0H0V250H1280V0Z" fill="white"/>
</mask>
<g mask="url(#mask0_22_1255)">
<path opacity="0.3" d="M1202.54 285.578H1202.59C1233.99 125.765 1394.12 19.9902 1557.14 50.7745C1660.89 70.3627 1761.19 3.79413 1781.18 -97.9216C1801.16 -199.637 1733.26 -297.971 1629.51 -317.569C1526.45 -337.029 1426.87 -271.422 1405.97 -170.843L1405.88 -170.873C1374.48 -11.049 1214.18 95.549 1051.16 64.7647C947.41 45.1765 847.11 111.745 827.12 213.461C807.14 315.176 875.04 413.51 978.79 433.108C1082.13 452.618 1182.01 386.618 1202.54 285.569V285.578Z" fill="#7EBE34"/>
<path opacity="0.3" d="M831.58 359.226H831.52C842.37 196.814 714.73 54.7745 549.07 44.1373C443.64 37.3628 363.77 -51.9117 370.68 -155.274C377.59 -258.637 468.65 -336.941 574.08 -330.167C678.81 -323.441 758.23 -235.274 752.5 -132.784H752.59C741.74 29.6177 869.33 172.5 1034.99 183.137C1140.42 189.912 1220.29 279.186 1213.39 382.549C1206.48 485.912 1115.42 564.216 1009.99 557.441C904.97 550.696 825.37 462.078 831.58 359.226Z" fill="url(#paint0_linear_22_1255)"/>
<path opacity="0.2" d="M1181.2 538.726C1286.16 538.726 1371.25 455.306 1371.25 352.402C1371.25 249.498 1286.16 166.078 1181.2 166.078C1076.24 166.078 991.15 249.498 991.15 352.402C991.15 455.306 1076.24 538.726 1181.2 538.726Z" fill="#1DA1DC"/>
</g>
<defs>
<linearGradient id="paint0_linear_22_1255" x1="820.481" y1="-314.27" x2="765.469" y2="541.83" gradientUnits="userSpaceOnUse">
<stop stop-color="#7EBE34"/>
<stop offset="0.09" stop-color="#6DB950"/>
<stop offset="0.23" stop-color="#55B17A"/>
<stop offset="0.38" stop-color="#40AB9D"/>
<stop offset="0.53" stop-color="#31A7B9"/>
<stop offset="0.69" stop-color="#25A3CC"/>
<stop offset="0.84" stop-color="#1FA1D8"/>
<stop offset="1"/>
</linearGradient>
</defs>
</svg>
