<svg width="17" height="18" viewBox="0 0 17 18" fill="none" xmlns="http://www.w3.org/2000/svg">
<path d="M7.66663 11.5H9.33329V13.1667H7.66663V11.5ZM7.66663 4.83333H9.33329V9.83333H7.66663V4.83333ZM8.49163 0.666668C3.89163 0.666668 0.166626 4.4 0.166626 9C0.166626 13.6 3.89163 17.3333 8.49163 17.3333C13.1 17.3333 16.8333 13.6 16.8333 9C16.8333 4.4 13.1 0.666668 8.49163 0.666668ZM8.49996 15.6667C4.81663 15.6667 1.83329 12.6833 1.83329 9C1.83329 5.31667 4.81663 2.33333 8.49996 2.33333C12.1833 2.33333 15.1666 5.31667 15.1666 9C15.1666 12.6833 12.1833 15.6667 8.49996 15.6667Z" fill="#999999"/>
</svg>
