<?xml version="1.0" encoding="UTF-8"?>
<svg id="Layer_2" data-name="Layer 2" xmlns="http://www.w3.org/2000/svg" viewBox="0 0 46.8 58">
  <defs>
    <style>
      .cls-1 {
        fill: none;
        stroke: #231f20;
        stroke-linecap: round;
        stroke-linejoin: round;
        stroke-width: 2px;
      }

      .cls-2 {
        fill: #7ebf42;
        stroke-width: 0px;
      }
    </style>
  </defs>
  <g id="Layer_1-2" data-name="Layer 1">
    <g>
      <circle class="cls-2" cx="17.71" cy="15.47" r="14.67"/>
      <path class="cls-1" d="m4.95,6.18l3.52,4.27c.5.61,1.38.61,1.89,0l5.86-7.11"/>
      <path class="cls-1" d="m9.08,1H2.26c-.69,0-1.26.55-1.26,1.24v11.99c0,.68.57,1.24,1.26,1.24h12.23c.7,0,1.26-.55,1.26-1.24v-3.92"/>
      <line class="cls-1" x1="21.79" y1="6.47" x2="45.8" y2="6.47"/>
      <line class="cls-1" x1="21.79" y1="12.01" x2="37.56" y2="12.01"/>
      <path class="cls-1" d="m14.49,21.77H2.26c-.69,0-1.26.55-1.26,1.24v11.99c0,.68.57,1.24,1.26,1.24h12.23c.52,0,.97-.31,1.16-.76.06-.15.1-.31.1-.48v-11.99c0-.68-.57-1.24-1.26-1.24Z"/>
      <line class="cls-1" x1="21.79" y1="27.23" x2="45.8" y2="27.23"/>
      <line class="cls-1" x1="21.79" y1="32.77" x2="37.56" y2="32.77"/>
      <path class="cls-1" d="m14.49,42.53H2.26c-.7,0-1.26.55-1.26,1.24v11.99c0,.68.57,1.24,1.26,1.24h12.23c.7,0,1.26-.55,1.26-1.24v-11.99c0-.68-.57-1.24-1.26-1.24Z"/>
      <line class="cls-1" x1="21.79" y1="48" x2="45.8" y2="48"/>
      <line class="cls-1" x1="21.79" y1="53.54" x2="37.56" y2="53.54"/>
    </g>
  </g>
</svg>