<?xml version="1.0" encoding="UTF-8"?>
<svg id="Layer_2" data-name="Layer 2" xmlns="http://www.w3.org/2000/svg" viewBox="0 0 59.17 58.71">
  <defs>
    <style>
      .cls-1 {
        fill: none;
        stroke: #231f20;
        stroke-linecap: round;
        stroke-linejoin: round;
        stroke-width: 2px;
      }

      .cls-2 {
        fill: #231f20;
      }

      .cls-2, .cls-3 {
        stroke-width: 0px;
      }

      .cls-3 {
        fill: #7ebf42;
      }
    </style>
  </defs>
  <g id="Layer_1-2" data-name="Layer 1">
    <g>
      <circle class="cls-3" cx="14.67" cy="14.67" r="14.67"/>
      <g>
        <path class="cls-2" d="m31.17,38.31c1.25,0,2.43.49,3.31,1.38.89.9,1.38,2.09,1.38,3.36s-.49,2.46-1.38,3.36c-.02.02-.04.05-.07.07-.07.07-.15.14-.22.2-.52.44-.78,1.11-.69,1.78.09.67.51,1.25,1.12,1.55.84.4,1.61.94,2.27,1.61,1.36,1.38,2.18,3.15,2.35,5.07h-16.12c.16-1.92.98-3.7,2.34-5.07.66-.67,1.42-1.21,2.26-1.61.61-.29,1.03-.88,1.12-1.55.09-.67-.17-1.34-.69-1.78-.1-.09-.2-.18-.29-.27-.89-.9-1.38-2.09-1.38-3.36s.49-2.47,1.38-3.36c.89-.89,2.06-1.39,3.31-1.39m0-2c-1.85,0-3.52.76-4.73,1.98-1.21,1.22-1.96,2.91-1.96,4.77s.75,3.55,1.96,4.77c.13.14.27.26.42.39-1.05.5-2.01,1.18-2.82,2.01-1.83,1.84-2.96,4.39-2.96,7.2,0,.71.57,1.28,1.27,1.28h17.64c.7,0,1.27-.57,1.27-1.28,0-2.81-1.13-5.35-2.96-7.2-.81-.82-1.77-1.5-2.82-2.01.14-.12.28-.25.42-.39h0c1.21-1.23,1.96-2.91,1.96-4.77s-.75-3.55-1.96-4.77c-1.21-1.22-2.88-1.98-4.73-1.98h0Z"/>
        <path class="cls-2" d="m51.54,4.71c.85,0,1.64.33,2.24.94.6.61.94,1.42.94,2.29s-.32,1.64-.9,2.25c-.43.45-.63,1.07-.54,1.68s.46,1.15,1,1.45c.44.25.85.56,1.22.92l.04.04s.02.03.04.04c.87.9,1.41,2.04,1.56,3.26h-11.17c.15-1.24.7-2.39,1.59-3.3l.07-.07c.36-.35.76-.65,1.19-.9.54-.3.91-.84.99-1.45s-.11-1.23-.54-1.68c-.58-.61-.91-1.4-.91-2.25s.32-1.66.91-2.26l.07-.07c.59-.58,1.37-.89,2.19-.89m0-2c-1.39,0-2.65.56-3.58,1.46l-.08.07c-.94.95-1.52,2.25-1.52,3.69s.56,2.69,1.46,3.64c-.59.33-1.13.74-1.61,1.21l-.07.07c-1.38,1.39-2.23,3.32-2.23,5.44,0,.71.57,1.28,1.27,1.28h12.72c.7,0,1.27-.57,1.27-1.28,0-2.09-.83-3.98-2.17-5.37l-.07-.07c-.5-.5-1.06-.93-1.68-1.28.9-.94,1.46-2.22,1.46-3.63s-.58-2.75-1.52-3.69c-.94-.95-2.23-1.53-3.66-1.53h0Z"/>
        <path class="cls-2" d="m31.17,4.71c.85,0,1.64.33,2.24.94.6.61.94,1.42.94,2.29s-.32,1.64-.9,2.25c-.43.45-.63,1.07-.54,1.68.09.61.46,1.15,1,1.45.44.25.85.56,1.22.92l.04.04s.02.03.04.04c.87.9,1.41,2.04,1.56,3.26h-11.17c.15-1.24.7-2.39,1.59-3.3l.08-.07c.35-.35.75-.65,1.19-.9.54-.3.91-.84.99-1.45.09-.61-.11-1.23-.54-1.68-.58-.61-.9-1.4-.9-2.25s.32-1.66.91-2.26l.07-.07c.6-.58,1.37-.89,2.19-.89m0-2c-1.39,0-2.65.56-3.58,1.46l-.08.07c-.94.95-1.52,2.25-1.52,3.69s.56,2.69,1.46,3.64c-.59.33-1.13.74-1.61,1.21l-.07.07c-1.38,1.39-2.23,3.32-2.23,5.44,0,.71.57,1.28,1.27,1.28h12.72c.7,0,1.27-.57,1.27-1.28,0-2.09-.83-3.98-2.17-5.37l-.07-.07c-.5-.5-1.06-.93-1.68-1.28.9-.94,1.46-2.22,1.46-3.63s-.58-2.75-1.52-3.69c-.94-.95-2.23-1.53-3.66-1.53h0Z"/>
        <path class="cls-2" d="m10.8,4.71c.85,0,1.64.33,2.24.94.6.61.94,1.42.94,2.29s-.32,1.64-.9,2.25c-.43.45-.63,1.07-.54,1.68.09.61.46,1.15,1,1.45.45.25.86.56,1.22.93l.07.08c.87.9,1.41,2.04,1.56,3.26H5.21c.15-1.24.7-2.39,1.59-3.3l.08-.07c.36-.35.75-.65,1.19-.9.54-.3.91-.84.99-1.45.09-.61-.11-1.23-.54-1.68-.58-.61-.91-1.4-.91-2.25s.32-1.65.91-2.26l.07-.07c.59-.58,1.37-.89,2.19-.89m0-2c-1.39,0-2.65.56-3.58,1.46l-.08.07c-.94.95-1.52,2.25-1.52,3.69s.56,2.69,1.46,3.64c-.59.33-1.13.74-1.61,1.21l-.07.07c-1.38,1.39-2.23,3.32-2.23,5.44,0,.71.57,1.28,1.27,1.28h12.72c.7,0,1.27-.57,1.27-1.28,0-2.09-.83-3.98-2.17-5.37l-.07-.07c-.5-.5-1.06-.93-1.68-1.28.9-.94,1.46-2.22,1.46-3.63s-.58-2.75-1.52-3.69c-.94-.95-2.23-1.53-3.66-1.53h0Z"/>
        <line class="cls-1" x1="22.19" y1="28.9" x2="40.5" y2="28.9"/>
        <line class="cls-1" x1="10.99" y1="22.12" x2="22.19" y2="28.9"/>
        <line class="cls-1" x1="52.06" y1="22.12" x2="40.86" y2="28.9"/>
        <line class="cls-1" x1="31.53" y1="21.56" x2="31.53" y2="33.88"/>
      </g>
    </g>
  </g>
</svg>