<svg width="18" height="18" viewBox="0 0 18 18" fill="none" xmlns="http://www.w3.org/2000/svg">
<path d="M8.16667 11.5H9.83334V13.1666H8.16667V11.5ZM8.16667 4.83329H9.83334V9.83329H8.16667V4.83329ZM8.99167 0.666626C4.39167 0.666626 0.666672 4.39996 0.666672 8.99996C0.666672 13.6 4.39167 17.3333 8.99167 17.3333C13.6 17.3333 17.3333 13.6 17.3333 8.99996C17.3333 4.39996 13.6 0.666626 8.99167 0.666626ZM9 15.6666C5.31667 15.6666 2.33334 12.6833 2.33334 8.99996C2.33334 5.31663 5.31667 2.33329 9 2.33329C12.6833 2.33329 15.6667 5.31663 15.6667 8.99996C15.6667 12.6833 12.6833 15.6666 9 15.6666Z" fill="#ff6600"/>
</svg>
