<svg width="23" height="23" viewBox="0 0 23 23" fill="none" xmlns="http://www.w3.org/2000/svg">
<g clip-path="url(#clip0_68_191)">
<path d="M18.3075 2.7876V0.644C18.3075 0.2852 18.0223 0 17.6635 0C17.3047 0 17.0195 0.2852 17.0195 0.644V2.7876C17.0195 3.1464 17.3047 3.4316 17.6635 3.4316C18.0223 3.4316 18.3075 3.1464 18.3075 2.7876Z" fill="#ffffff"/>
<path d="M2.85245 2.7876V0.644C2.85245 0.2852 2.56725 0 2.20845 0C1.84965 0 1.56445 0.2852 1.56445 0.644V2.7876C1.56445 3.1464 1.84965 3.4316 2.20845 3.4316C2.56725 3.4316 2.85245 3.1464 2.85245 2.7876Z" fill="#ffffff"/>
<path d="M8.00382 2.7876V0.644C8.00382 0.2852 7.71862 0 7.35982 0C7.00102 0 6.71582 0.2852 6.71582 0.644V2.7876C6.71582 3.1464 7.00102 3.4316 7.35982 3.4316C7.71862 3.4316 8.00382 3.1464 8.00382 2.7876Z" fill="#ffffff"/>
<path d="M13.1562 2.7876V0.644C13.1562 0.2852 12.871 0 12.5122 0C12.1534 0 11.8682 0.2852 11.8682 0.644V2.7876C11.8682 3.1464 12.1534 3.4316 12.5122 3.4316C12.871 3.4316 13.1562 3.1464 13.1562 2.7876Z" fill="#ffffff"/>
<path d="M18.9796 1.7204V2.7968C18.9796 3.5236 18.3908 4.1124 17.664 4.1124C16.9372 4.1124 16.3484 3.5236 16.3484 2.7968V1.7204H13.8276V2.7968C13.8276 3.5236 13.2388 4.1124 12.512 4.1124C11.7852 4.1124 11.1964 3.5236 11.1964 2.7968V1.7204H8.6756V2.7968C8.6756 3.5236 8.0868 4.1124 7.36 4.1124C6.6332 4.1124 6.0444 3.5236 6.0444 2.7968V1.7204H3.5236V2.7968C3.5236 3.5236 2.9348 4.1124 2.208 4.1124C1.4812 4.1124 0.8924 3.5236 0.8924 2.7968V1.7204H0V19.7432H12.6316C12.4292 19.1452 12.3188 18.5012 12.3188 17.8388C12.3188 16.7256 12.6224 15.686 13.1468 14.7936V11.592H17.0108V11.9784C17.434 11.8864 17.8756 11.8312 18.3264 11.8312C18.814 11.8312 19.2832 11.8864 19.734 11.9968V1.7204H18.9704H18.9796ZM6.7252 15.456H2.852V11.592H6.716V15.456H6.7252ZM6.7252 10.304H2.852V6.44H6.716V10.304H6.7252ZM11.8772 15.456H8.0132V11.592H11.8772V15.456ZM11.8772 10.304H8.0132V6.44H11.8772V10.304ZM17.0292 10.304H13.1652V6.44H17.0292V10.304Z" fill="#ffffff"/>
<path d="M18.3353 13.1652C15.7593 13.1652 13.6709 15.2536 13.6709 17.8296C13.6709 20.4056 15.7593 22.494 18.3353 22.494C20.9113 22.494 22.9997 20.4056 22.9997 17.8296C22.9997 15.2536 20.9113 13.1652 18.3353 13.1652ZM18.6389 21.5004V20.9852C18.6389 20.8196 18.5009 20.6816 18.3353 20.6816C18.1697 20.6816 18.0317 20.8196 18.0317 20.9852V21.5004C16.2377 21.3532 14.8117 19.9272 14.6645 18.1332H15.1797C15.3453 18.1332 15.4833 17.9952 15.4833 17.8296C15.4833 17.664 15.3453 17.526 15.1797 17.526H14.6645C14.8117 15.732 16.2377 14.306 18.0317 14.1588V14.674C18.0317 14.8396 18.1697 14.9776 18.3353 14.9776C18.5009 14.9776 18.6389 14.8396 18.6389 14.674V14.1588C20.4329 14.306 21.8589 15.732 22.0061 17.526H21.4909C21.3253 17.526 21.1873 17.664 21.1873 17.8296C21.1873 17.9952 21.3253 18.1332 21.4909 18.1332H22.0061C21.8589 19.9272 20.4329 21.3532 18.6389 21.5004Z" fill="#ffffff"/>
<path d="M18.0964 18.3356C18.3724 18.5656 18.7772 18.492 18.9612 18.1884L20.6264 15.6308L18.0872 17.4616C17.8204 17.6916 17.8296 18.1056 18.0964 18.3356Z" fill="#ffffff"/>
</g>
<defs>
<clipPath id="clip0_68_191">
<rect width="23" height="22.5032" fill="white"/>
</clipPath>
</defs>
</svg>
