<svg width="16" height="14" viewBox="0 0 16 14" fill="none" xmlns="http://www.w3.org/2000/svg">
<path d="M1 10H15C15.55 10 16 9.55 16 9C16 8.45 15.55 8 15 8H1C0.45 8 0 8.45 0 9C0 9.55 0.45 10 1 10ZM1 14H15C15.55 14 16 13.55 16 13C16 12.45 15.55 12 15 12H1C0.45 12 0 12.45 0 13C0 13.55 0.45 14 1 14ZM1 6H15C15.55 6 16 5.55 16 5C16 4.45 15.55 4 15 4H1C0.45 4 0 4.45 0 5C0 5.55 0.45 6 1 6ZM0 1C0 1.55 0.45 2 1 2H15C15.55 2 16 1.55 16 1C16 0.45 15.55 0 15 0H1C0.45 0 0 0.45 0 1Z" fill="black" fill-opacity="0.54"/>
</svg>
