<?xml version="1.0" encoding="UTF-8"?>
<svg id="Layer_2" data-name="Layer 2" xmlns="http://www.w3.org/2000/svg" viewBox="0 0 57 57">
  <defs>
    <style>
      .cls-1 {
        fill-rule: evenodd;
      }

      .cls-1, .cls-2 {
        fill: none;
        stroke: #231f20;
        stroke-linecap: round;
        stroke-linejoin: round;
        stroke-width: 2px;
      }

      .cls-3 {
        fill: #231f20;
      }

      .cls-3, .cls-4 {
        stroke-width: 0px;
      }

      .cls-4 {
        fill: #7ebf42;
      }
    </style>
  </defs>
  <g id="Layer_1-2" data-name="Layer 1">
    <circle class="cls-4" cx="38.47" cy="33.51" r="14.67"/>
    <path class="cls-1" d="m27.74,32.84h-15.83c-1.03,0-1.87-.86-1.87-1.92,0-3.17,1.26-6.05,3.29-8.13l.11-.1c.7-.7,1.5-1.31,2.36-1.81-1.33-1.41-2.16-3.32-2.16-5.43s.85-4.11,2.23-5.52l.11-.11c1.37-1.35,3.23-2.18,5.27-2.18h0c2.1,0,4.01.87,5.39,2.29,1.38,1.41,2.23,3.36,2.23,5.52s-.82,4.02-2.15,5.42c.91.52,1.74,1.17,2.47,1.91l.1.11"/>
    <path class="cls-3" d="m41.35,23.91c2.29,0,4.45.92,6.08,2.58,1.64,1.68,2.54,3.91,2.54,6.29s-.87,4.52-2.45,6.18c-.42.45-.62,1.06-.53,1.67.09.61.45,1.14.99,1.44,1.09.62,2.09,1.4,2.98,2.3l.11.12s.02.03.04.04c2.51,2.63,3.89,6.11,3.89,9.79,0,.37-.27.67-.61.67h-26.07c-.33,0-.61-.3-.61-.67,0-3.74,1.42-7.26,3.99-9.9l.15-.15c.86-.86,1.83-1.6,2.87-2.2.53-.31.89-.84.98-1.44s-.11-1.22-.53-1.67c-1.58-1.67-2.45-3.87-2.45-6.19s.89-4.59,2.52-6.26l.16-.15c1.61-1.59,3.72-2.46,5.94-2.46m0-2c-2.85,0-5.44,1.16-7.35,3.03l-.16.15c-1.92,1.97-3.11,4.69-3.11,7.69s1.15,5.61,3,7.57c-1.2.69-2.31,1.54-3.29,2.52l-.15.14c-2.83,2.9-4.58,6.9-4.58,11.33,0,1.47,1.17,2.67,2.61,2.67h26.07c1.44,0,2.61-1.2,2.61-2.67,0-4.34-1.69-8.29-4.44-11.17l-.14-.15c-1.02-1.04-2.18-1.94-3.44-2.67,1.85-1.96,2.99-4.62,2.99-7.56s-1.19-5.72-3.11-7.69c-1.92-1.97-4.58-3.18-7.51-3.18h0Z"/>
    <path class="cls-2" d="m54.39,20.99V3.03c0-1.12-.83-2.03-1.84-2.03H2.84c-1.01,0-1.84.91-1.84,2.03v34.54c0,1.12.83,2.03,1.84,2.03h25.9"/>
    <g>
      <line class="cls-2" x1="13.56" y1="47.85" x2="22.05" y2="47.85"/>
      <line class="cls-2" x1="22.05" y1="40.64" x2="22.05" y2="47.85"/>
    </g>
  </g>
</svg>