<svg width="21" height="20" viewBox="0 0 21 20" fill="none" xmlns="http://www.w3.org/2000/svg">
<path d="M4.31482 0H1.94462C0.870634 0 0 0.871088 0 1.94563V4.31707C0 5.39161 0.870634 6.2627 1.94462 6.2627H4.31482C5.3888 6.2627 6.25944 5.39161 6.25944 4.31707V1.94563C6.25944 0.871088 5.3888 0 4.31482 0Z" fill="#7EBE34"/>
<path d="M14.8236 0H15.8451C18.2349 0 20.173 1.93908 20.173 4.33017V5.35212C20.173 5.85654 19.7605 6.26925 19.2563 6.26925H14.8236C14.3195 6.26925 13.907 5.85654 13.907 5.35212V0.917131C13.9135 0.412709 14.3195 0 14.8236 0Z" fill="#7EBE34"/>
<path d="M20.1665 14.7658C20.1337 14.1893 19.6623 13.7307 19.0796 13.7307H17.6064C15.5636 13.7307 13.9136 15.3881 13.9136 17.4255V18.8994C13.9136 19.4825 14.3719 19.9541 14.9481 19.9869C14.9677 19.9869 14.9874 19.9869 15.007 19.9869C17.8617 19.9869 20.1796 17.6679 20.1796 14.8116C20.1796 14.792 20.1796 14.7723 20.1796 14.7527L20.1665 14.7658Z" fill="#7EBE34"/>
<path d="M2.56663 13.7307H1.09344C0.510707 13.7307 0.0392852 14.1893 0.00654753 14.7658C0 14.7854 0 14.8051 0 14.8248V18.906C0 19.5087 0.491065 20 1.09344 20H5.17255C5.17255 20 5.21183 20 5.23147 20C5.80766 19.9672 6.26598 19.4956 6.26598 18.9125V17.4386C6.26598 15.3947 4.60946 13.7438 2.57318 13.7438L2.56663 13.7307Z" fill="#7EBE34"/>
<path d="M10.2534 14.2679C7.76537 14.2679 5.72909 12.2175 5.72909 9.72815C5.72909 8.14282 4.44577 6.86539 2.86782 6.86539C1.28986 6.86539 0 8.14937 0 9.72815C0 11.3069 1.26367 12.5778 2.83508 12.5909C5.32314 12.5909 7.37252 14.6414 7.37252 17.1307C7.37252 18.716 8.65583 19.9935 10.2338 19.9935C11.8117 19.9935 13.0951 18.7095 13.0951 17.1307C13.0951 15.5519 11.8248 14.2745 10.2469 14.2679H10.2534Z" fill="#7EBE34"/>
<path d="M17.6128 12.5974C15.1248 12.5974 13.0885 14.6479 13.0885 17.1372C13.0885 18.7226 11.8052 20 10.2272 20C8.64928 20 7.36597 18.716 7.36597 17.1372C7.36597 15.5585 8.62964 14.2876 10.201 14.2745C12.6891 14.2745 14.7385 12.224 14.7385 9.73468C14.7385 8.14935 16.0218 6.87192 17.5998 6.87192C19.1777 6.87192 20.461 8.1559 20.461 9.73468C20.461 11.3135 19.1908 12.5909 17.6128 12.5974Z" fill="url(#paint0_linear_1838_3505)"/>
<path d="M10.0898 12.5385C11.6592 12.5385 12.9314 11.2656 12.9314 9.69537C12.9314 8.12517 11.6592 6.85226 10.0898 6.85226C8.52041 6.85226 7.24817 8.12517 7.24817 9.69537C7.24817 11.2656 8.52041 12.5385 10.0898 12.5385Z" fill="#1DA1DC"/>
<path d="M12.8266 6.00721C13.0623 5.80413 13.2195 5.50934 13.2195 5.17524V1.09401C13.2195 0.49132 12.7284 0 12.126 0H8.04693C7.44456 0 6.95349 0.49132 6.95349 1.09401V5.17524C6.95349 5.5552 7.14992 5.88929 7.44456 6.08582C8.21062 5.50934 9.15346 5.16214 10.188 5.16214C11.2225 5.16214 12.0802 5.47658 12.8266 6.00721Z" fill="#7EBE34"/>
<defs>
<linearGradient id="paint0_linear_1838_3505" x1="7.36597" y1="13.4294" x2="20.461" y2="13.4294" gradientUnits="userSpaceOnUse">
<stop stop-color="#7EBE34"/>
<stop offset="0.09" stop-color="#6DB950"/>
<stop offset="0.23" stop-color="#55B17A"/>
<stop offset="0.38" stop-color="#40AB9D"/>
<stop offset="0.53" stop-color="#31A7B9"/>
<stop offset="0.69" stop-color="#25A3CC"/>
<stop offset="1" stop-color="#1FA1D8"/>
</linearGradient>
</defs>
</svg>
