<?xml version="1.0" encoding="UTF-8"?>
<svg id="Layer_2" data-name="Layer 2" xmlns="http://www.w3.org/2000/svg" viewBox="0 0 57.87 58">
  <defs>
    <style>
      .cls-1 {
        fill: none;
        stroke: #231f20;
        stroke-linecap: round;
        stroke-linejoin: round;
        stroke-width: 2px;
      }

      .cls-2 {
        fill: #231f20;
      }

      .cls-2, .cls-3 {
        stroke-width: 0px;
      }

      .cls-3 {
        fill: #7ebf42;
      }
    </style>
  </defs>
  <g id="Layer_1-2" data-name="Layer 1">
    <g>
      <circle class="cls-3" cx="14.67" cy="37.38" r="14.67"/>
      <g>
        <path class="cls-2" d="m6.16,31.51c1.25,0,2.3,1.34,2.3,2.92v6.57c0,1.58-1.05,2.92-2.3,2.92s-2.3-1.34-2.3-2.92v-6.57c0-1.58,1.05-2.92,2.3-2.92m0-2c-2.37,0-4.3,2.21-4.3,4.92v6.57c0,2.72,1.93,4.92,4.3,4.92s4.3-2.21,4.3-4.92v-6.57c0-2.72-1.93-4.92-4.3-4.92h0Z"/>
        <path class="cls-2" d="m53.57,31.51c1.25,0,2.3,1.34,2.3,2.92v6.57c0,1.58-1.05,2.92-2.3,2.92s-2.3-1.34-2.3-2.92v-6.57c0-1.58,1.05-2.92,2.3-2.92m0-2c-2.37,0-4.3,2.21-4.3,4.92v6.57c0,2.72,1.93,4.92,4.3,4.92s4.3-2.21,4.3-4.92v-6.57c0-2.72-1.93-4.92-4.3-4.92h0Z"/>
        <path class="cls-1" d="m53.57,29.51c0-.88-.02-1.73-.05-2.56-1.25-34.6-46.06-34.6-47.31,0-.03.83-.05,1.69-.05,2.56"/>
        <path class="cls-1" d="m53.57,45.16v5.81c0,3.33-2.36,6.03-5.26,6.03h-19.35"/>
      </g>
    </g>
  </g>
</svg>