<svg width="16" height="19" viewBox="0 0 16 19" fill="none" xmlns="http://www.w3.org/2000/svg">
<path d="M10.5583 0.84166H5.55833V2.50833H10.5583V0.84166ZM7.225 11.675H8.89167V6.67499H7.225V11.675ZM13.9167 6.15833L15.1 4.97499C14.7417 4.54999 14.35 4.14999 13.925 3.79999L12.7417 4.98333C11.45 3.94999 9.825 3.33333 8.05833 3.33333C3.91667 3.33333 0.558334 6.69166 0.558334 10.8333C0.558334 14.975 3.90833 18.3333 8.05833 18.3333C12.2083 18.3333 15.5583 14.975 15.5583 10.8333C15.5583 9.07499 14.9417 7.44999 13.9167 6.15833ZM8.05833 16.675C4.83333 16.675 2.225 14.0667 2.225 10.8417C2.225 7.61666 4.83333 5.00833 8.05833 5.00833C11.2833 5.00833 13.8917 7.61666 13.8917 10.8417C13.8917 14.0667 11.2833 16.675 8.05833 16.675Z" fill="black"/>
</svg>
