<svg width="17" height="12" viewBox="0 0 17 12" fill="none" xmlns="http://www.w3.org/2000/svg">
<path d="M13.4874 3.2625L11.3949 5.355C11.1549 5.595 11.3199 6 11.6574 6H12.9999C12.9999 8.4825 10.9824 10.5 8.4999 10.5C7.9074 10.5 7.3299 10.3875 6.8124 10.17C6.5424 10.0575 6.2349 10.14 6.0324 10.3425C5.6499 10.725 5.7849 11.37 6.2874 11.5725C6.9699 11.85 7.7199 12 8.4999 12C11.8149 12 14.4999 9.315 14.4999 6H15.8424C16.1799 6 16.3449 5.595 16.1049 5.3625L14.0124 3.27C13.8699 3.12 13.6299 3.12 13.4874 3.2625ZM3.9999 6C3.9999 3.5175 6.0174 1.5 8.4999 1.5C9.0924 1.5 9.6699 1.6125 10.1874 1.83C10.4574 1.9425 10.7649 1.86 10.9674 1.6575C11.3499 1.275 11.2149 0.63 10.7124 0.4275C10.0299 0.15 9.2799 0 8.4999 0C5.1849 0 2.4999 2.685 2.4999 6H1.1574C0.819901 6 0.654901 6.405 0.894901 6.6375L2.9874 8.73C3.1374 8.88 3.3699 8.88 3.5199 8.73L5.6124 6.6375C5.8449 6.405 5.6799 6 5.3424 6H3.9999Z" fill="black" fill-opacity="0.54"/>
</svg>
