<svg width="14" height="14" viewBox="0 0 14 14" fill="none" xmlns="http://www.w3.org/2000/svg">
<path d="M9.625 8.50001H9.0325L8.8225 8.29751C9.7225 7.24751 10.1875 5.81501 9.9325 4.29251C9.58 2.20751 7.84 0.542511 5.74 0.287511C2.5675 -0.102489 -0.102504 2.56751 0.287496 5.74001C0.542496 7.84001 2.2075 9.58001 4.2925 9.93251C5.815 10.1875 7.2475 9.72251 8.2975 8.82251L8.5 9.03251V9.62501L11.6875 12.8125C11.995 13.12 12.4975 13.12 12.805 12.8125C13.1125 12.505 13.1125 12.0025 12.805 11.695L9.625 8.50001ZM5.125 8.50001C3.2575 8.50001 1.75 6.99251 1.75 5.12501C1.75 3.25751 3.2575 1.75001 5.125 1.75001C6.9925 1.75001 8.5 3.25751 8.5 5.12501C8.5 6.99251 6.9925 8.50001 5.125 8.50001Z" fill="black" fill-opacity="0.54"/>
</svg>
