<?xml version="1.0" encoding="UTF-8"?>
<svg id="Layer_2" data-name="Layer 2" xmlns="http://www.w3.org/2000/svg" viewBox="0 0 58 47.79">
  <defs>
    <style>
      .cls-1 {
        fill-rule: evenodd;
      }

      .cls-1, .cls-2 {
        fill: none;
        stroke: #231f20;
        stroke-linecap: round;
        stroke-linejoin: round;
        stroke-width: 2px;
      }

      .cls-3 {
        fill: #7ebf42;
        stroke-width: 0px;
      }
    </style>
  </defs>
  <g id="Layer_1-2" data-name="Layer 1">
    <g>
      <circle class="cls-3" cx="34.11" cy="28.96" r="14.67"/>
      <path class="cls-1" d="m12.7,44.46H3.59c-1.43,0-2.59-1.19-2.59-2.65,0-4.39,1.74-8.37,4.55-11.25l.15-.14c.98-.97,2.07-1.82,3.27-2.5-1.85-1.95-2.98-4.6-2.98-7.52s1.18-5.68,3.09-7.64l.16-.15c1.9-1.87,4.47-3.01,7.3-3.01h0c2.91,0,5.55,1.21,7.46,3.16,1.91,1.95,3.09,4.66,3.09,7.64s-.85,4.91-2.69,6.85"/>
      <path class="cls-2" d="m29.14,13.18l8.15,10.03c1.16,1.44,3.21,1.44,4.38,0l13.57-16.72"/>
      <path class="cls-2" d="m34.88,35.02h19.19c1.61,0,2.92-1.31,2.92-2.91v-9.22"/>
      <path class="cls-2" d="m42.48,1h-15.8c-1.61,0-2.92,1.31-2.92,2.91v2.85"/>
      <path class="cls-2" d="m31.51,42.56h-4.96c-.27-3.35,2.64-5.65,2.64-5.65h4.46c.98,0,1.62,1.1,1.18,2.04l-.95,2.04c-.45.96-1.36,1.56-2.36,1.56Z"/>
      <path class="cls-2" d="m32.98,36.91l1.85-3.8c.42-.86-.19-1.88-1.13-1.88h-9.84c-.48,0-.92.28-1.13.72l-6.34,12.97c-.42.86.19,1.88,1.13,1.88h9.84c.48,0,.92-.28,1.13-.72l1.72-3.52"/>
    </g>
  </g>
</svg>