<?xml version="1.0" encoding="utf-8"?>
<!-- Generator: Adobe Illustrator 27.8.1, SVG Export Plug-In . SVG Version: 6.00 Build 0)  -->
<svg version="1.1" id="Ñëîé_1" xmlns="http://www.w3.org/2000/svg" xmlns:xlink="http://www.w3.org/1999/xlink" x="0px" y="0px"
	 viewBox="0 0 48 48" style="enable-background:new 0 0 48 48;" xml:space="preserve">
<g>
	<g>
		<path d="M24,6c9.9,0,18,8.1,18,18s-8.1,18-18,18S6,33.9,6,24S14.1,6,24,6 M24,4C13,4,4,13,4,24s9,20,20,20c11,0,20-9,20-20
			S35,4,24,4L24,4z" fill="#ff6600"/>
	</g>
	<g>
		<g>
			<path d="M22.4,24.9l-0.5-7c-0.1-1.4-0.1-2.4-0.1-3c0-0.8,0.2-1.4,0.6-1.9c0.4-0.5,1-0.7,1.7-0.7c0.8,0,1.4,0.3,1.7,0.9
				c0.3,0.6,0.4,1.4,0.4,2.5c0,0.6,0,1.3-0.1,2L25.5,25c-0.1,0.9-0.2,1.5-0.4,2c-0.2,0.5-0.6,0.7-1.1,0.7c-0.5,0-0.9-0.2-1.1-0.7
				C22.6,26.5,22.5,25.9,22.4,24.9z M24,34.6c-0.6,0-1.1-0.2-1.6-0.6c-0.4-0.4-0.7-0.9-0.7-1.6c0-0.6,0.2-1.1,0.6-1.5
				c0.4-0.4,0.9-0.6,1.6-0.6c0.6,0,1.1,0.2,1.6,0.6c0.4,0.4,0.7,0.9,0.7,1.5c0,0.7-0.2,1.2-0.7,1.6C25.1,34.4,24.6,34.6,24,34.6z" fill="#ff6600"/>
		</g>
	</g>
</g>
</svg>
