<svg width="17" height="18" viewBox="0 0 17 18" fill="none" xmlns="http://www.w3.org/2000/svg">
<path d="M8.22386 17.78C9.35327 17.78 10.3528 17.07 10.7226 16H5.71517C6.08498 17.07 7.09445 17.78 8.21387 17.78H8.22386ZM14.4406 11.19V7.11C14.4406 4.25 12.5016 1.84 9.873 1.12C9.61314 0.46 8.97347 0 8.22386 0C7.47425 0 6.83459 0.46 6.57472 1.12C3.94609 1.84 2.0071 4.25 2.0071 7.11V11.19L0.487892 12.71C0.31798 12.87 0.228027 13.1 0.228027 13.33V14.22C0.228027 14.71 0.627819 15.11 1.11756 15.11H15.3302C15.8199 15.11 16.2197 14.71 16.2197 14.22V13.33C16.2197 13.09 16.1297 12.87 15.9598 12.7L14.4406 11.18V11.19Z" fill="#999999"/>
</svg>
