<?xml version="1.0" encoding="UTF-8"?>
<svg id="Layer_2" data-name="Layer 2" xmlns="http://www.w3.org/2000/svg" viewBox="0 0 58.92 58">
  <defs>
    <style>
      .cls-1 {
        fill: none;
        stroke: #231f20;
        stroke-linecap: round;
        stroke-linejoin: round;
        stroke-width: 2px;
      }

      .cls-2 {
        fill: #231f20;
      }

      .cls-2, .cls-3 {
        stroke-width: 0px;
      }

      .cls-3 {
        fill: #7ebf42;
      }
    </style>
  </defs>
  <g id="Layer_1-2" data-name="Layer 1">
    <g>
      <circle class="cls-3" cx="14.67" cy="20.48" r="14.67"/>
      <g>
        <path class="cls-2" d="m20.95,18.45c.88,0,1.71.5,2.12,1.27l2.29,4.3c.33.62.97,1.03,1.68,1.06.03,0,.06,0,.09,0,.67,0,1.31-.34,1.68-.91.22-.34.54-.62.91-.81.31-.15.64-.23.98-.23.63,0,1.25.26,1.7.71.38.38.89.58,1.41.58.09,0,.18,0,.27-.02.62-.08,1.16-.45,1.47-.99.23-.39.56-.71.96-.91.31-.15.64-.23.99-.23.67,0,1.32.28,1.77.78.38.41.92.65,1.47.65.07,0,.13,0,.2-.01.63-.06,1.19-.42,1.51-.96.22-.36.53-.65.9-.85.32-.17.65-.25,1-.25.8,0,1.6.46,2.14,1.23.42.76,4.62,8.31,6.07,14.53.02.11.06.21.1.35l.06.18c1.47,5.07,2.27,6.63,3.15,8.14.04.08.05.15.03.24-.02.08-.07.14-.15.18l-15.9,8.48s-.09.04-.14.04-.17-.01-.25-.13c0-.01-.02-.03-.03-.04-1.63-2.27-3-2.88-5.49-3.99-.92-.41-2.06-.92-3.46-1.62l-9.69-5.2c-2.28-1.21-1.82-2.57-1.67-3.02.31-.92,1.23-1.56,2.24-1.56.23,0,.47.03.69.1l3.19.97c.19.06.39.09.58.09.61,0,1.2-.28,1.59-.78.51-.66.55-1.57.11-2.28-.89-1.43-1.74-2.9-2.52-4.37l-6.04-11.33c-.3-.57-.36-1.19-.16-1.8.19-.61.6-1.08,1.17-1.37.31-.15.64-.23.98-.23m0-2c-.64,0-1.28.14-1.88.44-1.05.53-1.83,1.43-2.19,2.55-.36,1.12-.25,2.31.3,3.34l6.04,11.33c.81,1.52,1.68,3.02,2.59,4.48l-3.19-.97c-.42-.13-.85-.19-1.27-.19-1.83,0-3.54,1.15-4.14,2.93-.73,2.17.24,4.14,2.63,5.42l9.71,5.2c1.45.73,2.63,1.26,3.57,1.68,2.37,1.06,3.36,1.5,4.67,3.33.44.65,1.16,1.01,1.9,1.01.37,0,.74-.09,1.08-.27l15.9-8.48c.56-.3.96-.8,1.13-1.4.17-.61.09-1.24-.23-1.79-.82-1.4-1.55-2.85-2.96-7.69l-.06-.21c-.02-.07-.05-.14-.06-.21-1.57-6.7-6.08-14.73-6.32-15.14-.94-1.4-2.38-2.17-3.84-2.17-.66,0-1.32.16-1.94.49-.72.38-1.28.94-1.67,1.58-.84-.92-2.03-1.43-3.25-1.43-.64,0-1.28.14-1.88.44-.78.39-1.4.99-1.81,1.7-.83-.83-1.96-1.29-3.11-1.29-.64,0-1.28.14-1.88.44-.7.35-1.28.87-1.69,1.51l-2.29-4.3c-.79-1.48-2.32-2.33-3.89-2.33h0Z"/>
        <g>
          <path class="cls-1" d="m8.88,9.99l4.24,5.74c.6.82,1.67.83,2.28,0l7.07-9.56"/>
          <path class="cls-1" d="m26.91,13.35V2.57c0-.87-.71-1.57-1.57-1.57H6.01c-.87,0-1.57.71-1.57,1.57v19.32c0,.87.71,1.57,1.57,1.57h6.31"/>
        </g>
      </g>
      <line class="cls-1" x1="26.55" y1="23.95" x2="32.86" y2="35.72"/>
      <line class="cls-1" x1="33.76" y1="23.7" x2="38.44" y2="32.62"/>
      <line class="cls-1" x1="40.51" y1="22.9" x2="44.75" y2="30.78"/>
    </g>
  </g>
</svg>