<svg width="26" height="24" viewBox="0 0 26 24" fill="none" xmlns="http://www.w3.org/2000/svg">
<g clip-path="url(#clip0_68_90)">
<path fill-rule="evenodd" clip-rule="evenodd" d="M13 15H7V17H13C12.9241 16.1638 12.9129 15.7199 13 15ZM15 11H7V13H13.5C13.5 13 14.3135 11.6581 15 11ZM17 7H7V9H17V7ZM14.82 3H19C20.1 3 21 3.9 21 5V9C20.188 8.88889 19.7541 8.90502 19 9V5H5V19H13.5C13.9476 19.7986 14.2754 20.2366 15 21H5C4.86 21 4.73 20.99 4.6 20.97C4.21 20.89 3.86 20.69 3.59 20.42C3.41 20.23 3.26 20.02 3.16 19.78C3.06 19.54 3 19.27 3 19V5C3 4.72 3.06 4.46 3.16 4.23C3.26 3.99 3.41 3.77 3.59 3.59C3.86 3.32 4.21 3.12 4.6 3.04C4.73 3.01 4.86 3 5 3H9.18C9.6 1.84 10.7 1 12 1C13.3 1 14.4 1.84 14.82 3ZM12.75 3.5C12.75 3.09 12.41 2.75 12 2.75C11.59 2.75 11.25 3.09 11.25 3.5C11.25 3.91 11.59 4.25 12 4.25C12.41 4.25 12.75 3.91 12.75 3.5Z" fill="white"/>
</g>
<g clip-path="url(#clip1_68_90)">
<path d="M25.1995 14.95L24.4595 14.77C24.3695 14.36 24.2195 13.96 24.0295 13.6L24.4795 12.98C24.6295 12.77 24.6195 12.49 24.4495 12.29L24.0395 11.8C23.8695 11.6 23.5895 11.55 23.3595 11.66L22.6795 12C22.1495 11.6 21.5295 11.31 20.8595 11.16L20.6795 10.42C20.6195 10.17 20.3995 9.99001 20.1395 9.99001H19.4995C19.2395 9.99001 19.0195 10.17 18.9595 10.42L18.7795 11.16C18.1395 11.3 17.5495 11.57 17.0395 11.95L16.3595 11.59C16.1295 11.47 15.8495 11.52 15.6795 11.71L15.2595 12.19C15.0895 12.38 15.0695 12.67 15.2195 12.88L15.6595 13.51C15.4395 13.9 15.2795 14.32 15.1795 14.77L14.4495 14.94C14.1995 15 14.0195 15.22 14.0195 15.48V16.12C14.0195 16.38 14.1895 16.6 14.4395 16.66L15.1795 16.85C15.2695 17.27 15.4195 17.66 15.6095 18.03L15.1595 18.64C15.0095 18.85 15.0195 19.13 15.1795 19.33L15.5895 19.82C15.7595 20.02 16.0295 20.08 16.2595 19.96L16.9495 19.62C17.4795 20.02 18.0995 20.31 18.7795 20.46L18.9495 21.19C19.0095 21.44 19.2295 21.62 19.4895 21.62H20.1295C20.3895 21.62 20.6095 21.45 20.6695 21.2L20.8595 20.46C21.4995 20.32 22.0995 20.04 22.6095 19.67L23.2795 20.03C23.5095 20.15 23.7895 20.1 23.9595 19.91L24.3795 19.44C24.5495 19.25 24.5695 18.96 24.4195 18.75L23.9895 18.12C24.1995 17.73 24.3595 17.31 24.4595 16.87L25.1995 16.69C25.4495 16.63 25.6295 16.41 25.6295 16.15V15.51C25.6295 15.25 25.4495 15.03 25.1995 14.97V14.95ZM19.8095 17.63C18.8095 17.63 17.9895 16.82 17.9895 15.81C17.9895 14.8 18.7995 13.99 19.8095 13.99C20.8195 13.99 21.6295 14.8 21.6295 15.81C21.6295 16.82 20.8195 17.63 19.8095 17.63Z" fill="white"/>
</g>
<defs>
<clipPath id="clip0_68_90">
<rect width="24" height="24" fill="white"/>
</clipPath>
<clipPath id="clip1_68_90">
<rect width="11.63" height="11.63" fill="white" transform="translate(14 10)"/>
</clipPath>
</defs>
</svg>
