<svg width="17" height="17" viewBox="0 0 17 17" fill="none" xmlns="http://www.w3.org/2000/svg">
<path d="M8.325 0C3.725 0 0 3.73333 0 8.33333C0 12.9333 3.725 16.6667 8.325 16.6667C12.9333 16.6667 16.6667 12.9333 16.6667 8.33333C16.6667 3.73333 12.9333 0 8.325 0ZM8.33333 15C4.65 15 1.66667 12.0167 1.66667 8.33333C1.66667 4.65 4.65 1.66667 8.33333 1.66667C12.0167 1.66667 15 4.65 15 8.33333C15 12.0167 12.0167 15 8.33333 15Z" fill="white"/>
<path d="M7.63331 13.0433C7.82331 13.2333 8.07331 13.3333 8.34331 13.3333C8.61331 13.3333 8.85331 13.2333 9.04331 13.0333C9.23331 12.8333 9.33331 12.5933 9.33331 12.3233C9.33331 12.0533 9.23331 11.8133 9.05331 11.6233C8.85331 11.4333 8.62331 11.3333 8.34331 11.3333H8.32331C7.77331 11.3433 7.33331 11.7833 7.34331 12.3333C7.34331 12.6133 7.43331 12.8433 7.63331 13.0433Z" fill="white"/>
<path d="M7.75331 8.51325C7.56331 8.83325 7.46331 9.22325 7.46331 9.67325H7.45331V10.3333H9.30331V9.91325C9.30331 9.59325 9.36331 9.31325 9.48331 9.10325C9.60331 8.89325 9.81331 8.63325 10.1333 8.33325C10.5433 7.95325 10.8133 7.59325 11.0233 7.24325C11.2333 6.89325 11.3333 6.48325 11.3333 5.99325C11.3333 5.50325 11.2133 5.05325 10.9533 4.64325C10.6933 4.23325 10.3633 3.91325 9.90331 3.68325C9.44331 3.45325 8.92331 3.33325 8.33331 3.33325C7.58331 3.33325 6.86331 3.61325 6.30331 4.12325C5.79331 4.60325 5.33331 5.32325 5.33331 6.33325H7.02331C7.02331 5.80325 7.21331 5.55325 7.42331 5.35325C7.64331 5.15325 8.01331 5.05325 8.38331 5.05325C8.73331 5.05325 9.02331 5.15325 9.23331 5.35325C9.44331 5.56325 9.55331 5.80325 9.55331 6.09325C9.55331 6.33325 9.49331 6.54325 9.36331 6.73325C9.23331 6.92325 9.03331 7.14325 8.75331 7.39325C8.28331 7.81325 7.94331 8.18325 7.75331 8.51325Z" fill="white"/>
</svg>
