<?xml version="1.0" encoding="UTF-8"?>
<svg id="Layer_2" data-name="Layer 2" xmlns="http://www.w3.org/2000/svg" viewBox="0 0 58 49.6">
  <defs>
    <style>
      .cls-1 {
        fill: none;
        stroke: #231f20;
        stroke-linecap: round;
        stroke-linejoin: round;
        stroke-width: 2px;
      }

      .cls-2 {
        fill: #231f20;
      }

      .cls-2, .cls-3 {
        stroke-width: 0px;
      }

      .cls-3 {
        fill: #7ebf42;
      }
    </style>
  </defs>
  <g id="Layer_1-2" data-name="Layer 1">
    <g>
      <path class="cls-1" d="m36.54,4.21h1.48c4.92,0,11.22,4.4,15.24,10.85"/>
      <circle class="cls-3" cx="34.73" cy="30.4" r="14.67"/>
      <polyline class="cls-1" points="24.69 13.86 24.69 1 36.54 1 36.54 13.86"/>
      <line class="cls-1" x1="3.96" y1="34.08" x2="8.4" y2="34.08"/>
      <path class="cls-1" d="m24.69,4.21h-1.48C15.36,4.21,3.96,15.47,3.96,28.32v6.43l-1.08.59c-1.16.63-1.88,1.8-1.88,3.06v4.39c0,2.66,13.26,4.82,29.62,4.82,0,0,9.33.34,14.29-.64"/>
      <polyline class="cls-1" points="24.23 35.77 18.77 35.77 17.29 34.08 13.24 34.08"/>
      <g>
        <path class="cls-2" d="m39.76,16.53l.02,2c3.2,0,6.2,1.25,8.46,3.52,2.26,2.27,3.5,5.28,3.5,8.47,0,6.6-5.38,11.96-11.99,11.96-3.2,0-6.2-1.25-8.46-3.52-2.26-2.27-3.5-5.28-3.5-8.47,0-6.6,5.38-11.96,11.97-11.96v-2m0,0c-7.71,0-13.96,6.25-13.97,13.96-.01,7.72,6.24,13.99,13.95,14,0,0,.01,0,.02,0,7.71,0,13.96-6.25,13.97-13.96.01-7.72-6.24-13.99-13.95-14,0,0-.01,0-.02,0h0Z"/>
        <path class="cls-1" d="m51.1,38.72l5.08,5.1c1.09,1.1,1.09,2.88,0,3.97h0c-1.1,1.09-2.87,1.09-3.97,0l-5.26-5.28"/>
        <polyline class="cls-1" points="33.76 31.11 38.56 35.91 45.75 25.12"/>
      </g>
    </g>
  </g>
</svg>