<?xml version="1.0" encoding="UTF-8"?>
<svg id="Layer_2" data-name="Layer 2" xmlns="http://www.w3.org/2000/svg" viewBox="0 0 58 58">
  <defs>
    <style>
      .cls-1 {
        fill: none;
        stroke: #231f20;
        stroke-linecap: round;
        stroke-linejoin: round;
        stroke-width: 2px;
      }

      .cls-2 {
        fill: #231f20;
      }

      .cls-2, .cls-3 {
        stroke-width: 0px;
      }

      .cls-3 {
        fill: #7ebf42;
      }
    </style>
  </defs>
  <g id="Layer_1-2" data-name="Layer 1">
    <g>
      <circle class="cls-3" cx="34.13" cy="35.51" r="14.67"/>
      <g>
        <path class="cls-1" d="m10.42,45.31c-4.29,2.97-7.65,6.49-7.65,11.69"/>
        <path class="cls-1" d="m15.66,12.13c3.93,2.31,7.85,4.68,10.32,7.81"/>
        <path class="cls-1" d="m15.66,12.13C10.46,9.07,5.26,5.9,3.44,1"/>
        <path class="cls-1" d="m28.55,57s0-.01,0-.02c0-1.42-.42-2.8-1.05-4.06-.82-1.66-4.43-6.27-6.37-7.61"/>
        <g>
          <path class="cls-1" d="m9.16,14.73c-4.53,3.05-8.16,6.63-8.16,12.04"/>
          <path class="cls-1" d="m12.9,41.14c-6.1-3.62-11.9-7.54-11.9-14.37"/>
          <path class="cls-1" d="m13.89,41.73c-.33-.19-.66-.39-.99-.59"/>
        </g>
        <path class="cls-1" d="m20.24,9.31c3.33-2.22,6.19-4.72,7.51-8"/>
        <line class="cls-1" x1="6.92" y1="23.89" x2="13.39" y2="23.89"/>
        <line class="cls-1" x1="16.94" y1="23.89" x2="20.66" y2="23.89"/>
        <line class="cls-1" x1="24.17" y1="23.89" x2="24.7" y2="23.89"/>
        <line class="cls-1" x1="7.07" y1="29.7" x2="10.63" y2="29.7"/>
        <line class="cls-1" x1="13.9" y1="29.7" x2="24.45" y2="29.7"/>
        <line class="cls-1" x1="10.24" y1="35.51" x2="10.63" y2="35.51"/>
        <line class="cls-1" x1="13.9" y1="35.51" x2="21.39" y2="35.51"/>
        <line class="cls-1" x1="10.45" y1="18.08" x2="10.84" y2="18.08"/>
        <line class="cls-1" x1="14.11" y1="18.08" x2="15.3" y2="18.08"/>
        <line class="cls-1" x1="14.11" y1="6.74" x2="17.08" y2="6.74"/>
        <line class="cls-1" x1="9.27" y1="51.19" x2="20.14" y2="51.19"/>
        <polyline class="cls-1" points="29.06 14.37 36.43 9.54 48.8 9.54"/>
        <line class="cls-1" x1="36.52" y1="14.37" x2="44.63" y2="14.37"/>
        <g>
          <path class="cls-1" d="m37.84,26.66c.04.35.07.72.07,1.09"/>
          <path class="cls-1" d="m30.5,37.86c.27-.17.54-.34.8-.51"/>
          <path class="cls-1" d="m31.3,37.35c3.72-2.45,6.61-5.34,6.61-9.59"/>
          <line class="cls-1" x1="40.86" y1="33.41" x2="46.18" y2="33.41"/>
          <line class="cls-1" x1="39.68" y1="37.39" x2="46.18" y2="37.39"/>
          <line class="cls-1" x1="37.31" y1="41.37" x2="46.18" y2="41.37"/>
          <path class="cls-2" d="m39.77,21.2l.02,2c3.2,0,6.2,1.25,8.46,3.52,2.26,2.27,3.5,5.28,3.5,8.47,0,6.6-5.38,11.96-11.99,11.96-3.2,0-6.2-1.25-8.46-3.52-2.26-2.27-3.5-5.28-3.5-8.47,0-6.6,5.38-11.96,11.97-11.96v-2m0,0c-7.71,0-13.96,6.25-13.97,13.96-.01,7.72,6.24,13.99,13.95,14,0,0,.01,0,.02,0,7.71,0,13.96-6.25,13.97-13.96.01-7.72-6.24-13.99-13.95-14,0,0-.01,0-.02,0h0Z"/>
          <path class="cls-1" d="m51.11,43.38l5.07,5.1c1.09,1.1,1.09,2.88,0,3.97h0c-1.1,1.09-2.87,1.09-3.97,0l-5.26-5.28"/>
        </g>
      </g>
    </g>
  </g>
</svg>