<svg width="212" height="38" viewBox="0 0 212 38" fill="none" xmlns="http://www.w3.org/2000/svg">
<path d="M27.49 18.42L27.54 22.36C27.4 24.85 27.1 26.95 26.62 28.66C26.14 30.37 25.2 31.92 23.8 33.32C21.48 35.64 18.1 36.8 13.67 36.8C8.45 36.8 4.87 36.11 2.92 34.73C0.979998 33.35 0 30.85 0 27.23V0.360001H14.18C18.27 0.360001 21.48 1.52 23.8 3.84C25.68 5.72 26.79 8 27.13 10.7C27.37 12.61 27.49 15.19 27.49 18.43V18.42ZM20.09 24.95C20.28 23.57 20.37 21.41 20.37 18.48C20.37 15.55 20.28 13.42 20.09 12.11C19.9 10.8 19.48 9.75001 18.84 8.96001C17.61 7.46001 15.84 6.71001 13.52 6.71001H7.12V26.87C7.12 28.24 7.58 29.17 8.5 29.68C9.42 30.19 11.07 30.45 13.44 30.45C15.81 30.45 17.61 29.7 18.84 28.2C19.49 27.42 19.91 26.33 20.09 24.95Z" fill="#2596CB"/>
<path d="M57.4301 6.7H47.6501V36.79H40.5401V6.7H30.8201V0.350006H57.4301V6.7Z" fill="#2596CB"/>
<path d="M116.7 36.79H103.8C99.71 36.79 96.83 36.08 95.18 34.67C93.52 33.25 92.7 30.75 92.7 27.17V0.350006H116.7V6.7H99.81V15.25H111.63L111.12 21.6H99.81V26.67C99.81 28.1 100.13 29.09 100.78 29.64C101.43 30.19 102.61 30.46 104.31 30.46H116.7V36.81V36.79Z" fill="#5A498B"/>
<path d="M151.25 36.79H143.01L135.9 23.28H130.78V36.79H123.67V8.17999C123.67 5.44999 124.3 3.46 125.56 2.22C126.82 0.970001 128.94 0.350006 131.91 0.350006H137.95C141.57 0.350006 144.44 1.44999 146.57 3.64999C148.7 5.84999 149.77 8.64 149.77 12.02C149.77 14.48 149.13 16.6 147.85 18.39C146.57 20.18 144.99 21.42 143.12 22.1L151.26 36.79H151.25ZM141.19 15.78C142.16 14.74 142.65 13.44 142.65 11.89C142.65 10.34 142.18 9.08 141.24 8.13C140.3 7.18001 139.05 6.7 137.48 6.7H133.95C131.83 6.7 130.78 7.77 130.78 9.92V17.34H137.49C138.99 17.34 140.23 16.82 141.2 15.78H141.19Z" fill="#5A498B"/>
<path d="M181.7 26.04C181.7 29.49 180.44 32.19 177.91 34.15C175.38 36.11 172.16 37.09 168.24 37.09C165.14 37.09 162.13 36.24 159.23 34.53C157.8 33.64 156.62 32.39 155.7 30.77C154.78 29.15 154.32 27.3 154.32 25.22L160.77 24.91C160.77 26.75 161.55 28.19 163.12 29.21C164.69 30.23 166.43 30.75 168.34 30.75C172.61 30.75 174.74 29.25 174.74 26.25C174.74 23.79 173.29 22.34 170.39 21.9L164.45 21.29C161.48 20.85 159.13 19.79 157.39 18.12C155.65 16.45 154.78 14.04 154.78 10.9C154.78 7.75999 156.02 5.17 158.52 3.12C161.01 1.07 164.16 0.0500031 167.96 0.0500031C171.76 0.0500031 174.83 1.01 177.15 2.94C179.47 4.87 180.63 7.35 180.63 10.39L174.28 10.7C173.7 7.73 171.7 6.25 168.29 6.25C166.21 6.25 164.58 6.69 163.4 7.58C162.22 8.47 161.63 9.52 161.63 10.73C161.63 11.94 162.06 12.9 162.91 13.6C163.76 14.3 164.82 14.73 166.08 14.91L171.91 15.52C178.43 16.41 181.69 19.92 181.69 26.06L181.7 26.04Z" fill="#5A498B"/>
<path d="M211.38 36.79H198.48C194.39 36.79 191.51 36.08 189.86 34.67C188.2 33.25 187.38 30.75 187.38 27.17V0.350006H211.38V6.7H194.49V15.25H206.31L205.8 21.6H194.49V26.67C194.49 28.1 194.81 29.09 195.46 29.64C196.11 30.19 197.29 30.46 198.99 30.46H211.38V36.81V36.79Z" fill="#5A498B"/>
<path d="M86.36 0.0399933C83.77 0.0399933 81.47 1.73001 80.71 4.21001L77.58 14.37L74.68 23.78L71.88 32.83C71.29 34.73 72.64 36.76 74.63 36.78C74.65 36.78 74.66 36.78 74.68 36.78C76.25 36.78 77.34 36 77.96 34.43L89.42 0.0399933H86.36Z" fill="#5A498B"/>
<path d="M68.61 4.35001C67.85 1.87001 65.55 0.179993 62.96 0.179993H59.95L70.62 32.02C70.62 32.02 70.66 32.09 70.67 32.13L73.99 21.36L68.59 4.34L68.61 4.35001Z" fill="#2596CB"/>
</svg>
