<?xml version="1.0" encoding="utf-8"?>
<!-- Generator: Adobe Illustrator 23.0.0, SVG Export Plug-In . SVG Version: 6.00 Build 0)  -->
<svg version="1.1" id="Layer_1" xmlns="http://www.w3.org/2000/svg" xmlns:xlink="http://www.w3.org/1999/xlink" x="0px" y="0px"
	 viewBox="0 0 28 28" style="enable-background:new 0 0 28 28;" xml:space="preserve">
<style type="text/css">
	.st0{fill:#CCCCCC;}
	.st1{fill:#999999;}
</style>
<path class="st0" d="M14.1,28C6.3,28,0,21.7,0,14S6.3,0,14.1,0C21.7,0,28,6.3,28,14S21.7,28,14.1,28z M14.1,1C6.7,1,1,6.7,1,14
	s5.7,13,13.1,13c7.2,0,13-5.8,13-13C27,6.8,21.2,1,14.1,1z"/>
<path class="st1" d="M22,11L17,10.6l-2-4.9c-0.4-0.9-1.6-0.9-1.9,0l-2,4.9L6,11c-0.9,0.1-1.3,1.3-0.6,1.9l3.9,3.5l-1.2,5.2
	c-0.2,0.9,0.8,1.7,1.6,1.2l4.4-2.8l4.4,2.8c0.8,0.5,1.8-0.2,1.6-1.2l-1.2-5.2l3.9-3.5C23.3,12.3,23,11.1,22,11z M17.5,16l1.3,5.7
	l-4.8-3l-4.8,3l1.3-5.7l-4.2-3.8l5.5-0.5L14,6.3l2.2,5.4l5.5,0.5L17.5,16z"/>
</svg>
