<svg width="50" height="49" viewBox="0 0 50 49" fill="none" xmlns="http://www.w3.org/2000/svg">
<g opacity="0.5">
<path d="M16.77 44.71H1.4C0.63 44.71 0 44.08 0 43.31V34.93C0 28.16 3.87 22.17 10.02 19.13C8.13 17.01 6.99 14.09 6.99 11.18C6.99 5.01 12 0 18.16 0C24.32 0 29.34 5.01 29.34 11.18C29.34 14.09 28.19 17.01 26.31 19.13C29.4 20.66 32 22.98 33.76 25.81C34.17 26.47 33.97 27.33 33.31 27.73C32.65 28.14 31.79 27.93 31.39 27.28C29.58 24.37 26.71 22.1 23.29 20.87C22.8 20.69 22.45 20.26 22.38 19.74C22.31 19.22 22.53 18.71 22.96 18.41C25.11 16.88 26.56 13.97 26.56 11.17C26.56 6.55 22.8 2.79 18.18 2.79C13.56 2.79 9.8 6.55 9.8 11.17C9.8 13.98 11.25 16.89 13.4 18.41C13.83 18.71 14.05 19.22 13.98 19.74C13.91 20.26 13.56 20.69 13.07 20.87C6.84 23.1 2.82 28.62 2.82 34.92V41.91H16.79C17.56 41.91 18.19 42.54 18.19 43.31C18.19 44.08 17.56 44.71 16.79 44.71H16.77Z" fill="white"/>
<path d="M37.59 44.19C37.57 44.26 37.54 44.32 37.5 44.37C37.46 44.42 37.39 44.47 37.29 44.5C37.19 44.53 37.06 44.56 36.89 44.58C36.72 44.6 36.51 44.61 36.26 44.61C36 44.61 35.78 44.61 35.62 44.58C35.46 44.55 35.33 44.54 35.25 44.5C35.17 44.46 35.11 44.42 35.08 44.37C35.06 44.32 35.05 44.26 35.06 44.19L37.19 33.52H37.17L31.22 44.18C31.14 44.35 30.98 44.46 30.75 44.52C30.52 44.58 30.19 44.61 29.76 44.61C29.33 44.61 29 44.57 28.81 44.49C28.62 44.41 28.52 44.32 28.51 44.2L26.97 33.51H26.95L24.81 44.19C24.8 44.26 24.77 44.32 24.72 44.37C24.67 44.42 24.61 44.47 24.51 44.5C24.41 44.53 24.28 44.56 24.11 44.58C23.94 44.6 23.73 44.61 23.48 44.61C23.23 44.61 23.01 44.61 22.85 44.58C22.69 44.55 22.56 44.54 22.48 44.5C22.4 44.46 22.33 44.42 22.31 44.37C22.29 44.32 22.28 44.26 22.3 44.19L24.63 32.51C24.66 32.34 24.72 32.19 24.79 32.05C24.86 31.91 24.95 31.8 25.05 31.71C25.15 31.62 25.28 31.55 25.41 31.5C25.54 31.45 25.69 31.43 25.85 31.43H27.51C27.81 31.43 28.06 31.46 28.27 31.51C28.48 31.56 28.65 31.65 28.79 31.77C28.93 31.89 29.03 32.05 29.1 32.25C29.17 32.45 29.22 32.68 29.25 32.96L30.52 40.76H30.57L35.07 32.96C35.21 32.7 35.34 32.47 35.48 32.28C35.62 32.09 35.76 31.93 35.93 31.8C36.1 31.67 36.28 31.58 36.48 31.53C36.68 31.48 36.92 31.44 37.2 31.44H39.08C39.25 31.44 39.39 31.46 39.52 31.51C39.65 31.56 39.74 31.63 39.81 31.72C39.88 31.81 39.92 31.92 39.94 32.05C39.96 32.18 39.95 32.33 39.93 32.5L37.6 44.19H37.59Z" fill="white"/>
<path d="M50 35.14C50 35.23 49.99 35.33 49.97 35.43C49.95 35.53 49.92 35.65 49.88 35.76C49.65 36.38 49.4 37.02 49.13 37.68C48.86 38.34 48.56 39.02 48.21 39.73C47.86 40.44 47.47 41.16 47.03 41.91C46.59 42.66 46.09 43.44 45.52 44.24L43.05 47.75C42.99 47.84 42.91 47.91 42.82 47.97C42.73 48.03 42.61 48.07 42.48 48.11C42.35 48.15 42.17 48.18 41.98 48.2C41.79 48.22 41.56 48.23 41.3 48.23C41.01 48.23 40.77 48.22 40.6 48.19C40.43 48.16 40.29 48.13 40.21 48.07C40.13 48.01 40.09 47.95 40.1 47.87C40.11 47.79 40.15 47.69 40.24 47.58L42.54 44.55L41.05 35.86C41.04 35.77 41.02 35.68 41.01 35.59C41 35.5 40.99 35.41 40.99 35.35C40.99 35.23 41.01 35.13 41.06 35.06C41.1 34.99 41.18 34.93 41.28 34.89C41.38 34.85 41.52 34.82 41.7 34.8C41.88 34.78 42.09 34.77 42.34 34.77C42.62 34.77 42.83 34.77 42.99 34.79C43.15 34.81 43.27 34.82 43.35 34.86C43.43 34.9 43.49 34.94 43.52 35.01C43.55 35.08 43.57 35.16 43.59 35.26L44.52 41.59H44.54C44.88 41.08 45.19 40.57 45.46 40.05C45.73 39.53 45.99 39 46.22 38.46C46.45 37.92 46.66 37.38 46.85 36.83C47.04 36.28 47.22 35.72 47.38 35.16C47.39 35.09 47.42 35.03 47.47 34.98C47.52 34.93 47.6 34.89 47.71 34.86C47.82 34.83 47.97 34.81 48.15 34.79C48.33 34.77 48.57 34.76 48.86 34.76C49.29 34.76 49.59 34.79 49.75 34.84C49.91 34.89 49.99 34.99 49.99 35.13L50 35.14Z" fill="white"/>
</g>
</svg>
