<?xml version="1.0" encoding="UTF-8"?>
<svg id="Layer_2" data-name="Layer 2" xmlns="http://www.w3.org/2000/svg" viewBox="0 0 58 50.89">
  <defs>
    <style>
      .cls-1 {
        fill: none;
        stroke: #231f20;
        stroke-linecap: round;
        stroke-linejoin: round;
        stroke-width: 2px;
      }

      .cls-2 {
        fill: #231f20;
      }

      .cls-2, .cls-3 {
        stroke-width: 0px;
      }

      .cls-3 {
        fill: #7ebf42;
      }
    </style>
  </defs>
  <g id="Layer_1-2" data-name="Layer 1">
    <g>
      <path class="cls-1" d="m50.52,39.41l5.66,5.68c1.1,1.1,1.09,2.88,0,3.98h0c-1.1,1.1-2.88,1.09-3.98,0l-5.66-5.68"/>
      <circle class="cls-3" cx="33.78" cy="31.05" r="14.67"/>
      <path class="cls-2" d="m38.21,16.23l.02,2c3.42,0,6.64,1.34,9.06,3.77,2.42,2.42,3.75,5.65,3.74,9.07,0,7.06-5.76,12.8-12.84,12.8-3.42,0-6.64-1.34-9.06-3.77-2.42-2.42-3.75-5.65-3.74-9.07,0-7.06,5.76-12.8,12.82-12.8v-2m0,0c-8.18,0-14.81,6.62-14.82,14.8-.01,8.18,6.61,14.83,14.8,14.84,0,0,.01,0,.02,0,8.18,0,14.81-6.62,14.82-14.8.01-8.18-6.61-14.83-14.8-14.84,0,0-.01,0-.02,0h0Z"/>
      <polyline class="cls-1" points="31.85 31.68 36.93 36.77 44.56 25.33"/>
      <path class="cls-1" d="m26.75,17.83c-.93-1.86-.18-4.11,1.67-5.05s4.11-.18,5.05,1.67"/>
      <path class="cls-1" d="m45.22,14.84l-1.06-4.31-3.44.36c-.62-1.24-1.44-2.34-2.41-3.27l1.37-3.19-3.8-2.29-2.18,2.69c-1.28-.42-2.63-.64-4.02-.61l-1.29-3.22-4.31,1.06.36,3.45c-1.24.62-2.34,1.44-3.27,2.41l-3.19-1.37-2.29,3.8,2.7,2.19c-.42,1.28-.64,2.63-.61,4.02l-3.22,1.29,1.06,4.31,3.45-.36c.62,1.24,1.44,2.34,2.41,3.27l-1.37,3.19s-1.92-.45-3.15-.71-2.19-.53-3.35-.51l-1.07-2.68-3.59.88.3,2.87c-1.03.52-1.95,1.2-2.72,2.01l-2.66-1.14-1.91,3.16,2.25,1.82c-.35,1.06-.53,2.19-.51,3.35l-2.68,1.07.88,3.59,2.87-.3c.52,1.03,1.2,1.95,2.01,2.72l-1.14,2.65,3.16,1.91,1.82-2.24c1.06.35,2.19.53,3.35.51l1.07,2.68,3.59-.88-.3-2.87c1.03-.52,1.95-1.2,2.72-2.01l2.65,1.14,2.08-2.25"/>
      <path class="cls-2" d="m13.78,35.36c.97,0,1.76.79,1.76,1.76s-.79,1.76-1.76,1.76-1.76-.79-1.76-1.76.79-1.76,1.76-1.76m0-2c-2.08,0-3.76,1.68-3.76,3.76s1.68,3.76,3.76,3.76,3.76-1.68,3.76-3.76-1.68-3.76-3.76-3.76h0Z"/>
    </g>
  </g>
</svg>