<svg width="139" height="139" viewBox="0 0 139 139" fill="none" xmlns="http://www.w3.org/2000/svg">
<path d="M69 125.25C99.3757 125.25 124 100.626 124 70.25C124 39.8743 99.3757 15.25 69 15.25C38.6243 15.25 14 39.8743 14 70.25C14 100.626 38.6243 125.25 69 125.25Z" fill="#F7F7F7"/>
<path d="M87.14 106.75C78.08 106.75 70.71 99.3799 70.71 90.3199C70.71 81.2599 78.08 73.8899 87.14 73.8899C96.2 73.8899 103.57 81.2599 103.57 90.3199C103.57 99.3799 96.2 106.75 87.14 106.75ZM87.14 77.5399C80.1 77.5399 74.36 83.2699 74.36 90.3199C74.36 97.3699 80.09 103.1 87.14 103.1C94.19 103.1 99.92 97.3699 99.92 90.3199C99.92 83.2699 94.19 77.5399 87.14 77.5399Z" fill="#7EBE34"/>
<path d="M65.24 92.15H45.16C44.15 92.15 43.33 91.33 43.33 90.32V79.37C43.33 70.53 48.38 62.7 56.42 58.73C53.95 55.96 52.46 52.15 52.46 48.34C52.46 40.29 59.01 33.74 67.06 33.74C75.11 33.74 81.66 40.29 81.66 48.34C81.66 52.15 80.16 55.96 77.7 58.73C81.74 60.73 85.13 63.76 87.43 67.45C87.96 68.31 87.7 69.43 86.84 69.96C85.98 70.5 84.86 70.23 84.32 69.37C81.96 65.57 78.2 62.6 73.74 61C73.1 60.77 72.64 60.2 72.55 59.53C72.46 58.86 72.75 58.19 73.3 57.79C76.11 55.8 78.01 51.99 78.01 48.33C78.01 42.29 73.1 37.38 67.06 37.38C61.02 37.38 56.11 42.29 56.11 48.33C56.11 52 58 55.8 60.82 57.79C61.38 58.18 61.67 58.85 61.57 59.53C61.48 60.2 61.02 60.77 60.38 61C52.24 63.91 46.99 71.12 46.99 79.36V88.49H65.24C66.25 88.49 67.07 89.31 67.07 90.32C67.07 91.33 66.25 92.15 65.24 92.15Z" fill="#7EBE34"/>
<path d="M85.32 97.6299C84.75 97.6299 84.2 97.3599 83.86 96.8999L78.38 89.5999C77.77 88.7899 77.94 87.6499 78.75 87.0399C79.56 86.4299 80.7 86.5999 81.3 87.3999L85.23 92.6399L91.1 83.8299C91.66 82.9899 92.79 82.7599 93.63 83.3199C94.47 83.8799 94.7 85.0099 94.14 85.8499L86.84 96.7999C86.51 97.2899 85.96 97.5999 85.37 97.6099C85.35 97.6099 85.34 97.6099 85.32 97.6099V97.6299Z" fill="#7EBE34"/>
<path d="M12.15 126.92C7.36 126.92 3.47 123.03 3.47 118.24C3.47 113.45 7.36 109.56 12.15 109.56C16.94 109.56 20.83 113.45 20.83 118.24C20.83 123.03 16.94 126.92 12.15 126.92ZM12.15 113.04C9.28 113.04 6.94 115.38 6.94 118.25C6.94 121.12 9.27 123.46 12.15 123.46C15.03 123.46 17.36 121.13 17.36 118.25C17.36 115.37 15.02 113.04 12.15 113.04Z" fill="#7F85FC"/>
<path d="M125.86 30.9401C121.43 30.9401 117.82 27.3301 117.82 22.9001C117.82 18.4701 121.43 14.8601 125.86 14.8601C130.29 14.8601 133.9 18.4701 133.9 22.9001C133.9 27.3301 130.29 30.9401 125.86 30.9401ZM125.86 18.0801C123.2 18.0801 121.04 20.2501 121.04 22.9001C121.04 25.5501 123.2 27.7201 125.86 27.7201C128.52 27.7201 130.68 25.5601 130.68 22.9001C130.68 20.2401 128.51 18.0801 125.86 18.0801Z" fill="#F4D01E"/>
<path d="M113.62 5.5C113.27 5.31 111.59 4.39 111.13 4.13C110.67 3.88 110.29 3.5 110.04 3.04C109.78 2.58 108.87 0.89 108.68 0.55C108.49 0.21 108.13 0 107.75 0C107.37 0 107.01 0.21 106.82 0.55C106.63 0.89 105.71 2.58 105.46 3.04C105.2 3.5 104.83 3.88 104.37 4.13C103.91 4.38 102.22 5.31 101.88 5.5C101.53 5.69 101.33 6.05 101.33 6.43C101.33 6.81 101.53 7.17 101.88 7.36C102.23 7.55 103.91 8.47 104.37 8.73C104.83 8.98 105.21 9.36 105.46 9.82C105.72 10.28 106.63 11.97 106.82 12.31C107.01 12.65 107.37 12.86 107.75 12.86C108.13 12.86 108.49 12.65 108.68 12.31C108.87 11.97 109.79 10.28 110.04 9.82C110.3 9.36 110.67 8.98 111.13 8.73C111.59 8.48 113.28 7.55 113.62 7.36C113.97 7.17 114.17 6.81 114.17 6.43C114.17 6.05 113.97 5.69 113.62 5.5Z" fill="#FF8C00"/>
<path d="M133.3 105.62C132.86 105.38 130.71 104.2 130.12 103.88C129.54 103.56 129.06 103.07 128.73 102.49C128.4 101.91 127.23 99.7501 126.99 99.3101C126.75 98.8701 126.29 98.6101 125.8 98.6101C125.31 98.6101 124.85 98.8801 124.61 99.3101C124.37 99.7401 123.2 101.9 122.87 102.49C122.54 103.07 122.06 103.56 121.48 103.88C120.9 104.2 118.74 105.38 118.3 105.62C117.86 105.86 117.6 106.32 117.6 106.8C117.6 107.28 117.86 107.75 118.3 107.98C118.74 108.22 120.89 109.4 121.48 109.72C122.06 110.04 122.54 110.53 122.87 111.11C123.2 111.69 124.37 113.85 124.61 114.29C124.85 114.73 125.31 114.99 125.8 114.99C126.29 114.99 126.75 114.72 126.99 114.29C127.23 113.86 128.4 111.7 128.73 111.11C129.06 110.53 129.54 110.04 130.12 109.72C130.7 109.4 132.86 108.22 133.3 107.98C133.74 107.74 134 107.28 134 106.8C134 106.32 133.74 105.85 133.3 105.62Z" fill="#F4D01E"/>
<path d="M31.78 16.9599C31.48 16.7999 30 15.9799 29.6 15.7599C29.2 15.5399 28.87 15.2099 28.65 14.8099C28.43 14.4099 27.62 12.9199 27.46 12.6299C27.3 12.3399 26.98 12.1499 26.64 12.1499C26.3 12.1499 25.99 12.3399 25.82 12.6299C25.65 12.9199 24.85 14.4099 24.63 14.8099C24.41 15.2099 24.08 15.5399 23.68 15.7599C23.28 15.9799 21.8 16.7899 21.5 16.9599C21.2 17.1299 21.02 17.4399 21.02 17.7699C21.02 18.0999 21.2 18.4199 21.5 18.5799C21.8 18.7399 23.28 19.5599 23.68 19.7799C24.08 19.9999 24.41 20.3299 24.63 20.7299C24.85 21.1299 25.66 22.6199 25.82 22.9099C25.98 23.1999 26.3 23.3899 26.64 23.3899C26.98 23.3899 27.29 23.1999 27.46 22.9099C27.63 22.6199 28.43 21.1299 28.65 20.7299C28.87 20.3299 29.2 19.9999 29.6 19.7799C30 19.5599 31.48 18.7499 31.78 18.5799C32.08 18.4099 32.26 18.0999 32.26 17.7699C32.26 17.4399 32.08 17.1199 31.78 16.9599Z" fill="#7F85FC"/>
<path d="M138.35 42.7101C138.09 42.5701 136.82 41.8701 136.48 41.6801C136.14 41.4901 135.85 41.2101 135.66 40.8601C135.47 40.5101 134.78 39.2401 134.64 38.9901C134.5 38.7401 134.23 38.5801 133.94 38.5801C133.65 38.5801 133.38 38.7401 133.24 38.9901C133.1 39.2401 132.4 40.5201 132.22 40.8601C132.04 41.2001 131.75 41.4901 131.4 41.6801C131.05 41.8701 129.79 42.5701 129.53 42.7101C129.27 42.8501 129.12 43.1201 129.12 43.4101C129.12 43.7001 129.27 43.9701 129.53 44.1101C129.79 44.2501 131.06 44.9501 131.4 45.1401C131.74 45.3301 132.03 45.6101 132.22 45.9601C132.41 46.3101 133.1 47.5801 133.24 47.8301C133.38 48.0801 133.65 48.2401 133.94 48.2401C134.23 48.2401 134.5 48.0801 134.64 47.8301C134.78 47.5801 135.48 46.3001 135.66 45.9601C135.84 45.6201 136.13 45.3301 136.48 45.1401C136.83 44.9501 138.09 44.2501 138.35 44.1101C138.61 43.9701 138.76 43.7001 138.76 43.4101C138.76 43.1201 138.61 42.8501 138.35 42.7101Z" fill="#7F85FC"/>
<path d="M2.6 93.94C4.03594 93.94 5.2 92.7759 5.2 91.34C5.2 89.904 4.03594 88.74 2.6 88.74C1.16406 88.74 0 89.904 0 91.34C0 92.7759 1.16406 93.94 2.6 93.94Z" fill="#F4D01E"/>
<path d="M48.85 12.5099C50.4019 12.5099 51.66 11.2518 51.66 9.69989C51.66 8.14797 50.4019 6.88989 48.85 6.88989C47.2981 6.88989 46.04 8.14797 46.04 9.69989C46.04 11.2518 47.2981 12.5099 48.85 12.5099Z" fill="#F4D01E"/>
<path d="M65.2 139C66.6359 139 67.8 137.836 67.8 136.4C67.8 134.964 66.6359 133.8 65.2 133.8C63.7641 133.8 62.6 134.964 62.6 136.4C62.6 137.836 63.7641 139 65.2 139Z" fill="#F4D01E"/>
<path d="M134.27 87.1901C135.402 87.1901 136.32 86.2723 136.32 85.1401C136.32 84.0079 135.402 83.0901 134.27 83.0901C133.138 83.0901 132.22 84.0079 132.22 85.1401C132.22 86.2723 133.138 87.1901 134.27 87.1901Z" fill="#FF8C00"/>
<path d="M34.71 130.39C36.6264 130.39 38.18 128.836 38.18 126.92C38.18 125.004 36.6264 123.45 34.71 123.45C32.7936 123.45 31.24 125.004 31.24 126.92C31.24 128.836 32.7936 130.39 34.71 130.39Z" fill="#FF8C00"/>
</svg>
