<svg width="204" height="49" viewBox="0 0 204 49" fill="none" xmlns="http://www.w3.org/2000/svg">
<path d="M6.58657 0H2.96845C1.32902 0 0 1.32971 0 2.97V6.59C0 8.23029 1.32902 9.56 2.96845 9.56H6.58657C8.226 9.56 9.55502 8.23029 9.55502 6.59V2.97C9.55502 1.32971 8.226 0 6.58657 0Z" fill="#999999"/>
<path d="M22.6283 0H24.1875C27.8356 0 30.794 2.96 30.794 6.61V8.17C30.794 8.94 30.1643 9.57 29.3948 9.57H22.6283C21.8587 9.57 21.229 8.94 21.229 8.17V1.4C21.239 0.63 21.8587 0 22.6283 0Z" fill="#999999"/>
<path d="M30.7839 22.54C30.7339 21.66 30.0143 20.96 29.1248 20.96H26.876C23.7576 20.96 21.2389 23.49 21.2389 26.6V28.85C21.2389 29.74 21.9385 30.46 22.8181 30.51C22.8481 30.51 22.878 30.51 22.908 30.51C27.2658 30.51 30.8039 26.97 30.8039 22.61C30.8039 22.58 30.8039 22.55 30.8039 22.52L30.7839 22.54Z" fill="#999999"/>
<path d="M3.91796 20.96H1.66913C0.779594 20.96 0.0599688 21.66 0.00999479 22.54C0 22.57 0 22.6 0 22.63V28.86C0 29.78 0.74961 30.53 1.66913 30.53H7.89589C7.89589 30.53 7.95586 30.53 7.98584 30.53C8.86538 30.48 9.56502 29.76 9.56502 28.87V26.62C9.56502 23.5 7.03633 20.98 3.92795 20.98L3.91796 20.96Z" fill="#999999"/>
<path d="M15.6518 21.78C11.8538 21.78 8.74545 18.65 8.74545 14.85C8.74545 12.43 6.78647 10.48 4.37772 10.48C1.96897 10.48 0 12.44 0 14.85C0 17.26 1.929 19.2 4.32775 19.22C8.12577 19.22 11.2541 22.35 11.2541 26.15C11.2541 28.57 13.2131 30.52 15.6219 30.52C18.0306 30.52 19.9896 28.56 19.9896 26.15C19.9896 23.74 18.0506 21.79 15.6419 21.78H15.6518Z" fill="#999999"/>
<path d="M26.886 19.23C23.088 19.23 19.9796 22.36 19.9796 26.16C19.9796 28.58 18.0206 30.53 15.6119 30.53C13.2031 30.53 11.2441 28.57 11.2441 26.16C11.2441 23.75 13.1731 21.81 15.5719 21.79C19.3699 21.79 22.4983 18.66 22.4983 14.86C22.4983 12.44 24.4573 10.49 26.866 10.49C29.2747 10.49 31.2337 12.45 31.2337 14.86C31.2337 17.27 29.2947 19.22 26.886 19.23Z" fill="#999999"/>
<path d="M15.4019 19.14C17.7976 19.14 19.7397 17.1969 19.7397 14.8C19.7397 12.403 17.7976 10.46 15.4019 10.46C13.0063 10.46 11.0642 12.403 11.0642 14.8C11.0642 17.1969 13.0063 19.14 15.4019 19.14Z" fill="#999999"/>
<path d="M19.5798 9.17C19.9396 8.86 20.1795 8.41 20.1795 7.9V1.67C20.1795 0.75 19.4299 0 18.5104 0H12.2836C11.3641 0 10.6145 0.75 10.6145 1.67V7.9C10.6145 8.48 10.9143 8.99 11.3641 9.29C12.5335 8.41 13.9728 7.88 15.5519 7.88C17.1311 7.88 18.4404 8.36 19.5798 9.17Z" fill="#999999"/>
<path d="M64.1267 16.08L64.1666 19.07C64.0667 20.96 63.8268 22.55 63.467 23.84C63.1072 25.13 62.3975 26.31 61.3381 27.37C59.579 29.13 57.0203 30.01 53.6621 30.01C49.7042 30.01 46.9856 29.49 45.5163 28.44C44.0471 27.39 43.3075 25.5 43.3075 22.75V2.38H54.0519C57.1503 2.38 59.589 3.26 61.3481 5.02C62.7674 6.44 63.6069 8.18001 63.8668 10.22C64.0467 11.67 64.1366 13.62 64.1366 16.08H64.1267ZM58.5196 21.03C58.6595 19.98 58.7295 18.35 58.7295 16.12C58.7295 13.89 58.6595 12.28 58.5196 11.29C58.3796 10.29 58.0598 9.5 57.5701 8.9C56.6405 7.76 55.2913 7.19 53.5322 7.19H48.6847V22.48C48.6847 23.52 49.0345 24.23 49.7341 24.61C50.4338 24.99 51.6831 25.19 53.4822 25.19C55.2813 25.19 56.6405 24.62 57.5701 23.48C58.0598 22.89 58.3796 22.06 58.5196 21.02V21.03Z" fill="#999999"/>
<path d="M86.8248 7.19H79.4186V30.01H74.0314V7.19H66.6653V2.38H86.8348V7.19H86.8248Z" fill="#999999"/>
<path d="M131.741 30.01H121.967C118.868 30.01 116.679 29.47 115.43 28.4C114.171 27.33 113.551 25.43 113.551 22.71V2.38H131.741V7.19H118.938V13.67H127.903L127.514 18.48H118.938V22.32C118.938 23.41 119.188 24.16 119.678 24.57C120.167 24.98 121.057 25.19 122.356 25.19H131.741V30V30.01Z" fill="#999999"/>
<path d="M157.928 30.01H151.681L146.284 19.76H142.406V30.01H137.019V8.32C137.019 6.25 137.498 4.74 138.458 3.8C139.417 2.86 141.017 2.38 143.265 2.38H147.843C150.582 2.38 152.76 3.21 154.38 4.88C155.999 6.55 156.808 8.66 156.808 11.23C156.808 13.09 156.319 14.7 155.349 16.06C154.38 17.42 153.18 18.36 151.761 18.87L157.928 30.01ZM150.302 14.08C151.041 13.29 151.411 12.31 151.411 11.13C151.411 9.95001 151.051 9 150.342 8.28C149.632 7.56 148.683 7.19 147.493 7.19H144.815C143.215 7.19 142.406 8 142.406 9.63V15.26H147.483C148.623 15.26 149.562 14.87 150.292 14.08H150.302Z" fill="#999999"/>
<path d="M181.006 21.86C181.006 24.47 180.046 26.52 178.137 28.01C176.218 29.5 173.78 30.24 170.801 30.24C168.452 30.24 166.173 29.59 163.975 28.3C162.885 27.63 161.996 26.68 161.296 25.45C160.596 24.22 160.247 22.82 160.247 21.24L165.134 21.01C165.134 22.41 165.734 23.49 166.923 24.27C168.112 25.05 169.432 25.43 170.881 25.43C174.109 25.43 175.729 24.29 175.729 22.01C175.729 20.15 174.629 19.05 172.43 18.71L167.933 18.24C165.684 17.9 163.895 17.1 162.575 15.83C161.256 14.56 160.596 12.74 160.596 10.36C160.596 7.98 161.536 6.01 163.425 4.46C165.314 2.91 167.703 2.13 170.581 2.13C173.46 2.13 175.788 2.86 177.548 4.32C179.307 5.78 180.186 7.66001 180.186 9.97001L175.379 10.2C174.939 7.95 173.43 6.82 170.841 6.82C169.262 6.82 168.033 7.16 167.133 7.83C166.243 8.5 165.794 9.3 165.794 10.22C165.794 11.14 166.114 11.86 166.763 12.39C167.413 12.92 168.212 13.25 169.172 13.38L173.59 13.85C178.527 14.52 180.996 17.19 180.996 21.85L181.006 21.86Z" fill="#999999"/>
<path d="M203.504 30.01H193.729C190.631 30.01 188.452 29.47 187.192 28.4C185.933 27.33 185.313 25.43 185.313 22.71V2.38H203.504V7.19H190.701V13.67H199.666L199.276 18.48H190.701V22.32C190.701 23.41 190.951 24.16 191.44 24.57C191.93 24.98 192.82 25.19 194.119 25.19H203.504V30V30.01Z" fill="#999999"/>
<path d="M108.743 2.14C106.774 2.14 105.035 3.42 104.466 5.3L102.087 13.01L99.8879 20.15L97.769 27.01C97.3292 28.45 98.3487 29.99 99.8579 30C99.8679 30 99.8779 30 99.8979 30C101.087 30 101.917 29.4 102.377 28.21L111.062 2.13H108.743V2.14Z" fill="#999999"/>
<path d="M95.3004 5.41C94.7207 3.53 92.9816 2.25 91.0226 2.25H88.7438L96.8396 26.39C96.8396 26.39 96.8695 26.45 96.8795 26.48L99.3982 18.31L95.3104 5.41H95.3004Z" fill="#999999"/>
<path d="M45.7262 38.76H48.9745C49.0945 38.76 49.1744 38.79 49.2244 38.84C49.2744 38.89 49.3043 38.97 49.3043 39.09V41.5H50.3038V38.29H51.5832V48.05H50.3038V42.76H49.3043V45.64C49.3043 45.76 49.2744 45.85 49.2244 45.9C49.1744 45.95 49.0945 45.97 48.9745 45.97H45.7162C45.5963 45.97 45.5063 45.95 45.4663 45.91C45.4264 45.87 45.4064 45.78 45.4064 45.66V39.1C45.4064 38.98 45.4264 38.9 45.4763 38.85C45.5263 38.8 45.6063 38.77 45.7362 38.77L45.7262 38.76ZM48.015 44.86V39.85H46.6657V44.86H48.015ZM52.3827 48.53V38.11H53.6521V48.53H52.3827Z" fill="#999999"/>
<path d="M55.5111 38.61H60.0987V39.72H56.4906V41.7H59.9688V42.81H56.4906V44.94C56.6105 44.94 56.7505 44.94 56.8904 44.94C57.0303 44.94 57.1902 44.94 57.3701 44.94C57.5501 44.94 57.74 44.94 57.9598 44.93C58.1797 44.92 58.4196 44.91 58.6895 44.88C59.0593 44.86 59.4691 44.82 59.9488 44.77C60.4186 44.72 60.8383 44.67 61.1982 44.61V45.72C60.8683 45.77 60.4885 45.82 60.0488 45.87C59.609 45.92 59.1692 45.96 58.7194 45.99C58.2597 46.02 57.7799 46.04 57.2802 46.05C56.7805 46.05 56.1908 46.06 55.5011 46.06C55.3812 46.06 55.2912 46.04 55.2513 45.99C55.2113 45.94 55.1913 45.86 55.1913 45.73V38.93C55.1913 38.81 55.2113 38.73 55.2612 38.68C55.3112 38.63 55.3912 38.6 55.5211 38.6L55.5111 38.61ZM61.588 48.53V38.11H62.8873V41.89H64.3165V43.09H62.8873V48.53H61.588Z" fill="#999999"/>
<path d="M65.2261 45.72V38.62H66.5154V41.12H68.8242V38.62H70.1235V41.58H71.8726V38.12H73.2019V48.54H71.8726V42.74H70.1235V45.72C70.1235 45.84 70.0935 45.93 70.0436 45.98C69.9936 46.03 69.9136 46.05 69.7937 46.05H65.5359C65.416 46.05 65.326 46.03 65.286 45.98C65.2461 45.93 65.2261 45.85 65.2261 45.72ZM68.8242 44.94V42.25H66.5154V44.94H68.8242Z" fill="#999999"/>
<path d="M83.8663 47.25H74.2413V46.13H83.8663V47.25ZM82.647 44.32C82.2772 44.2 81.9073 44.04 81.5275 43.84C81.1577 43.63 80.8079 43.4 80.4781 43.15C80.1483 42.89 79.8584 42.62 79.6085 42.33C79.3587 42.04 79.1688 41.76 79.0288 41.48C78.699 42.1 78.2393 42.66 77.6496 43.15C77.0499 43.64 76.3302 44.03 75.4707 44.34L74.5512 43.35C75.0909 43.19 75.5806 42.99 76.0504 42.73C76.5101 42.47 76.9099 42.17 77.2398 41.84C77.5796 41.5 77.8495 41.13 78.0394 40.72C78.2393 40.32 78.3292 39.89 78.3292 39.44V38.47H79.7485V39.44C79.7485 39.89 79.8384 40.32 80.0583 40.74C80.2682 41.16 80.5481 41.54 80.8979 41.89C81.2477 42.24 81.6475 42.54 82.0972 42.8C82.547 43.06 83.0068 43.25 83.4865 43.38L82.637 44.33L82.647 44.32Z" fill="#999999"/>
<path d="M92.6418 38.71C92.7617 38.71 92.8417 38.74 92.8917 38.79C92.9416 38.84 92.9716 38.92 92.9716 39.04C92.8816 40.65 92.4719 42.09 91.7622 43.36C91.0526 44.63 89.9932 45.71 88.5739 46.6L87.4645 45.73C88.7238 45.05 89.6833 44.22 90.353 43.24C91.0226 42.25 91.4024 41.12 91.4924 39.84H88.0342V38.72H92.6318L92.6418 38.71ZM96.06 38.12V48.54H94.7407V38.12H96.06Z" fill="#999999"/>
<path d="M102.557 43.48C102.557 43.6 102.527 43.69 102.477 43.74C102.427 43.79 102.347 43.81 102.227 43.81H97.9091C97.7891 43.81 97.6992 43.79 97.6592 43.74C97.6192 43.69 97.5992 43.61 97.5992 43.48V38.43H98.9186V40.08H101.277V38.43H102.557V43.48ZM99.0185 48.34C98.8986 48.34 98.8086 48.32 98.7686 48.27C98.7287 48.22 98.7087 48.14 98.7087 48.01V44.87H100.058V47.22H105.815V48.34H99.0185ZM101.277 42.7V41.19H98.9186V42.7H101.277ZM105.515 38.11V40.75H106.854V41.88H105.515V45.82H104.196V38.11H105.515Z" fill="#999999"/>
<path d="M110.912 38.6H112.941C114.36 38.6 115.47 38.98 116.259 39.73C117.049 40.48 117.449 41.57 117.449 43C117.449 44.43 117.049 45.54 116.259 46.28C115.47 47.03 114.36 47.4 112.941 47.4H110.912C110.792 47.4 110.702 47.38 110.662 47.34C110.622 47.3 110.602 47.21 110.602 47.09V38.92C110.602 38.8 110.622 38.72 110.662 38.68C110.702 38.63 110.792 38.61 110.912 38.61V38.6ZM111.902 46.3H113.261C114.241 46.3 114.96 46.01 115.41 45.44C115.87 44.87 116.1 44.06 116.1 43.02C116.1 41.81 115.8 40.95 115.19 40.44C114.58 39.93 113.751 39.69 112.681 39.72H111.902V46.31V46.3Z" fill="#999999"/>
<path d="M119.758 47.4V39.7H117.159V38.59H123.616V39.7H121.047V47.4H119.758Z" fill="#999999"/>
<path d="M122.596 47.4301L124.885 44.2601L122.706 41.3101H124.165L125.665 43.4201L127.164 41.3101H128.623L126.434 44.2601L128.743 47.4301H127.254L125.675 45.0701L124.085 47.4301H122.606H122.596Z" fill="#999999"/>
<path d="M134.82 43.48C134.4 43.48 134.02 43.41 133.68 43.28C133.341 43.15 133.041 42.97 132.801 42.73C132.561 42.5 132.371 42.22 132.241 41.9C132.111 41.58 132.041 41.23 132.041 40.85C132.041 40.47 132.111 40.13 132.241 39.81C132.371 39.49 132.561 39.22 132.801 38.98C133.051 38.75 133.341 38.56 133.68 38.43C134.02 38.3 134.4 38.23 134.82 38.23C135.24 38.23 135.609 38.3 135.949 38.43C136.289 38.56 136.589 38.75 136.829 38.98C137.069 39.21 137.259 39.49 137.398 39.81C137.528 40.13 137.598 40.47 137.598 40.85C137.598 41.23 137.528 41.58 137.398 41.9C137.259 42.22 137.079 42.5 136.829 42.73C136.579 42.96 136.289 43.15 135.949 43.28C135.609 43.41 135.23 43.48 134.82 43.48ZM134.82 39.35C134.36 39.35 134 39.49 133.74 39.78C133.481 40.07 133.361 40.43 133.361 40.86C133.361 41.29 133.491 41.65 133.74 41.94C133.99 42.23 134.35 42.38 134.82 42.38C135.29 42.38 135.649 42.23 135.899 41.94C136.149 41.65 136.279 41.29 136.279 40.86C136.279 40.43 136.149 40.06 135.899 39.78C135.649 39.49 135.29 39.35 134.82 39.35ZM133.8 44.5H140.167C140.287 44.5 140.367 44.53 140.417 44.58C140.467 44.63 140.497 44.71 140.497 44.83V48.1C140.497 48.22 140.467 48.31 140.417 48.36C140.367 48.41 140.287 48.43 140.167 48.43H133.8C133.68 48.43 133.59 48.41 133.54 48.36C133.491 48.31 133.471 48.23 133.471 48.1V44.83C133.471 44.71 133.491 44.63 133.54 44.58C133.59 44.53 133.67 44.5 133.8 44.5ZM139.188 47.35V45.58H134.78V47.35H139.188ZM140.507 38.12V44.06H139.208V38.12H140.507Z" fill="#999999"/>
<path d="M141.206 43.1C142.026 42.7 142.676 42.2 143.165 41.59C143.645 40.98 143.895 40.28 143.895 39.51V38.35H145.284V39.49C145.284 39.86 145.344 40.22 145.484 40.55C145.624 40.88 145.814 41.19 146.044 41.47C146.274 41.74 146.544 41.98 146.853 42.19C147.163 42.4 147.483 42.57 147.823 42.69L146.993 43.68C146.744 43.56 146.494 43.42 146.244 43.26C145.994 43.1 145.764 42.93 145.554 42.75C145.334 42.57 145.144 42.39 144.974 42.2C144.805 42.01 144.675 41.83 144.585 41.65C144.515 41.84 144.405 42.03 144.245 42.24C144.085 42.45 143.905 42.66 143.695 42.87C143.485 43.07 143.255 43.27 142.995 43.46C142.736 43.65 142.476 43.81 142.216 43.95L141.206 43.11V43.1ZM146.634 44.33C147.163 44.33 147.653 44.38 148.103 44.48C148.553 44.58 148.942 44.72 149.282 44.91C149.612 45.1 149.862 45.33 150.052 45.6C150.242 45.87 150.332 46.18 150.332 46.53C150.332 46.88 150.242 47.2 150.052 47.47C149.862 47.74 149.612 47.97 149.282 48.16C148.952 48.35 148.553 48.49 148.103 48.58C147.653 48.67 147.163 48.72 146.624 48.72C146.084 48.72 145.594 48.67 145.154 48.58C144.705 48.49 144.325 48.35 143.995 48.16C143.665 47.97 143.415 47.74 143.235 47.47C143.055 47.2 142.965 46.88 142.965 46.53C142.965 46.18 143.055 45.88 143.245 45.61C143.435 45.34 143.695 45.11 144.025 44.91C144.355 44.72 144.745 44.58 145.194 44.48C145.644 44.38 146.124 44.33 146.644 44.33H146.634ZM146.634 45.37C145.964 45.37 145.414 45.47 144.994 45.67C144.575 45.87 144.365 46.15 144.365 46.51C144.365 46.87 144.575 47.16 144.994 47.38C145.414 47.59 145.964 47.7 146.624 47.7C147.283 47.7 147.853 47.59 148.273 47.37C148.693 47.15 148.892 46.87 148.892 46.51C148.892 46.15 148.683 45.86 148.273 45.67C147.863 45.47 147.313 45.37 146.624 45.37H146.634ZM148.653 44.36V38.12H149.962V40.39H151.341V41.5H149.962V44.36H148.653Z" fill="#999999"/>
<path d="M152.081 38.72H157.698V39.81H155.579V40.72C155.579 41.75 155.789 42.66 156.209 43.46C156.628 44.25 157.308 44.91 158.238 45.44L157.308 46.34C156.748 45.98 156.249 45.57 155.819 45.09C155.389 44.61 155.069 44.13 154.879 43.62C154.679 44.17 154.35 44.71 153.88 45.24C153.41 45.77 152.93 46.22 152.411 46.59L151.331 45.72C152.191 45.21 152.88 44.54 153.4 43.71C153.92 42.88 154.17 41.87 154.17 40.67V39.82H152.071V38.73L152.081 38.72ZM159.067 48.54V38.12H160.386V48.54H159.067Z" fill="#999999"/>
<path d="M163.755 45.18V43.54H161.566V42.47H164.584C164.774 42.47 165.054 42.47 165.404 42.45C165.754 42.44 166.124 42.42 166.513 42.4C166.913 42.37 167.293 42.34 167.673 42.3C168.053 42.26 168.362 42.22 168.622 42.18V43.25C168.172 43.34 167.643 43.4 167.023 43.44C166.403 43.48 165.764 43.51 165.084 43.52V45.19H163.765L163.755 45.18ZM162.316 39.97C162.316 39.41 162.545 38.95 163.015 38.57C163.485 38.2 164.115 38.01 164.904 38.01C165.694 38.01 166.363 38.2 166.823 38.57C167.283 38.94 167.523 39.41 167.523 39.97C167.523 40.53 167.293 41.02 166.823 41.37C166.353 41.72 165.714 41.89 164.904 41.89C164.095 41.89 163.495 41.71 163.025 41.36C162.555 41.01 162.326 40.54 162.326 39.97H162.316ZM163.465 48.33C163.345 48.33 163.255 48.31 163.215 48.26C163.175 48.21 163.155 48.13 163.155 48V45.53H164.504V47.21H170.441V48.33H163.475H163.465ZM163.625 39.97C163.625 40.27 163.725 40.49 163.925 40.63C164.125 40.78 164.444 40.85 164.894 40.85C165.344 40.85 165.684 40.78 165.894 40.63C166.104 40.48 166.204 40.26 166.204 39.97C166.204 39.69 166.104 39.47 165.894 39.32C165.684 39.16 165.354 39.09 164.884 39.09C164.454 39.09 164.135 39.17 163.925 39.32C163.715 39.48 163.615 39.69 163.615 39.97H163.625ZM168.922 46.09V45.05H166.643V44.04H168.922V38.1H170.241V46.09H168.922Z" fill="#999999"/>
<path d="M183.794 43.48H174.189V42.43H183.794V43.48ZM175.229 38.35H182.735V39.33H181.575V40.76H182.945V41.76H175.039V40.76H176.388V39.33H175.229V38.35ZM182.265 46.75H176.868V47.5H182.815V48.48H175.699C175.579 48.48 175.489 48.46 175.439 48.41C175.389 48.36 175.369 48.28 175.369 48.15V46.18C175.369 46.06 175.389 45.98 175.439 45.93C175.489 45.88 175.569 45.85 175.699 45.85H181.096V45.14H175.369V44.15H182.255C182.375 44.15 182.455 44.18 182.505 44.23C182.555 44.28 182.585 44.36 182.585 44.48V46.42C182.585 46.54 182.555 46.63 182.505 46.68C182.455 46.73 182.375 46.75 182.255 46.75H182.265ZM177.708 39.33V40.76H180.266V39.33H177.708Z" fill="#999999"/>
<path d="M185.034 40.71H187.223V39.59H184.714V38.51H188.212C188.332 38.51 188.412 38.54 188.462 38.59C188.512 38.64 188.542 38.72 188.542 38.84V41.41C188.542 41.53 188.512 41.62 188.462 41.67C188.412 41.72 188.332 41.74 188.212 41.74H186.013V42.83H187.043C187.402 42.83 187.772 42.81 188.152 42.77C188.532 42.73 188.862 42.68 189.132 42.64V43.71C188.992 43.73 188.822 43.76 188.612 43.78C188.402 43.8 188.192 43.83 187.952 43.85C187.722 43.87 187.482 43.89 187.243 43.9C187.003 43.91 186.783 43.92 186.583 43.92H185.024C184.904 43.93 184.814 43.91 184.764 43.86C184.714 43.81 184.694 43.73 184.694 43.6V41.04C184.694 40.92 184.714 40.84 184.764 40.79C184.814 40.74 184.894 40.71 185.024 40.71H185.034ZM185.054 47.65C186.133 47.37 186.953 46.99 187.502 46.51C188.052 46.03 188.342 45.45 188.372 44.76V44.49H189.871V44.76C189.871 45.41 190.161 45.99 190.741 46.49C191.32 46.99 192.15 47.38 193.209 47.65L192.43 48.57C191.57 48.34 190.861 48.03 190.311 47.64C189.761 47.25 189.361 46.83 189.122 46.38C188.892 46.81 188.502 47.22 187.962 47.61C187.422 47.99 186.723 48.31 185.883 48.57L185.064 47.64L185.054 47.65ZM191.72 45.18V41.7H190.751V44.14H189.471V38.28H190.751V40.48H191.72V38.1H193V45.17H191.72V45.18Z" fill="#999999"/>
<path d="M202.665 42.26H199.396V43.19H203.514V44.31H193.909V43.19H198.017V42.26H194.759V41.15H196.168L196.148 39.47H194.949V38.36H202.455V39.47H201.235V41.15H202.665V42.26ZM195.448 45.05H201.985C202.105 45.05 202.185 45.08 202.235 45.13C202.285 45.18 202.315 45.26 202.315 45.38V48.08C202.315 48.2 202.285 48.29 202.235 48.34C202.185 48.39 202.105 48.41 201.985 48.41H195.448C195.328 48.41 195.238 48.39 195.188 48.34C195.138 48.29 195.118 48.21 195.118 48.08V45.38C195.118 45.26 195.138 45.18 195.188 45.13C195.238 45.08 195.318 45.05 195.448 45.05ZM200.985 47.31V46.15H196.438V47.31H200.985ZM197.437 39.47V41.15H199.946V39.47H197.437Z" fill="#999999"/>
</svg>
