<svg width="204" height="31" viewBox="0 0 204 31" fill="none" xmlns="http://www.w3.org/2000/svg">
<path d="M6.58657 0H2.96845C1.32902 0 0 1.32971 0 2.97V6.59C0 8.23029 1.32902 9.56 2.96845 9.56H6.58657C8.226 9.56 9.55502 8.23029 9.55502 6.59V2.97C9.55502 1.32971 8.226 0 6.58657 0Z" fill="#7EBE34"/>
<path d="M22.6282 0H24.1874C27.8355 0 30.794 2.96 30.794 6.61V8.17C30.794 8.94 30.1643 9.57 29.3947 9.57H22.6282C21.8586 9.57 21.2289 8.94 21.2289 8.17V1.4C21.2389 0.63 21.8586 0 22.6282 0Z" fill="#7EBE34"/>
<path d="M30.784 22.54C30.734 21.66 30.0144 20.96 29.1248 20.96H26.876C23.7576 20.96 21.2389 23.49 21.2389 26.6V28.85C21.2389 29.74 21.9386 30.46 22.8181 30.51C22.8481 30.51 22.8781 30.51 22.9081 30.51C27.2658 30.51 30.804 26.97 30.804 22.61C30.804 22.58 30.804 22.55 30.804 22.52L30.784 22.54Z" fill="#7EBE34"/>
<path d="M3.91796 20.96H1.66913C0.779594 20.96 0.0599688 21.66 0.00999479 22.54C0 22.57 0 22.6 0 22.63V28.86C0 29.78 0.74961 30.53 1.66913 30.53H7.89589C7.89589 30.53 7.95586 30.53 7.98584 30.53C8.86538 30.48 9.56502 29.76 9.56502 28.87V26.62C9.56502 23.5 7.03633 20.98 3.92795 20.98L3.91796 20.96Z" fill="#7EBE34"/>
<path d="M15.6518 21.78C11.8538 21.78 8.74545 18.65 8.74545 14.85C8.74545 12.43 6.78647 10.48 4.37772 10.48C1.96897 10.48 0 12.44 0 14.85C0 17.26 1.929 19.2 4.32775 19.22C8.12577 19.22 11.2541 22.35 11.2541 26.15C11.2541 28.57 13.2131 30.52 15.6219 30.52C18.0306 30.52 19.9896 28.56 19.9896 26.15C19.9896 23.74 18.0506 21.79 15.6419 21.78H15.6518Z" fill="#7EBE34"/>
<path d="M26.886 19.23C23.088 19.23 19.9796 22.36 19.9796 26.16C19.9796 28.58 18.0206 30.53 15.6119 30.53C13.2031 30.53 11.2441 28.57 11.2441 26.16C11.2441 23.75 13.1731 21.81 15.5719 21.79C19.3699 21.79 22.4983 18.66 22.4983 14.86C22.4983 12.44 24.4573 10.49 26.866 10.49C29.2747 10.49 31.2337 12.45 31.2337 14.86C31.2337 17.27 29.2947 19.22 26.886 19.23Z" fill="url(#paint0_linear_1834_3180)"/>
<path d="M15.402 19.14C17.7976 19.14 19.7397 17.1969 19.7397 14.8C19.7397 12.4031 17.7976 10.46 15.402 10.46C13.0063 10.46 11.0642 12.4031 11.0642 14.8C11.0642 17.1969 13.0063 19.14 15.402 19.14Z" fill="#1DA1DC"/>
<path d="M19.5798 9.17C19.9396 8.86 20.1795 8.41 20.1795 7.9V1.67C20.1795 0.75 19.4299 0 18.5104 0H12.2836C11.3641 0 10.6145 0.75 10.6145 1.67V7.9C10.6145 8.48 10.9143 8.99 11.3641 9.29C12.5335 8.41 13.9727 7.88 15.5519 7.88C17.1311 7.88 18.4404 8.36 19.5798 9.17Z" fill="#7EBE34"/>
<path d="M64.1266 16.08L64.1666 19.07C64.0666 20.96 63.8268 22.55 63.4669 23.84C63.1071 25.13 62.3975 26.31 61.3381 27.37C59.579 29.13 57.0203 30.01 53.6621 30.01C49.7041 30.01 46.9855 29.49 45.5163 28.44C44.0471 27.39 43.3074 25.5 43.3074 22.75V2.38H54.0519C57.1502 2.38 59.589 3.26 61.3481 5.02C62.7673 6.44 63.6069 8.18001 63.8667 10.22C64.0466 11.67 64.1366 13.62 64.1366 16.08H64.1266ZM58.5195 21.03C58.6595 19.98 58.7294 18.35 58.7294 16.12C58.7294 13.89 58.6595 12.28 58.5195 11.29C58.3796 10.29 58.0598 9.5 57.57 8.9C56.6405 7.76 55.2912 7.19 53.5321 7.19H48.6846V22.48C48.6846 23.52 49.0345 24.23 49.7341 24.61C50.4337 24.99 51.6831 25.19 53.4821 25.19C55.2812 25.19 56.6405 24.62 57.57 23.48C58.0598 22.89 58.3796 22.06 58.5195 21.02V21.03Z" fill="#2596CB"/>
<path d="M86.8248 7.19H79.4186V30.01H74.0314V7.19H66.6653V2.38H86.8348V7.19H86.8248Z" fill="#2596CB"/>
<path d="M131.741 30.01H121.966C118.868 30.01 116.679 29.47 115.43 28.4C114.171 27.33 113.551 25.43 113.551 22.71V2.38H131.741V7.19H118.938V13.67H127.903L127.514 18.48H118.938V22.32C118.938 23.41 119.188 24.16 119.678 24.57C120.167 24.98 121.057 25.19 122.356 25.19H131.741V30V30.01Z" fill="#5A498B"/>
<path d="M157.928 30.01H151.681L146.284 19.76H142.406V30.01H137.019V8.32C137.019 6.25 137.498 4.74 138.458 3.8C139.417 2.86 141.017 2.38 143.265 2.38H147.843C150.582 2.38 152.76 3.21 154.38 4.88C155.999 6.55 156.808 8.66 156.808 11.23C156.808 13.09 156.319 14.7 155.349 16.06C154.38 17.42 153.18 18.36 151.761 18.87L157.928 30.01ZM150.302 14.08C151.041 13.29 151.411 12.31 151.411 11.13C151.411 9.95001 151.051 9 150.342 8.28C149.632 7.56 148.683 7.19 147.493 7.19H144.815C143.215 7.19 142.406 8 142.406 9.63V15.26H147.483C148.623 15.26 149.562 14.87 150.292 14.08H150.302Z" fill="#5A498B"/>
<path d="M181.006 21.86C181.006 24.47 180.046 26.52 178.137 28.01C176.218 29.5 173.779 30.24 170.801 30.24C168.452 30.24 166.173 29.59 163.975 28.3C162.885 27.63 161.996 26.68 161.296 25.45C160.596 24.22 160.247 22.82 160.247 21.24L165.134 21.01C165.134 22.41 165.734 23.49 166.923 24.27C168.112 25.05 169.432 25.43 170.881 25.43C174.109 25.43 175.728 24.29 175.728 22.01C175.728 20.15 174.629 19.05 172.43 18.71L167.933 18.24C165.684 17.9 163.895 17.1 162.575 15.83C161.256 14.56 160.596 12.74 160.596 10.36C160.596 7.98 161.536 6.01 163.425 4.46C165.314 2.91 167.703 2.13 170.581 2.13C173.46 2.13 175.788 2.86 177.548 4.32C179.307 5.78 180.186 7.66001 180.186 9.97001L175.379 10.2C174.939 7.95 173.43 6.82 170.841 6.82C169.262 6.82 168.032 7.16 167.133 7.83C166.243 8.5 165.794 9.3 165.794 10.22C165.794 11.14 166.113 11.86 166.763 12.39C167.413 12.92 168.212 13.25 169.172 13.38L173.59 13.85C178.527 14.52 180.996 17.19 180.996 21.85L181.006 21.86Z" fill="#5A498B"/>
<path d="M203.504 30.01H193.729C190.631 30.01 188.452 29.47 187.192 28.4C185.933 27.33 185.313 25.43 185.313 22.71V2.38H203.504V7.19H190.701V13.67H199.666L199.276 18.48H190.701V22.32C190.701 23.41 190.951 24.16 191.44 24.57C191.93 24.98 192.82 25.19 194.119 25.19H203.504V30V30.01Z" fill="#5A498B"/>
<path d="M108.743 2.14C106.774 2.14 105.035 3.42 104.466 5.3L102.087 13.01L99.888 20.15L97.7691 27.01C97.3293 28.45 98.3488 29.99 99.858 30C99.868 30 99.878 30 99.898 30C101.087 30 101.917 29.4 102.377 28.21L111.062 2.13H108.743V2.14Z" fill="#5A498B"/>
<path d="M95.3004 5.41C94.7207 3.53 92.9816 2.25 91.0226 2.25H88.7438L96.8396 26.39C96.8396 26.39 96.8695 26.45 96.8795 26.48L99.3982 18.31L95.3104 5.41H95.3004Z" fill="#2596CB"/>
<defs>
<linearGradient id="paint0_linear_1834_3180" x1="11.2441" y1="20.5" x2="31.2337" y2="20.5" gradientUnits="userSpaceOnUse">
<stop stop-color="#7EBE34"/>
<stop offset="0.09" stop-color="#6DB950"/>
<stop offset="0.23" stop-color="#55B17A"/>
<stop offset="0.38" stop-color="#40AB9D"/>
<stop offset="0.53" stop-color="#31A7B9"/>
<stop offset="0.69" stop-color="#25A3CC"/>
<stop offset="1" stop-color="#1FA1D8"/>
</linearGradient>
</defs>
</svg>
